<svg xmlns="http://www.w3.org/2000/svg" viewBox="0 0 595 842" width="595" height="842" style="background: white">
  <title>Berlin Bear with Crown Coloring Page</title>

  <!-- Crown -->
  <path d="M195 70 L195 35 L220 60 L245 20 L270 55 L297 10 L324 55 L349 20 L374 60 L399 35 L399 70" stroke="#2C2420" fill="none" stroke-width="7" stroke-linecap="round" stroke-linejoin="round"/>
  <rect x="195" y="70" width="204" height="25" rx="5" stroke="#2C2420" fill="none" stroke-width="6"/>
  <circle cx="245" cy="82" r="6" stroke="#2C2420" fill="none" stroke-width="4"/>
  <circle cx="297" cy="82" r="6" stroke="#2C2420" fill="none" stroke-width="4"/>
  <circle cx="349" cy="82" r="6" stroke="#2C2420" fill="none" stroke-width="4"/>

  <!-- Left Ear -->
  <ellipse cx="190" cy="130" rx="55" ry="60" stroke="#2C2420" fill="none" stroke-width="7"/>
  <ellipse cx="190" cy="135" rx="30" ry="35" stroke="#2C2420" fill="none" stroke-width="5"/>
  <!-- Right Ear -->
  <ellipse cx="404" cy="130" rx="55" ry="60" stroke="#2C2420" fill="none" stroke-width="7"/>
  <ellipse cx="404" cy="135" rx="30" ry="35" stroke="#2C2420" fill="none" stroke-width="5"/>

  <!-- Head -->
  <ellipse cx="297" cy="210" rx="145" ry="130" stroke="#2C2420" fill="none" stroke-width="8"/>
  <!-- Snout -->
  <ellipse cx="297" cy="255" rx="65" ry="50" stroke="#2C2420" fill="none" stroke-width="6"/>

  <!-- Eyes -->
  <ellipse cx="240" cy="195" rx="16" ry="18" stroke="#2C2420" fill="none" stroke-width="6"/>
  <circle cx="244" cy="198" r="7" fill="#2C2420"/>
  <ellipse cx="354" cy="195" rx="16" ry="18" stroke="#2C2420" fill="none" stroke-width="6"/>
  <circle cx="350" cy="198" r="7" fill="#2C2420"/>

  <!-- Nose -->
  <ellipse cx="297" cy="242" rx="18" ry="12" fill="#2C2420"/>
  <!-- Mouth -->
  <path d="M272 268 Q297 298 322 268" stroke="#2C2420" fill="none" stroke-width="6" stroke-linecap="round"/>
  <!-- Cheeks -->
  <circle cx="210" cy="248" r="12" stroke="#2C2420" fill="none" stroke-width="4"/>
  <circle cx="384" cy="248" r="12" stroke="#2C2420" fill="none" stroke-width="4"/>

  <!-- Body -->
  <ellipse cx="297" cy="510" rx="175" ry="225" stroke="#2C2420" fill="none" stroke-width="8"/>
  <!-- Belly -->
  <ellipse cx="297" cy="500" rx="100" ry="120" stroke="#2C2420" fill="none" stroke-width="6"/>
  <!-- Star on belly -->
  <path d="M297 435 L308 465 L340 465 L314 483 L324 513 L297 496 L270 513 L280 483 L254 465 L286 465 Z" stroke="#2C2420" fill="none" stroke-width="6" stroke-linecap="round" stroke-linejoin="round"/>

  <!-- Left Arm (holding flag) -->
  <path d="M130 390 C90 440, 75 510, 90 560 Q100 585, 122 570" stroke="#2C2420" fill="none" stroke-width="8" stroke-linecap="round"/>
  <line x1="92" y1="560" x2="55" y2="340" stroke="#2C2420" fill="none" stroke-width="5" stroke-linecap="round"/>
  <path d="M55 340 L55 260 L120 280 L55 300" stroke="#2C2420" fill="none" stroke-width="6" stroke-linecap="round" stroke-linejoin="round"/>

  <!-- Right Arm (waving) -->
  <path d="M465 380 C505 320, 518 250, 505 210 Q495 188, 475 200 C458 215, 470 270, 475 315" stroke="#2C2420" fill="none" stroke-width="8" stroke-linecap="round"/>
  <ellipse cx="502" cy="200" rx="30" ry="22" stroke="#2C2420" fill="none" stroke-width="6"/>

  <!-- Feet -->
  <ellipse cx="210" cy="735" rx="70" ry="40" stroke="#2C2420" fill="none" stroke-width="8"/>
  <ellipse cx="180" cy="730" rx="16" ry="12" stroke="#2C2420" fill="none" stroke-width="5"/>
  <ellipse cx="215" cy="726" rx="16" ry="12" stroke="#2C2420" fill="none" stroke-width="5"/>
  <ellipse cx="248" cy="730" rx="16" ry="12" stroke="#2C2420" fill="none" stroke-width="5"/>
  <ellipse cx="384" cy="735" rx="70" ry="40" stroke="#2C2420" fill="none" stroke-width="8"/>
  <ellipse cx="354" cy="730" rx="16" ry="12" stroke="#2C2420" fill="none" stroke-width="5"/>
  <ellipse cx="389" cy="726" rx="16" ry="12" stroke="#2C2420" fill="none" stroke-width="5"/>
  <ellipse cx="420" cy="730" rx="16" ry="12" stroke="#2C2420" fill="none" stroke-width="5"/>

  <!-- Sparkles -->
  <path d="M160 50 L165 40 L170 50 L165 60 Z" stroke="#2C2420" fill="none" stroke-width="4"/>
  <path d="M430 40 L435 30 L440 40 L435 50 Z" stroke="#2C2420" fill="none" stroke-width="4"/>
  <path d="M145 15 L150 8 L155 15 L150 22 Z" stroke="#2C2420" fill="none" stroke-width="3"/>
  <path d="M448 18 L452 11 L456 18 L452 25 Z" stroke="#2C2420" fill="none" stroke-width="3"/>

  <text x="297.5" y="825" text-anchor="middle" font-family="sans-serif" font-size="8" fill="#C4B8AB">berlinbabysitter.com</text>
</svg>
