<svg xmlns="http://www.w3.org/2000/svg" viewBox="0 0 595 842" width="595" height="842" style="background: white">
  <title>Berlin Bear Coloring Page</title>

  <!-- Left Ear outer -->
  <ellipse cx="195" cy="115" rx="65" ry="70" stroke="#2C2420" fill="none" stroke-width="7" stroke-linecap="round" stroke-linejoin="round"/>
  <!-- Left Ear inner -->
  <ellipse cx="195" cy="120" rx="35" ry="40" stroke="#2C2420" fill="none" stroke-width="5" stroke-linecap="round" stroke-linejoin="round"/>

  <!-- Right Ear outer -->
  <ellipse cx="400" cy="115" rx="65" ry="70" stroke="#2C2420" fill="none" stroke-width="7" stroke-linecap="round" stroke-linejoin="round"/>
  <!-- Right Ear inner -->
  <ellipse cx="400" cy="120" rx="35" ry="40" stroke="#2C2420" fill="none" stroke-width="5" stroke-linecap="round" stroke-linejoin="round"/>

  <!-- Head -->
  <ellipse cx="297" cy="210" rx="155" ry="140" stroke="#2C2420" fill="none" stroke-width="8" stroke-linecap="round" stroke-linejoin="round"/>

  <!-- Snout area -->
  <ellipse cx="297" cy="260" rx="70" ry="55" stroke="#2C2420" fill="none" stroke-width="6" stroke-linecap="round" stroke-linejoin="round"/>

  <!-- Left Eye -->
  <ellipse cx="240" cy="195" rx="18" ry="20" stroke="#2C2420" fill="none" stroke-width="6" stroke-linecap="round" stroke-linejoin="round"/>
  <!-- Left pupil -->
  <circle cx="245" cy="198" r="8" stroke="#2C2420" fill="#2C2420"/>

  <!-- Right Eye -->
  <ellipse cx="354" cy="195" rx="18" ry="20" stroke="#2C2420" fill="none" stroke-width="6" stroke-linecap="round" stroke-linejoin="round"/>
  <!-- Right pupil -->
  <circle cx="349" cy="198" r="8" stroke="#2C2420" fill="#2C2420"/>

  <!-- Nose -->
  <ellipse cx="297" cy="245" rx="20" ry="14" stroke="#2C2420" fill="#2C2420" stroke-width="3"/>

  <!-- Mouth -->
  <path d="M270 270 Q297 305 324 270" stroke="#2C2420" fill="none" stroke-width="6" stroke-linecap="round" stroke-linejoin="round"/>

  <!-- Cheeks -->
  <circle cx="210" cy="250" r="15" stroke="#2C2420" fill="none" stroke-width="4" stroke-linecap="round" stroke-linejoin="round"/>
  <circle cx="384" cy="250" r="15" stroke="#2C2420" fill="none" stroke-width="4" stroke-linecap="round" stroke-linejoin="round"/>

  <!-- Body -->
  <ellipse cx="297" cy="530" rx="190" ry="240" stroke="#2C2420" fill="none" stroke-width="8" stroke-linecap="round" stroke-linejoin="round"/>

  <!-- Belly -->
  <ellipse cx="297" cy="520" rx="110" ry="130" stroke="#2C2420" fill="none" stroke-width="6" stroke-linecap="round" stroke-linejoin="round"/>

  <!-- Heart on belly -->
  <path d="M297 470 C297 455, 272 435, 258 455 C244 475, 262 498, 297 530 C332 498, 350 475, 336 455 C322 435, 297 455, 297 470 Z" stroke="#2C2420" fill="none" stroke-width="6" stroke-linecap="round" stroke-linejoin="round"/>

  <!-- Left Arm -->
  <path d="M115 400 C75 460, 60 540, 85 600 Q95 625, 120 610 C140 595, 125 550, 118 500" stroke="#2C2420" fill="none" stroke-width="8" stroke-linecap="round" stroke-linejoin="round"/>
  <!-- Left paw pad -->
  <ellipse cx="90" cy="608" rx="35" ry="25" stroke="#2C2420" fill="none" stroke-width="6" stroke-linecap="round" stroke-linejoin="round"/>

  <!-- Right Arm (waving) -->
  <path d="M480 380 C520 320, 535 240, 520 200 Q510 175, 488 190 C465 210, 478 280, 485 330" stroke="#2C2420" fill="none" stroke-width="8" stroke-linecap="round" stroke-linejoin="round"/>
  <!-- Right paw -->
  <ellipse cx="516" cy="188" rx="35" ry="25" stroke="#2C2420" fill="none" stroke-width="6" stroke-linecap="round" stroke-linejoin="round"/>

  <!-- Wave lines -->
  <path d="M558 168 C566 163, 573 168, 568 176" stroke="#2C2420" fill="none" stroke-width="5" stroke-linecap="round"/>
  <path d="M562 190 C570 185, 577 190, 572 198" stroke="#2C2420" fill="none" stroke-width="5" stroke-linecap="round"/>
  <path d="M555 148 C563 143, 570 148, 565 156" stroke="#2C2420" fill="none" stroke-width="5" stroke-linecap="round"/>

  <!-- Left Foot -->
  <ellipse cx="210" cy="760" rx="75" ry="45" stroke="#2C2420" fill="none" stroke-width="8" stroke-linecap="round" stroke-linejoin="round"/>
  <!-- Left toe pads -->
  <ellipse cx="175" cy="755" rx="18" ry="14" stroke="#2C2420" fill="none" stroke-width="5" stroke-linecap="round" stroke-linejoin="round"/>
  <ellipse cx="215" cy="750" rx="18" ry="14" stroke="#2C2420" fill="none" stroke-width="5" stroke-linecap="round" stroke-linejoin="round"/>
  <ellipse cx="250" cy="755" rx="18" ry="14" stroke="#2C2420" fill="none" stroke-width="5" stroke-linecap="round" stroke-linejoin="round"/>

  <!-- Right Foot -->
  <ellipse cx="384" cy="760" rx="75" ry="45" stroke="#2C2420" fill="none" stroke-width="8" stroke-linecap="round" stroke-linejoin="round"/>
  <!-- Right toe pads -->
  <ellipse cx="349" cy="755" rx="18" ry="14" stroke="#2C2420" fill="none" stroke-width="5" stroke-linecap="round" stroke-linejoin="round"/>
  <ellipse cx="389" cy="750" rx="18" ry="14" stroke="#2C2420" fill="none" stroke-width="5" stroke-linecap="round" stroke-linejoin="round"/>
  <ellipse cx="424" cy="755" rx="18" ry="14" stroke="#2C2420" fill="none" stroke-width="5" stroke-linecap="round" stroke-linejoin="round"/>

  <text x="297.5" y="825" text-anchor="middle" font-family="sans-serif" font-size="8" fill="#C4B8AB">berlinbabysitter.com</text>
</svg>
