<svg xmlns="http://www.w3.org/2000/svg" viewBox="0 0 595 842" width="595" height="842" style="background: white">
  <title>Berlin Skyline Coloring Page</title>

  <!-- Sky - Sun -->
  <circle cx="500" cy="80" r="40" stroke="#2C2420" fill="none" stroke-width="5"/>
  <line x1="500" y1="28" x2="500" y2="15" stroke="#2C2420" fill="none" stroke-width="4" stroke-linecap="round"/>
  <line x1="500" y1="132" x2="500" y2="145" stroke="#2C2420" fill="none" stroke-width="4" stroke-linecap="round"/>
  <line x1="448" y1="80" x2="435" y2="80" stroke="#2C2420" fill="none" stroke-width="4" stroke-linecap="round"/>
  <line x1="552" y1="80" x2="565" y2="80" stroke="#2C2420" fill="none" stroke-width="4" stroke-linecap="round"/>
  <line x1="463" y1="43" x2="455" y2="35" stroke="#2C2420" fill="none" stroke-width="4" stroke-linecap="round"/>
  <line x1="537" y1="117" x2="545" y2="125" stroke="#2C2420" fill="none" stroke-width="4" stroke-linecap="round"/>
  <line x1="463" y1="117" x2="455" y2="125" stroke="#2C2420" fill="none" stroke-width="4" stroke-linecap="round"/>
  <line x1="537" y1="43" x2="545" y2="35" stroke="#2C2420" fill="none" stroke-width="4" stroke-linecap="round"/>

  <!-- Clouds -->
  <path d="M50 100 C40 85, 55 70, 75 75 C80 58, 110 55, 118 72 C132 62, 150 68, 148 82 C162 83, 165 98, 152 106 C155 118, 140 126, 128 118 C118 128, 94 130, 90 116 C76 126, 55 120, 50 110 Z" stroke="#2C2420" fill="none" stroke-width="4" stroke-linecap="round"/>
  <path d="M280 60 C272 48, 285 35, 300 38 C305 24, 328 22, 335 35 C346 27, 360 32, 358 44 C370 45, 373 58, 360 64 C363 74, 350 80, 340 74 C332 82, 312 84, 308 72 C296 80, 278 76, 275 66 Z" stroke="#2C2420" fill="none" stroke-width="4" stroke-linecap="round"/>

  <!-- ===== SKYLINE ===== -->

  <!-- Fernsehturm (left-center) -->
  <circle cx="160" cy="210" r="8" stroke="#2C2420" fill="none" stroke-width="4"/>
  <line x1="160" y1="218" x2="160" y2="280" stroke="#2C2420" fill="none" stroke-width="4" stroke-linecap="round"/>
  <circle cx="160" cy="330" r="55" stroke="#2C2420" fill="none" stroke-width="5"/>
  <ellipse cx="160" cy="315" rx="55" ry="10" stroke="#2C2420" fill="none" stroke-width="4"/>
  <path d="M145 382 L140 530" stroke="#2C2420" fill="none" stroke-width="4" stroke-linecap="round"/>
  <path d="M175 382 L180 530" stroke="#2C2420" fill="none" stroke-width="4" stroke-linecap="round"/>

  <!-- Berlin Cathedral dome (center) -->
  <path d="M250 540 L250 380 Q250 320, 310 290 Q370 320, 370 380 L370 540" stroke="#2C2420" fill="none" stroke-width="5" stroke-linecap="round"/>
  <!-- Dome cross -->
  <line x1="310" y1="290" x2="310" y2="265" stroke="#2C2420" fill="none" stroke-width="4" stroke-linecap="round"/>
  <line x1="302" y1="275" x2="318" y2="275" stroke="#2C2420" fill="none" stroke-width="4" stroke-linecap="round"/>
  <!-- Dome windows -->
  <path d="M280 400 Q280 380, 295 375 Q310 380, 310 400" stroke="#2C2420" fill="none" stroke-width="3" stroke-linecap="round"/>
  <path d="M310 400 Q310 380, 325 375 Q340 380, 340 400" stroke="#2C2420" fill="none" stroke-width="3" stroke-linecap="round"/>
  <!-- Small side towers -->
  <path d="M252 380 Q248 340, 240 330" stroke="#2C2420" fill="none" stroke-width="4" stroke-linecap="round"/>
  <path d="M368 380 Q372 340, 380 330" stroke="#2C2420" fill="none" stroke-width="4" stroke-linecap="round"/>

  <!-- Rotes Rathaus tower -->
  <rect x="405" y="350" width="50" height="190" stroke="#2C2420" fill="none" stroke-width="4"/>
  <rect x="415" y="290" width="30" height="60" stroke="#2C2420" fill="none" stroke-width="4"/>
  <path d="M415 290 L430 268 L445 290" stroke="#2C2420" fill="none" stroke-width="4" stroke-linecap="round" stroke-linejoin="round"/>
  <!-- Clock face -->
  <circle cx="430" cy="320" r="12" stroke="#2C2420" fill="none" stroke-width="3"/>
  <!-- Windows -->
  <rect x="412" y="380" width="16" height="22" rx="3" stroke="#2C2420" fill="none" stroke-width="3"/>
  <rect x="432" y="380" width="16" height="22" rx="3" stroke="#2C2420" fill="none" stroke-width="3"/>
  <rect x="412" y="420" width="16" height="22" rx="3" stroke="#2C2420" fill="none" stroke-width="3"/>
  <rect x="432" y="420" width="16" height="22" rx="3" stroke="#2C2420" fill="none" stroke-width="3"/>

  <!-- Generic buildings -->
  <rect x="20" y="440" width="80" height="100" stroke="#2C2420" fill="none" stroke-width="4"/>
  <rect x="30" y="460" width="20" height="25" rx="3" stroke="#2C2420" fill="none" stroke-width="3"/>
  <rect x="60" y="460" width="20" height="25" rx="3" stroke="#2C2420" fill="none" stroke-width="3"/>
  <rect x="30" y="500" width="20" height="25" rx="3" stroke="#2C2420" fill="none" stroke-width="3"/>
  <rect x="60" y="500" width="20" height="25" rx="3" stroke="#2C2420" fill="none" stroke-width="3"/>

  <rect x="480" y="400" width="95" height="140" stroke="#2C2420" fill="none" stroke-width="4"/>
  <rect x="490" y="415" width="22" height="30" rx="3" stroke="#2C2420" fill="none" stroke-width="3"/>
  <rect x="520" y="415" width="22" height="30" rx="3" stroke="#2C2420" fill="none" stroke-width="3"/>
  <rect x="490" y="460" width="22" height="30" rx="3" stroke="#2C2420" fill="none" stroke-width="3"/>
  <rect x="520" y="460" width="22" height="30" rx="3" stroke="#2C2420" fill="none" stroke-width="3"/>
  <rect x="490" y="505" width="22" height="30" rx="3" stroke="#2C2420" fill="none" stroke-width="3"/>
  <rect x="520" y="505" width="22" height="30" rx="3" stroke="#2C2420" fill="none" stroke-width="3"/>

  <!-- Ground/city base -->
  <line x1="20" y1="540" x2="575" y2="540" stroke="#2C2420" fill="none" stroke-width="5" stroke-linecap="round"/>

  <!-- Spree River -->
  <path d="M20 620 C100 600, 180 640, 297 620 C400 600, 480 635, 575 618" stroke="#2C2420" fill="none" stroke-width="5" stroke-linecap="round"/>
  <path d="M20 650 C100 630, 180 670, 297 650 C400 630, 480 665, 575 648" stroke="#2C2420" fill="none" stroke-width="5" stroke-linecap="round"/>
  <!-- Water ripples -->
  <path d="M100 635 C115 630, 125 640, 140 635" stroke="#2C2420" fill="none" stroke-width="3" stroke-linecap="round"/>
  <path d="M300 633 C315 628, 325 638, 340 633" stroke="#2C2420" fill="none" stroke-width="3" stroke-linecap="round"/>
  <path d="M460 630 C475 625, 485 635, 500 630" stroke="#2C2420" fill="none" stroke-width="3" stroke-linecap="round"/>

  <!-- Oberbaum Bridge -->
  <path d="M80 570 Q125 555, 170 570" stroke="#2C2420" fill="none" stroke-width="4" stroke-linecap="round"/>
  <path d="M170 570 Q215 555, 260 570" stroke="#2C2420" fill="none" stroke-width="4" stroke-linecap="round"/>
  <line x1="80" y1="570" x2="80" y2="610" stroke="#2C2420" fill="none" stroke-width="4" stroke-linecap="round"/>
  <line x1="170" y1="570" x2="170" y2="610" stroke="#2C2420" fill="none" stroke-width="4" stroke-linecap="round"/>
  <line x1="260" y1="570" x2="260" y2="610" stroke="#2C2420" fill="none" stroke-width="4" stroke-linecap="round"/>
  <!-- Bridge towers -->
  <rect x="100" y="548" width="12" height="24" stroke="#2C2420" fill="none" stroke-width="3"/>
  <path d="M100 548 L106 538 L112 548" stroke="#2C2420" fill="none" stroke-width="3" stroke-linecap="round"/>
  <rect x="225" y="548" width="12" height="24" stroke="#2C2420" fill="none" stroke-width="3"/>
  <path d="M225 548 L231 538 L237 548" stroke="#2C2420" fill="none" stroke-width="3" stroke-linecap="round"/>

  <!-- Trees along river bank -->
  <circle cx="340" cy="560" r="20" stroke="#2C2420" fill="none" stroke-width="4"/>
  <circle cx="380" cy="555" r="18" stroke="#2C2420" fill="none" stroke-width="4"/>
  <circle cx="520" cy="558" r="22" stroke="#2C2420" fill="none" stroke-width="4"/>

  <!-- Lower section - park/grass -->
  <path d="M20 700 C100 690, 200 710, 297 700 C400 690, 500 705, 575 698" stroke="#2C2420" fill="none" stroke-width="4" stroke-linecap="round"/>

  <!-- Small people walking -->
  <circle cx="100" cy="685" r="5" stroke="#2C2420" fill="none" stroke-width="2"/>
  <line x1="100" y1="690" x2="100" y2="705" stroke="#2C2420" fill="none" stroke-width="2" stroke-linecap="round"/>
  <line x1="96" y1="705" x2="100" y2="698" stroke="#2C2420" fill="none" stroke-width="2" stroke-linecap="round"/>
  <line x1="104" y1="705" x2="100" y2="698" stroke="#2C2420" fill="none" stroke-width="2" stroke-linecap="round"/>

  <circle cx="450" cy="682" r="5" stroke="#2C2420" fill="none" stroke-width="2"/>
  <line x1="450" y1="687" x2="450" y2="702" stroke="#2C2420" fill="none" stroke-width="2" stroke-linecap="round"/>
  <line x1="446" y1="702" x2="450" y2="695" stroke="#2C2420" fill="none" stroke-width="2" stroke-linecap="round"/>
  <line x1="454" y1="702" x2="450" y2="695" stroke="#2C2420" fill="none" stroke-width="2" stroke-linecap="round"/>

  <!-- Bench -->
  <path d="M180 705 L180 720 M220 705 L220 720 M175 705 L225 705" stroke="#2C2420" fill="none" stroke-width="3" stroke-linecap="round"/>

  <!-- Birds -->
  <path d="M200 150 C205 142, 215 142, 220 150" stroke="#2C2420" fill="none" stroke-width="3" stroke-linecap="round"/>
  <path d="M230 140 C235 132, 245 132, 250 140" stroke="#2C2420" fill="none" stroke-width="3" stroke-linecap="round"/>
  <path d="M400 170 C405 162, 415 162, 420 170" stroke="#2C2420" fill="none" stroke-width="3" stroke-linecap="round"/>

  <text x="297.5" y="780" text-anchor="middle" font-family="sans-serif" font-size="8" fill="#C4B8AB">berlinbabysitter.com</text>
</svg>
