<svg xmlns="http://www.w3.org/2000/svg" viewBox="0 0 595 842" width="595" height="842" style="background: white">
  <title>Brandenburg Gate Detailed - Berlin Coloring Page for Ages 10+</title>

  <!-- ========== COBBLESTONE PAVEMENT FOREGROUND ========== -->
  <!-- Row 1 -->
  <ellipse cx="60" cy="710" rx="12" ry="6" stroke="#2C2420" fill="none" stroke-width="1" stroke-linecap="round" stroke-linejoin="round"/>
  <ellipse cx="88" cy="712" rx="10" ry="5" stroke="#2C2420" fill="none" stroke-width="1" stroke-linecap="round" stroke-linejoin="round"/>
  <ellipse cx="112" cy="708" rx="11" ry="6" stroke="#2C2420" fill="none" stroke-width="1" stroke-linecap="round" stroke-linejoin="round"/>
  <ellipse cx="140" cy="714" rx="12" ry="5" stroke="#2C2420" fill="none" stroke-width="1" stroke-linecap="round" stroke-linejoin="round"/>
  <ellipse cx="168" cy="710" rx="10" ry="6" stroke="#2C2420" fill="none" stroke-width="1" stroke-linecap="round" stroke-linejoin="round"/>
  <ellipse cx="195" cy="712" rx="11" ry="5" stroke="#2C2420" fill="none" stroke-width="1" stroke-linecap="round" stroke-linejoin="round"/>
  <ellipse cx="222" cy="708" rx="12" ry="6" stroke="#2C2420" fill="none" stroke-width="1" stroke-linecap="round" stroke-linejoin="round"/>
  <ellipse cx="250" cy="714" rx="10" ry="5" stroke="#2C2420" fill="none" stroke-width="1" stroke-linecap="round" stroke-linejoin="round"/>
  <ellipse cx="278" cy="710" rx="11" ry="6" stroke="#2C2420" fill="none" stroke-width="1" stroke-linecap="round" stroke-linejoin="round"/>
  <ellipse cx="306" cy="712" rx="12" ry="5" stroke="#2C2420" fill="none" stroke-width="1" stroke-linecap="round" stroke-linejoin="round"/>
  <ellipse cx="334" cy="708" rx="10" ry="6" stroke="#2C2420" fill="none" stroke-width="1" stroke-linecap="round" stroke-linejoin="round"/>
  <ellipse cx="362" cy="714" rx="11" ry="5" stroke="#2C2420" fill="none" stroke-width="1" stroke-linecap="round" stroke-linejoin="round"/>
  <ellipse cx="390" cy="710" rx="12" ry="6" stroke="#2C2420" fill="none" stroke-width="1" stroke-linecap="round" stroke-linejoin="round"/>
  <ellipse cx="418" cy="712" rx="10" ry="5" stroke="#2C2420" fill="none" stroke-width="1" stroke-linecap="round" stroke-linejoin="round"/>
  <ellipse cx="446" cy="708" rx="11" ry="6" stroke="#2C2420" fill="none" stroke-width="1" stroke-linecap="round" stroke-linejoin="round"/>
  <ellipse cx="474" cy="714" rx="12" ry="5" stroke="#2C2420" fill="none" stroke-width="1" stroke-linecap="round" stroke-linejoin="round"/>
  <ellipse cx="502" cy="710" rx="10" ry="6" stroke="#2C2420" fill="none" stroke-width="1" stroke-linecap="round" stroke-linejoin="round"/>
  <ellipse cx="530" cy="712" rx="11" ry="5" stroke="#2C2420" fill="none" stroke-width="1" stroke-linecap="round" stroke-linejoin="round"/>
  <!-- Row 2 -->
  <ellipse cx="74" cy="726" rx="11" ry="5" stroke="#2C2420" fill="none" stroke-width="1" stroke-linecap="round" stroke-linejoin="round"/>
  <ellipse cx="100" cy="728" rx="10" ry="6" stroke="#2C2420" fill="none" stroke-width="1" stroke-linecap="round" stroke-linejoin="round"/>
  <ellipse cx="128" cy="724" rx="12" ry="5" stroke="#2C2420" fill="none" stroke-width="1" stroke-linecap="round" stroke-linejoin="round"/>
  <ellipse cx="156" cy="728" rx="10" ry="6" stroke="#2C2420" fill="none" stroke-width="1" stroke-linecap="round" stroke-linejoin="round"/>
  <ellipse cx="184" cy="726" rx="11" ry="5" stroke="#2C2420" fill="none" stroke-width="1" stroke-linecap="round" stroke-linejoin="round"/>
  <ellipse cx="212" cy="724" rx="12" ry="6" stroke="#2C2420" fill="none" stroke-width="1" stroke-linecap="round" stroke-linejoin="round"/>
  <ellipse cx="240" cy="728" rx="10" ry="5" stroke="#2C2420" fill="none" stroke-width="1" stroke-linecap="round" stroke-linejoin="round"/>
  <ellipse cx="268" cy="726" rx="11" ry="6" stroke="#2C2420" fill="none" stroke-width="1" stroke-linecap="round" stroke-linejoin="round"/>
  <ellipse cx="296" cy="724" rx="12" ry="5" stroke="#2C2420" fill="none" stroke-width="1" stroke-linecap="round" stroke-linejoin="round"/>
  <ellipse cx="324" cy="728" rx="10" ry="6" stroke="#2C2420" fill="none" stroke-width="1" stroke-linecap="round" stroke-linejoin="round"/>
  <ellipse cx="352" cy="726" rx="11" ry="5" stroke="#2C2420" fill="none" stroke-width="1" stroke-linecap="round" stroke-linejoin="round"/>
  <ellipse cx="380" cy="724" rx="12" ry="6" stroke="#2C2420" fill="none" stroke-width="1" stroke-linecap="round" stroke-linejoin="round"/>
  <ellipse cx="408" cy="728" rx="10" ry="5" stroke="#2C2420" fill="none" stroke-width="1" stroke-linecap="round" stroke-linejoin="round"/>
  <ellipse cx="436" cy="726" rx="11" ry="6" stroke="#2C2420" fill="none" stroke-width="1" stroke-linecap="round" stroke-linejoin="round"/>
  <ellipse cx="464" cy="724" rx="12" ry="5" stroke="#2C2420" fill="none" stroke-width="1" stroke-linecap="round" stroke-linejoin="round"/>
  <ellipse cx="492" cy="728" rx="10" ry="6" stroke="#2C2420" fill="none" stroke-width="1" stroke-linecap="round" stroke-linejoin="round"/>
  <ellipse cx="520" cy="726" rx="11" ry="5" stroke="#2C2420" fill="none" stroke-width="1" stroke-linecap="round" stroke-linejoin="round"/>
  <!-- Row 3 -->
  <ellipse cx="60" cy="742" rx="10" ry="5" stroke="#2C2420" fill="none" stroke-width="1" stroke-linecap="round" stroke-linejoin="round"/>
  <ellipse cx="88" cy="744" rx="12" ry="6" stroke="#2C2420" fill="none" stroke-width="1" stroke-linecap="round" stroke-linejoin="round"/>
  <ellipse cx="118" cy="740" rx="10" ry="5" stroke="#2C2420" fill="none" stroke-width="1" stroke-linecap="round" stroke-linejoin="round"/>
  <ellipse cx="148" cy="744" rx="11" ry="6" stroke="#2C2420" fill="none" stroke-width="1" stroke-linecap="round" stroke-linejoin="round"/>
  <ellipse cx="178" cy="742" rx="12" ry="5" stroke="#2C2420" fill="none" stroke-width="1" stroke-linecap="round" stroke-linejoin="round"/>
  <ellipse cx="208" cy="740" rx="10" ry="6" stroke="#2C2420" fill="none" stroke-width="1" stroke-linecap="round" stroke-linejoin="round"/>
  <ellipse cx="238" cy="744" rx="11" ry="5" stroke="#2C2420" fill="none" stroke-width="1" stroke-linecap="round" stroke-linejoin="round"/>
  <ellipse cx="268" cy="742" rx="12" ry="6" stroke="#2C2420" fill="none" stroke-width="1" stroke-linecap="round" stroke-linejoin="round"/>
  <ellipse cx="298" cy="740" rx="10" ry="5" stroke="#2C2420" fill="none" stroke-width="1" stroke-linecap="round" stroke-linejoin="round"/>
  <ellipse cx="328" cy="744" rx="11" ry="6" stroke="#2C2420" fill="none" stroke-width="1" stroke-linecap="round" stroke-linejoin="round"/>
  <ellipse cx="358" cy="742" rx="12" ry="5" stroke="#2C2420" fill="none" stroke-width="1" stroke-linecap="round" stroke-linejoin="round"/>
  <ellipse cx="388" cy="740" rx="10" ry="6" stroke="#2C2420" fill="none" stroke-width="1" stroke-linecap="round" stroke-linejoin="round"/>
  <ellipse cx="418" cy="744" rx="11" ry="5" stroke="#2C2420" fill="none" stroke-width="1" stroke-linecap="round" stroke-linejoin="round"/>
  <ellipse cx="448" cy="742" rx="12" ry="6" stroke="#2C2420" fill="none" stroke-width="1" stroke-linecap="round" stroke-linejoin="round"/>
  <ellipse cx="478" cy="740" rx="10" ry="5" stroke="#2C2420" fill="none" stroke-width="1" stroke-linecap="round" stroke-linejoin="round"/>
  <ellipse cx="508" cy="744" rx="11" ry="6" stroke="#2C2420" fill="none" stroke-width="1" stroke-linecap="round" stroke-linejoin="round"/>
  <ellipse cx="536" cy="742" rx="10" ry="5" stroke="#2C2420" fill="none" stroke-width="1" stroke-linecap="round" stroke-linejoin="round"/>

  <!-- ========== MAIN GATE BASE / STYLOBATE ========== -->
  <rect x="95" y="680" width="405" height="15" stroke="#2C2420" fill="none" stroke-width="2" stroke-linecap="round" stroke-linejoin="round"/>
  <!-- Step below -->
  <rect x="85" y="695" width="425" height="8" stroke="#2C2420" fill="none" stroke-width="1.5" stroke-linecap="round" stroke-linejoin="round"/>

  <!-- ========== SIX DORIC COLUMNS ========== -->
  <!-- Column 1 (leftmost) -->
  <rect x="110" y="390" width="30" height="290" stroke="#2C2420" fill="none" stroke-width="2" stroke-linecap="round" stroke-linejoin="round"/>
  <!-- Fluting (vertical grooves) -->
  <line x1="115" y1="395" x2="115" y2="675" stroke="#2C2420" fill="none" stroke-width="0.8" stroke-linecap="round" stroke-linejoin="round"/>
  <line x1="120" y1="395" x2="120" y2="675" stroke="#2C2420" fill="none" stroke-width="0.8" stroke-linecap="round" stroke-linejoin="round"/>
  <line x1="125" y1="395" x2="125" y2="675" stroke="#2C2420" fill="none" stroke-width="0.8" stroke-linecap="round" stroke-linejoin="round"/>
  <line x1="130" y1="395" x2="130" y2="675" stroke="#2C2420" fill="none" stroke-width="0.8" stroke-linecap="round" stroke-linejoin="round"/>
  <line x1="135" y1="395" x2="135" y2="675" stroke="#2C2420" fill="none" stroke-width="0.8" stroke-linecap="round" stroke-linejoin="round"/>
  <!-- Capital (Doric) -->
  <rect x="106" y="383" width="38" height="7" stroke="#2C2420" fill="none" stroke-width="1.5" stroke-linecap="round" stroke-linejoin="round"/>
  <path d="M110,390 Q125,385 140,390" stroke="#2C2420" fill="none" stroke-width="1" stroke-linecap="round" stroke-linejoin="round"/>

  <!-- Column 2 -->
  <rect x="175" y="390" width="30" height="290" stroke="#2C2420" fill="none" stroke-width="2" stroke-linecap="round" stroke-linejoin="round"/>
  <line x1="180" y1="395" x2="180" y2="675" stroke="#2C2420" fill="none" stroke-width="0.8" stroke-linecap="round" stroke-linejoin="round"/>
  <line x1="185" y1="395" x2="185" y2="675" stroke="#2C2420" fill="none" stroke-width="0.8" stroke-linecap="round" stroke-linejoin="round"/>
  <line x1="190" y1="395" x2="190" y2="675" stroke="#2C2420" fill="none" stroke-width="0.8" stroke-linecap="round" stroke-linejoin="round"/>
  <line x1="195" y1="395" x2="195" y2="675" stroke="#2C2420" fill="none" stroke-width="0.8" stroke-linecap="round" stroke-linejoin="round"/>
  <line x1="200" y1="395" x2="200" y2="675" stroke="#2C2420" fill="none" stroke-width="0.8" stroke-linecap="round" stroke-linejoin="round"/>
  <rect x="171" y="383" width="38" height="7" stroke="#2C2420" fill="none" stroke-width="1.5" stroke-linecap="round" stroke-linejoin="round"/>
  <path d="M175,390 Q190,385 205,390" stroke="#2C2420" fill="none" stroke-width="1" stroke-linecap="round" stroke-linejoin="round"/>

  <!-- Column 3 -->
  <rect x="240" y="390" width="30" height="290" stroke="#2C2420" fill="none" stroke-width="2" stroke-linecap="round" stroke-linejoin="round"/>
  <line x1="245" y1="395" x2="245" y2="675" stroke="#2C2420" fill="none" stroke-width="0.8" stroke-linecap="round" stroke-linejoin="round"/>
  <line x1="250" y1="395" x2="250" y2="675" stroke="#2C2420" fill="none" stroke-width="0.8" stroke-linecap="round" stroke-linejoin="round"/>
  <line x1="255" y1="395" x2="255" y2="675" stroke="#2C2420" fill="none" stroke-width="0.8" stroke-linecap="round" stroke-linejoin="round"/>
  <line x1="260" y1="395" x2="260" y2="675" stroke="#2C2420" fill="none" stroke-width="0.8" stroke-linecap="round" stroke-linejoin="round"/>
  <line x1="265" y1="395" x2="265" y2="675" stroke="#2C2420" fill="none" stroke-width="0.8" stroke-linecap="round" stroke-linejoin="round"/>
  <rect x="236" y="383" width="38" height="7" stroke="#2C2420" fill="none" stroke-width="1.5" stroke-linecap="round" stroke-linejoin="round"/>
  <path d="M240,390 Q255,385 270,390" stroke="#2C2420" fill="none" stroke-width="1" stroke-linecap="round" stroke-linejoin="round"/>

  <!-- Column 4 -->
  <rect x="325" y="390" width="30" height="290" stroke="#2C2420" fill="none" stroke-width="2" stroke-linecap="round" stroke-linejoin="round"/>
  <line x1="330" y1="395" x2="330" y2="675" stroke="#2C2420" fill="none" stroke-width="0.8" stroke-linecap="round" stroke-linejoin="round"/>
  <line x1="335" y1="395" x2="335" y2="675" stroke="#2C2420" fill="none" stroke-width="0.8" stroke-linecap="round" stroke-linejoin="round"/>
  <line x1="340" y1="395" x2="340" y2="675" stroke="#2C2420" fill="none" stroke-width="0.8" stroke-linecap="round" stroke-linejoin="round"/>
  <line x1="345" y1="395" x2="345" y2="675" stroke="#2C2420" fill="none" stroke-width="0.8" stroke-linecap="round" stroke-linejoin="round"/>
  <line x1="350" y1="395" x2="350" y2="675" stroke="#2C2420" fill="none" stroke-width="0.8" stroke-linecap="round" stroke-linejoin="round"/>
  <rect x="321" y="383" width="38" height="7" stroke="#2C2420" fill="none" stroke-width="1.5" stroke-linecap="round" stroke-linejoin="round"/>
  <path d="M325,390 Q340,385 355,390" stroke="#2C2420" fill="none" stroke-width="1" stroke-linecap="round" stroke-linejoin="round"/>

  <!-- Column 5 -->
  <rect x="390" y="390" width="30" height="290" stroke="#2C2420" fill="none" stroke-width="2" stroke-linecap="round" stroke-linejoin="round"/>
  <line x1="395" y1="395" x2="395" y2="675" stroke="#2C2420" fill="none" stroke-width="0.8" stroke-linecap="round" stroke-linejoin="round"/>
  <line x1="400" y1="395" x2="400" y2="675" stroke="#2C2420" fill="none" stroke-width="0.8" stroke-linecap="round" stroke-linejoin="round"/>
  <line x1="405" y1="395" x2="405" y2="675" stroke="#2C2420" fill="none" stroke-width="0.8" stroke-linecap="round" stroke-linejoin="round"/>
  <line x1="410" y1="395" x2="410" y2="675" stroke="#2C2420" fill="none" stroke-width="0.8" stroke-linecap="round" stroke-linejoin="round"/>
  <line x1="415" y1="395" x2="415" y2="675" stroke="#2C2420" fill="none" stroke-width="0.8" stroke-linecap="round" stroke-linejoin="round"/>
  <rect x="386" y="383" width="38" height="7" stroke="#2C2420" fill="none" stroke-width="1.5" stroke-linecap="round" stroke-linejoin="round"/>
  <path d="M390,390 Q405,385 420,390" stroke="#2C2420" fill="none" stroke-width="1" stroke-linecap="round" stroke-linejoin="round"/>

  <!-- Column 6 (rightmost) -->
  <rect x="455" y="390" width="30" height="290" stroke="#2C2420" fill="none" stroke-width="2" stroke-linecap="round" stroke-linejoin="round"/>
  <line x1="460" y1="395" x2="460" y2="675" stroke="#2C2420" fill="none" stroke-width="0.8" stroke-linecap="round" stroke-linejoin="round"/>
  <line x1="465" y1="395" x2="465" y2="675" stroke="#2C2420" fill="none" stroke-width="0.8" stroke-linecap="round" stroke-linejoin="round"/>
  <line x1="470" y1="395" x2="470" y2="675" stroke="#2C2420" fill="none" stroke-width="0.8" stroke-linecap="round" stroke-linejoin="round"/>
  <line x1="475" y1="395" x2="475" y2="675" stroke="#2C2420" fill="none" stroke-width="0.8" stroke-linecap="round" stroke-linejoin="round"/>
  <line x1="480" y1="395" x2="480" y2="675" stroke="#2C2420" fill="none" stroke-width="0.8" stroke-linecap="round" stroke-linejoin="round"/>
  <rect x="451" y="383" width="38" height="7" stroke="#2C2420" fill="none" stroke-width="1.5" stroke-linecap="round" stroke-linejoin="round"/>
  <path d="M455,390 Q470,385 485,390" stroke="#2C2420" fill="none" stroke-width="1" stroke-linecap="round" stroke-linejoin="round"/>

  <!-- ========== ENTABLATURE (architrave, frieze, cornice) ========== -->
  <!-- Architrave (bottom beam) -->
  <rect x="95" y="365" width="405" height="18" stroke="#2C2420" fill="none" stroke-width="2" stroke-linecap="round" stroke-linejoin="round"/>

  <!-- Frieze with Triglyphs and Metopes -->
  <rect x="95" y="340" width="405" height="25" stroke="#2C2420" fill="none" stroke-width="2" stroke-linecap="round" stroke-linejoin="round"/>
  <!-- Triglyphs (vertical-grooved blocks) -->
  <rect x="110" y="342" width="14" height="21" stroke="#2C2420" fill="none" stroke-width="1" stroke-linecap="round" stroke-linejoin="round"/>
  <line x1="114" y1="342" x2="114" y2="363" stroke="#2C2420" fill="none" stroke-width="0.8" stroke-linecap="round" stroke-linejoin="round"/>
  <line x1="117" y1="342" x2="117" y2="363" stroke="#2C2420" fill="none" stroke-width="0.8" stroke-linecap="round" stroke-linejoin="round"/>
  <line x1="120" y1="342" x2="120" y2="363" stroke="#2C2420" fill="none" stroke-width="0.8" stroke-linecap="round" stroke-linejoin="round"/>

  <rect x="152" y="342" width="14" height="21" stroke="#2C2420" fill="none" stroke-width="1" stroke-linecap="round" stroke-linejoin="round"/>
  <line x1="156" y1="342" x2="156" y2="363" stroke="#2C2420" fill="none" stroke-width="0.8" stroke-linecap="round" stroke-linejoin="round"/>
  <line x1="159" y1="342" x2="159" y2="363" stroke="#2C2420" fill="none" stroke-width="0.8" stroke-linecap="round" stroke-linejoin="round"/>
  <line x1="162" y1="342" x2="162" y2="363" stroke="#2C2420" fill="none" stroke-width="0.8" stroke-linecap="round" stroke-linejoin="round"/>

  <rect x="194" y="342" width="14" height="21" stroke="#2C2420" fill="none" stroke-width="1" stroke-linecap="round" stroke-linejoin="round"/>
  <line x1="198" y1="342" x2="198" y2="363" stroke="#2C2420" fill="none" stroke-width="0.8" stroke-linecap="round" stroke-linejoin="round"/>
  <line x1="201" y1="342" x2="201" y2="363" stroke="#2C2420" fill="none" stroke-width="0.8" stroke-linecap="round" stroke-linejoin="round"/>
  <line x1="204" y1="342" x2="204" y2="363" stroke="#2C2420" fill="none" stroke-width="0.8" stroke-linecap="round" stroke-linejoin="round"/>

  <rect x="236" y="342" width="14" height="21" stroke="#2C2420" fill="none" stroke-width="1" stroke-linecap="round" stroke-linejoin="round"/>
  <line x1="240" y1="342" x2="240" y2="363" stroke="#2C2420" fill="none" stroke-width="0.8" stroke-linecap="round" stroke-linejoin="round"/>
  <line x1="243" y1="342" x2="243" y2="363" stroke="#2C2420" fill="none" stroke-width="0.8" stroke-linecap="round" stroke-linejoin="round"/>
  <line x1="246" y1="342" x2="246" y2="363" stroke="#2C2420" fill="none" stroke-width="0.8" stroke-linecap="round" stroke-linejoin="round"/>

  <rect x="278" y="342" width="14" height="21" stroke="#2C2420" fill="none" stroke-width="1" stroke-linecap="round" stroke-linejoin="round"/>
  <line x1="282" y1="342" x2="282" y2="363" stroke="#2C2420" fill="none" stroke-width="0.8" stroke-linecap="round" stroke-linejoin="round"/>
  <line x1="285" y1="342" x2="285" y2="363" stroke="#2C2420" fill="none" stroke-width="0.8" stroke-linecap="round" stroke-linejoin="round"/>
  <line x1="288" y1="342" x2="288" y2="363" stroke="#2C2420" fill="none" stroke-width="0.8" stroke-linecap="round" stroke-linejoin="round"/>

  <rect x="320" y="342" width="14" height="21" stroke="#2C2420" fill="none" stroke-width="1" stroke-linecap="round" stroke-linejoin="round"/>
  <line x1="324" y1="342" x2="324" y2="363" stroke="#2C2420" fill="none" stroke-width="0.8" stroke-linecap="round" stroke-linejoin="round"/>
  <line x1="327" y1="342" x2="327" y2="363" stroke="#2C2420" fill="none" stroke-width="0.8" stroke-linecap="round" stroke-linejoin="round"/>
  <line x1="330" y1="342" x2="330" y2="363" stroke="#2C2420" fill="none" stroke-width="0.8" stroke-linecap="round" stroke-linejoin="round"/>

  <rect x="362" y="342" width="14" height="21" stroke="#2C2420" fill="none" stroke-width="1" stroke-linecap="round" stroke-linejoin="round"/>
  <line x1="366" y1="342" x2="366" y2="363" stroke="#2C2420" fill="none" stroke-width="0.8" stroke-linecap="round" stroke-linejoin="round"/>
  <line x1="369" y1="342" x2="369" y2="363" stroke="#2C2420" fill="none" stroke-width="0.8" stroke-linecap="round" stroke-linejoin="round"/>
  <line x1="372" y1="342" x2="372" y2="363" stroke="#2C2420" fill="none" stroke-width="0.8" stroke-linecap="round" stroke-linejoin="round"/>

  <rect x="404" y="342" width="14" height="21" stroke="#2C2420" fill="none" stroke-width="1" stroke-linecap="round" stroke-linejoin="round"/>
  <line x1="408" y1="342" x2="408" y2="363" stroke="#2C2420" fill="none" stroke-width="0.8" stroke-linecap="round" stroke-linejoin="round"/>
  <line x1="411" y1="342" x2="411" y2="363" stroke="#2C2420" fill="none" stroke-width="0.8" stroke-linecap="round" stroke-linejoin="round"/>
  <line x1="414" y1="342" x2="414" y2="363" stroke="#2C2420" fill="none" stroke-width="0.8" stroke-linecap="round" stroke-linejoin="round"/>

  <rect x="446" y="342" width="14" height="21" stroke="#2C2420" fill="none" stroke-width="1" stroke-linecap="round" stroke-linejoin="round"/>
  <line x1="450" y1="342" x2="450" y2="363" stroke="#2C2420" fill="none" stroke-width="0.8" stroke-linecap="round" stroke-linejoin="round"/>
  <line x1="453" y1="342" x2="453" y2="363" stroke="#2C2420" fill="none" stroke-width="0.8" stroke-linecap="round" stroke-linejoin="round"/>
  <line x1="456" y1="342" x2="456" y2="363" stroke="#2C2420" fill="none" stroke-width="0.8" stroke-linecap="round" stroke-linejoin="round"/>

  <!-- Metopes (decorative panels between triglyphs) - small wreaths/rosettes -->
  <circle cx="138" cy="352" r="7" stroke="#2C2420" fill="none" stroke-width="0.8" stroke-linecap="round" stroke-linejoin="round"/>
  <circle cx="138" cy="352" r="3" stroke="#2C2420" fill="none" stroke-width="0.8" stroke-linecap="round" stroke-linejoin="round"/>
  <circle cx="180" cy="352" r="7" stroke="#2C2420" fill="none" stroke-width="0.8" stroke-linecap="round" stroke-linejoin="round"/>
  <circle cx="180" cy="352" r="3" stroke="#2C2420" fill="none" stroke-width="0.8" stroke-linecap="round" stroke-linejoin="round"/>
  <circle cx="222" cy="352" r="7" stroke="#2C2420" fill="none" stroke-width="0.8" stroke-linecap="round" stroke-linejoin="round"/>
  <circle cx="222" cy="352" r="3" stroke="#2C2420" fill="none" stroke-width="0.8" stroke-linecap="round" stroke-linejoin="round"/>
  <circle cx="264" cy="352" r="7" stroke="#2C2420" fill="none" stroke-width="0.8" stroke-linecap="round" stroke-linejoin="round"/>
  <circle cx="264" cy="352" r="3" stroke="#2C2420" fill="none" stroke-width="0.8" stroke-linecap="round" stroke-linejoin="round"/>
  <circle cx="306" cy="352" r="7" stroke="#2C2420" fill="none" stroke-width="0.8" stroke-linecap="round" stroke-linejoin="round"/>
  <circle cx="306" cy="352" r="3" stroke="#2C2420" fill="none" stroke-width="0.8" stroke-linecap="round" stroke-linejoin="round"/>
  <circle cx="348" cy="352" r="7" stroke="#2C2420" fill="none" stroke-width="0.8" stroke-linecap="round" stroke-linejoin="round"/>
  <circle cx="348" cy="352" r="3" stroke="#2C2420" fill="none" stroke-width="0.8" stroke-linecap="round" stroke-linejoin="round"/>
  <circle cx="390" cy="352" r="7" stroke="#2C2420" fill="none" stroke-width="0.8" stroke-linecap="round" stroke-linejoin="round"/>
  <circle cx="390" cy="352" r="3" stroke="#2C2420" fill="none" stroke-width="0.8" stroke-linecap="round" stroke-linejoin="round"/>
  <circle cx="432" cy="352" r="7" stroke="#2C2420" fill="none" stroke-width="0.8" stroke-linecap="round" stroke-linejoin="round"/>
  <circle cx="432" cy="352" r="3" stroke="#2C2420" fill="none" stroke-width="0.8" stroke-linecap="round" stroke-linejoin="round"/>
  <circle cx="474" cy="352" r="7" stroke="#2C2420" fill="none" stroke-width="0.8" stroke-linecap="round" stroke-linejoin="round"/>
  <circle cx="474" cy="352" r="3" stroke="#2C2420" fill="none" stroke-width="0.8" stroke-linecap="round" stroke-linejoin="round"/>

  <!-- Cornice (top projecting ledge) -->
  <rect x="88" y="330" width="420" height="10" stroke="#2C2420" fill="none" stroke-width="2" stroke-linecap="round" stroke-linejoin="round"/>
  <!-- Dentil molding under cornice -->
  <line x1="95" y1="338" x2="95" y2="340" stroke="#2C2420" fill="none" stroke-width="1" stroke-linecap="round" stroke-linejoin="round"/>
  <line x1="102" y1="338" x2="102" y2="340" stroke="#2C2420" fill="none" stroke-width="1" stroke-linecap="round" stroke-linejoin="round"/>
  <line x1="109" y1="338" x2="109" y2="340" stroke="#2C2420" fill="none" stroke-width="1" stroke-linecap="round" stroke-linejoin="round"/>
  <line x1="116" y1="338" x2="116" y2="340" stroke="#2C2420" fill="none" stroke-width="1" stroke-linecap="round" stroke-linejoin="round"/>
  <line x1="123" y1="338" x2="123" y2="340" stroke="#2C2420" fill="none" stroke-width="1" stroke-linecap="round" stroke-linejoin="round"/>
  <line x1="130" y1="338" x2="130" y2="340" stroke="#2C2420" fill="none" stroke-width="1" stroke-linecap="round" stroke-linejoin="round"/>
  <line x1="137" y1="338" x2="137" y2="340" stroke="#2C2420" fill="none" stroke-width="1" stroke-linecap="round" stroke-linejoin="round"/>

  <!-- ========== ATTIC (upper section above entablature) ========== -->
  <rect x="95" y="290" width="405" height="40" stroke="#2C2420" fill="none" stroke-width="2" stroke-linecap="round" stroke-linejoin="round"/>
  <!-- Decorative relief panels in attic -->
  <rect x="110" y="296" width="55" height="28" stroke="#2C2420" fill="none" stroke-width="1" stroke-linecap="round" stroke-linejoin="round"/>
  <rect x="175" y="296" width="55" height="28" stroke="#2C2420" fill="none" stroke-width="1" stroke-linecap="round" stroke-linejoin="round"/>
  <rect x="240" y="296" width="55" height="28" stroke="#2C2420" fill="none" stroke-width="1" stroke-linecap="round" stroke-linejoin="round"/>
  <rect x="305" y="296" width="55" height="28" stroke="#2C2420" fill="none" stroke-width="1" stroke-linecap="round" stroke-linejoin="round"/>
  <rect x="370" y="296" width="55" height="28" stroke="#2C2420" fill="none" stroke-width="1" stroke-linecap="round" stroke-linejoin="round"/>
  <rect x="435" y="296" width="55" height="28" stroke="#2C2420" fill="none" stroke-width="1" stroke-linecap="round" stroke-linejoin="round"/>

  <!-- Wreaths/laurel relief in attic panels -->
  <!-- Panel 1 wreath -->
  <ellipse cx="137" cy="310" rx="10" ry="11" stroke="#2C2420" fill="none" stroke-width="0.8" stroke-linecap="round" stroke-linejoin="round"/>
  <path d="M132,302 Q137,298 142,302" stroke="#2C2420" fill="none" stroke-width="0.8" stroke-linecap="round" stroke-linejoin="round"/>
  <!-- Panel 3 wreath -->
  <ellipse cx="267" cy="310" rx="10" ry="11" stroke="#2C2420" fill="none" stroke-width="0.8" stroke-linecap="round" stroke-linejoin="round"/>
  <path d="M262,302 Q267,298 272,302" stroke="#2C2420" fill="none" stroke-width="0.8" stroke-linecap="round" stroke-linejoin="round"/>
  <!-- Panel 5 wreath -->
  <ellipse cx="397" cy="310" rx="10" ry="11" stroke="#2C2420" fill="none" stroke-width="0.8" stroke-linecap="round" stroke-linejoin="round"/>
  <path d="M392,302 Q397,298 402,302" stroke="#2C2420" fill="none" stroke-width="0.8" stroke-linecap="round" stroke-linejoin="round"/>

  <!-- ========== QUADRIGA ON TOP ========== -->
  <!-- Platform for Quadriga -->
  <rect x="220" y="280" width="155" height="10" stroke="#2C2420" fill="none" stroke-width="1.5" stroke-linecap="round" stroke-linejoin="round"/>

  <!-- Horse 1 (leftmost) -->
  <path d="M235,278 L235,258 Q238,248 240,255 L242,265 L242,278" stroke="#2C2420" fill="none" stroke-width="1.5" stroke-linecap="round" stroke-linejoin="round"/>
  <!-- Body -->
  <path d="M235,258 Q245,250 255,255 L255,265" stroke="#2C2420" fill="none" stroke-width="1.5" stroke-linecap="round" stroke-linejoin="round"/>
  <!-- Head -->
  <path d="M235,258 Q230,252 228,245 Q227,240 232,238 Q236,237 238,242 Q237,248 235,253" stroke="#2C2420" fill="none" stroke-width="1.5" stroke-linecap="round" stroke-linejoin="round"/>
  <!-- Front leg raised -->
  <path d="M240,270 Q235,265 230,268" stroke="#2C2420" fill="none" stroke-width="1.5" stroke-linecap="round" stroke-linejoin="round"/>
  <!-- Tail -->
  <path d="M255,258 Q258,252 260,258" stroke="#2C2420" fill="none" stroke-width="1" stroke-linecap="round" stroke-linejoin="round"/>

  <!-- Horse 2 -->
  <path d="M260,278 L260,256 Q263,246 265,253 L267,263 L267,278" stroke="#2C2420" fill="none" stroke-width="1.5" stroke-linecap="round" stroke-linejoin="round"/>
  <path d="M260,256 Q270,248 280,253 L280,263" stroke="#2C2420" fill="none" stroke-width="1.5" stroke-linecap="round" stroke-linejoin="round"/>
  <path d="M260,256 Q255,250 253,243 Q252,238 257,236 Q261,235 263,240 Q262,246 260,251" stroke="#2C2420" fill="none" stroke-width="1.5" stroke-linecap="round" stroke-linejoin="round"/>
  <path d="M265,268 Q260,263 255,266" stroke="#2C2420" fill="none" stroke-width="1.5" stroke-linecap="round" stroke-linejoin="round"/>

  <!-- Horse 3 -->
  <path d="M310,278 L310,256 Q313,246 315,253 L317,263 L317,278" stroke="#2C2420" fill="none" stroke-width="1.5" stroke-linecap="round" stroke-linejoin="round"/>
  <path d="M310,256 Q320,248 330,253 L330,263" stroke="#2C2420" fill="none" stroke-width="1.5" stroke-linecap="round" stroke-linejoin="round"/>
  <path d="M310,256 Q305,250 303,243 Q302,238 307,236 Q311,235 313,240 Q312,246 310,251" stroke="#2C2420" fill="none" stroke-width="1.5" stroke-linecap="round" stroke-linejoin="round"/>
  <path d="M315,268 Q310,263 305,266" stroke="#2C2420" fill="none" stroke-width="1.5" stroke-linecap="round" stroke-linejoin="round"/>

  <!-- Horse 4 (rightmost) -->
  <path d="M335,278 L335,258 Q338,248 340,255 L342,265 L342,278" stroke="#2C2420" fill="none" stroke-width="1.5" stroke-linecap="round" stroke-linejoin="round"/>
  <path d="M335,258 Q345,250 355,255 L355,265" stroke="#2C2420" fill="none" stroke-width="1.5" stroke-linecap="round" stroke-linejoin="round"/>
  <path d="M335,258 Q330,252 328,245 Q327,240 332,238 Q336,237 338,242 Q337,248 335,253" stroke="#2C2420" fill="none" stroke-width="1.5" stroke-linecap="round" stroke-linejoin="round"/>
  <path d="M340,270 Q335,265 330,268" stroke="#2C2420" fill="none" stroke-width="1.5" stroke-linecap="round" stroke-linejoin="round"/>
  <path d="M355,258 Q358,252 360,258" stroke="#2C2420" fill="none" stroke-width="1" stroke-linecap="round" stroke-linejoin="round"/>

  <!-- Victoria (goddess on chariot) -->
  <!-- Chariot body -->
  <path d="M280,278 Q280,270 290,265 L355,265 Q360,270 360,278" stroke="#2C2420" fill="none" stroke-width="1.5" stroke-linecap="round" stroke-linejoin="round"/>
  <!-- Chariot wheel -->
  <circle cx="350" cy="274" r="5" stroke="#2C2420" fill="none" stroke-width="1" stroke-linecap="round" stroke-linejoin="round"/>
  <line x1="350" y1="269" x2="350" y2="279" stroke="#2C2420" fill="none" stroke-width="0.8" stroke-linecap="round" stroke-linejoin="round"/>
  <line x1="345" y1="274" x2="355" y2="274" stroke="#2C2420" fill="none" stroke-width="0.8" stroke-linecap="round" stroke-linejoin="round"/>

  <!-- Victoria figure -->
  <path d="M320,265 L320,240 Q318,235 320,230" stroke="#2C2420" fill="none" stroke-width="1.5" stroke-linecap="round" stroke-linejoin="round"/>
  <!-- Head -->
  <circle cx="320" cy="226" r="5" stroke="#2C2420" fill="none" stroke-width="1.5" stroke-linecap="round" stroke-linejoin="round"/>
  <!-- Arms holding staff -->
  <path d="M320,240 L310,235 L310,210" stroke="#2C2420" fill="none" stroke-width="1.5" stroke-linecap="round" stroke-linejoin="round"/>
  <path d="M320,240 L330,238" stroke="#2C2420" fill="none" stroke-width="1" stroke-linecap="round" stroke-linejoin="round"/>
  <!-- Staff with eagle/Iron Cross on top -->
  <line x1="310" y1="210" x2="310" y2="195" stroke="#2C2420" fill="none" stroke-width="1.5" stroke-linecap="round" stroke-linejoin="round"/>
  <!-- Eagle on staff -->
  <path d="M305,198 Q310,192 315,198" stroke="#2C2420" fill="none" stroke-width="1.5" stroke-linecap="round" stroke-linejoin="round"/>
  <path d="M303,200 Q310,195 317,200" stroke="#2C2420" fill="none" stroke-width="1" stroke-linecap="round" stroke-linejoin="round"/>
  <!-- Wreath on staff -->
  <circle cx="310" cy="205" r="4" stroke="#2C2420" fill="none" stroke-width="1" stroke-linecap="round" stroke-linejoin="round"/>
  <!-- Victoria's robe flowing -->
  <path d="M318,250 Q315,260 310,265" stroke="#2C2420" fill="none" stroke-width="1" stroke-linecap="round" stroke-linejoin="round"/>
  <path d="M322,250 Q325,260 330,265" stroke="#2C2420" fill="none" stroke-width="1" stroke-linecap="round" stroke-linejoin="round"/>
  <!-- Wings -->
  <path d="M315,232 Q305,225 300,230" stroke="#2C2420" fill="none" stroke-width="1" stroke-linecap="round" stroke-linejoin="round"/>
  <path d="M325,232 Q335,225 340,230" stroke="#2C2420" fill="none" stroke-width="1" stroke-linecap="round" stroke-linejoin="round"/>

  <!-- ========== DECORATIVE WREATHS BETWEEN COLUMNS ========== -->
  <!-- Between columns 2 and 3 -->
  <ellipse cx="222" cy="530" rx="18" ry="20" stroke="#2C2420" fill="none" stroke-width="1" stroke-linecap="round" stroke-linejoin="round"/>
  <path d="M210,520 Q222,512 234,520" stroke="#2C2420" fill="none" stroke-width="1" stroke-linecap="round" stroke-linejoin="round"/>
  <line x1="222" y1="550" x2="215" y2="558" stroke="#2C2420" fill="none" stroke-width="1" stroke-linecap="round" stroke-linejoin="round"/>
  <line x1="222" y1="550" x2="229" y2="558" stroke="#2C2420" fill="none" stroke-width="1" stroke-linecap="round" stroke-linejoin="round"/>

  <!-- Between columns 4 and 5 -->
  <ellipse cx="372" cy="530" rx="18" ry="20" stroke="#2C2420" fill="none" stroke-width="1" stroke-linecap="round" stroke-linejoin="round"/>
  <path d="M360,520 Q372,512 384,520" stroke="#2C2420" fill="none" stroke-width="1" stroke-linecap="round" stroke-linejoin="round"/>
  <line x1="372" y1="550" x2="365" y2="558" stroke="#2C2420" fill="none" stroke-width="1" stroke-linecap="round" stroke-linejoin="round"/>
  <line x1="372" y1="550" x2="379" y2="558" stroke="#2C2420" fill="none" stroke-width="1" stroke-linecap="round" stroke-linejoin="round"/>

  <!-- ========== SIDE WINGS ========== -->
  <!-- Left wing building -->
  <rect x="48" y="420" width="50" height="280" stroke="#2C2420" fill="none" stroke-width="2" stroke-linecap="round" stroke-linejoin="round"/>
  <!-- Left wing small columns -->
  <rect x="55" y="440" width="8" height="100" stroke="#2C2420" fill="none" stroke-width="1" stroke-linecap="round" stroke-linejoin="round"/>
  <line x1="57" y1="445" x2="57" y2="535" stroke="#2C2420" fill="none" stroke-width="0.5" stroke-linecap="round" stroke-linejoin="round"/>
  <line x1="59" y1="445" x2="59" y2="535" stroke="#2C2420" fill="none" stroke-width="0.5" stroke-linecap="round" stroke-linejoin="round"/>
  <line x1="61" y1="445" x2="61" y2="535" stroke="#2C2420" fill="none" stroke-width="0.5" stroke-linecap="round" stroke-linejoin="round"/>
  <rect x="80" y="440" width="8" height="100" stroke="#2C2420" fill="none" stroke-width="1" stroke-linecap="round" stroke-linejoin="round"/>
  <line x1="82" y1="445" x2="82" y2="535" stroke="#2C2420" fill="none" stroke-width="0.5" stroke-linecap="round" stroke-linejoin="round"/>
  <line x1="84" y1="445" x2="84" y2="535" stroke="#2C2420" fill="none" stroke-width="0.5" stroke-linecap="round" stroke-linejoin="round"/>
  <line x1="86" y1="445" x2="86" y2="535" stroke="#2C2420" fill="none" stroke-width="0.5" stroke-linecap="round" stroke-linejoin="round"/>
  <!-- Left wing top -->
  <rect x="48" y="410" width="50" height="10" stroke="#2C2420" fill="none" stroke-width="1.5" stroke-linecap="round" stroke-linejoin="round"/>
  <!-- Left wing windows -->
  <rect x="58" y="570" width="25" height="35" stroke="#2C2420" fill="none" stroke-width="1" stroke-linecap="round" stroke-linejoin="round"/>
  <path d="M58,570 Q70.5,560 83,570" stroke="#2C2420" fill="none" stroke-width="1" stroke-linecap="round" stroke-linejoin="round"/>
  <line x1="70.5" y1="570" x2="70.5" y2="605" stroke="#2C2420" fill="none" stroke-width="0.8" stroke-linecap="round" stroke-linejoin="round"/>
  <rect x="58" y="620" width="25" height="35" stroke="#2C2420" fill="none" stroke-width="1" stroke-linecap="round" stroke-linejoin="round"/>
  <path d="M58,620 Q70.5,610 83,620" stroke="#2C2420" fill="none" stroke-width="1" stroke-linecap="round" stroke-linejoin="round"/>
  <line x1="70.5" y1="620" x2="70.5" y2="655" stroke="#2C2420" fill="none" stroke-width="0.8" stroke-linecap="round" stroke-linejoin="round"/>

  <!-- Right wing building -->
  <rect x="498" y="420" width="50" height="280" stroke="#2C2420" fill="none" stroke-width="2" stroke-linecap="round" stroke-linejoin="round"/>
  <rect x="505" y="440" width="8" height="100" stroke="#2C2420" fill="none" stroke-width="1" stroke-linecap="round" stroke-linejoin="round"/>
  <line x1="507" y1="445" x2="507" y2="535" stroke="#2C2420" fill="none" stroke-width="0.5" stroke-linecap="round" stroke-linejoin="round"/>
  <line x1="509" y1="445" x2="509" y2="535" stroke="#2C2420" fill="none" stroke-width="0.5" stroke-linecap="round" stroke-linejoin="round"/>
  <line x1="511" y1="445" x2="511" y2="535" stroke="#2C2420" fill="none" stroke-width="0.5" stroke-linecap="round" stroke-linejoin="round"/>
  <rect x="530" y="440" width="8" height="100" stroke="#2C2420" fill="none" stroke-width="1" stroke-linecap="round" stroke-linejoin="round"/>
  <line x1="532" y1="445" x2="532" y2="535" stroke="#2C2420" fill="none" stroke-width="0.5" stroke-linecap="round" stroke-linejoin="round"/>
  <line x1="534" y1="445" x2="534" y2="535" stroke="#2C2420" fill="none" stroke-width="0.5" stroke-linecap="round" stroke-linejoin="round"/>
  <line x1="536" y1="445" x2="536" y2="535" stroke="#2C2420" fill="none" stroke-width="0.5" stroke-linecap="round" stroke-linejoin="round"/>
  <rect x="498" y="410" width="50" height="10" stroke="#2C2420" fill="none" stroke-width="1.5" stroke-linecap="round" stroke-linejoin="round"/>
  <!-- Right wing windows -->
  <rect x="508" y="570" width="25" height="35" stroke="#2C2420" fill="none" stroke-width="1" stroke-linecap="round" stroke-linejoin="round"/>
  <path d="M508,570 Q520.5,560 533,570" stroke="#2C2420" fill="none" stroke-width="1" stroke-linecap="round" stroke-linejoin="round"/>
  <line x1="520.5" y1="570" x2="520.5" y2="605" stroke="#2C2420" fill="none" stroke-width="0.8" stroke-linecap="round" stroke-linejoin="round"/>
  <rect x="508" y="620" width="25" height="35" stroke="#2C2420" fill="none" stroke-width="1" stroke-linecap="round" stroke-linejoin="round"/>
  <path d="M508,620 Q520.5,610 533,620" stroke="#2C2420" fill="none" stroke-width="1" stroke-linecap="round" stroke-linejoin="round"/>
  <line x1="520.5" y1="620" x2="520.5" y2="655" stroke="#2C2420" fill="none" stroke-width="0.8" stroke-linecap="round" stroke-linejoin="round"/>

  <!-- ========== PARISER PLATZ THROUGH THE GATE ========== -->
  <!-- Buildings visible through the central passageway -->
  <rect x="260" y="420" width="75" height="260" stroke="#2C2420" fill="none" stroke-width="0.8" stroke-linecap="round" stroke-linejoin="round" stroke-dasharray="3,2"/>
  <!-- Windows in background buildings -->
  <rect x="270" y="440" width="10" height="12" stroke="#2C2420" fill="none" stroke-width="0.5" stroke-linecap="round" stroke-linejoin="round"/>
  <rect x="285" y="440" width="10" height="12" stroke="#2C2420" fill="none" stroke-width="0.5" stroke-linecap="round" stroke-linejoin="round"/>
  <rect x="300" y="440" width="10" height="12" stroke="#2C2420" fill="none" stroke-width="0.5" stroke-linecap="round" stroke-linejoin="round"/>
  <rect x="315" y="440" width="10" height="12" stroke="#2C2420" fill="none" stroke-width="0.5" stroke-linecap="round" stroke-linejoin="round"/>
  <rect x="270" y="465" width="10" height="12" stroke="#2C2420" fill="none" stroke-width="0.5" stroke-linecap="round" stroke-linejoin="round"/>
  <rect x="285" y="465" width="10" height="12" stroke="#2C2420" fill="none" stroke-width="0.5" stroke-linecap="round" stroke-linejoin="round"/>
  <rect x="300" y="465" width="10" height="12" stroke="#2C2420" fill="none" stroke-width="0.5" stroke-linecap="round" stroke-linejoin="round"/>
  <rect x="315" y="465" width="10" height="12" stroke="#2C2420" fill="none" stroke-width="0.5" stroke-linecap="round" stroke-linejoin="round"/>

  <!-- ========== SKY DETAILS ========== -->
  <path d="M100,150 Q120,135 150,142 Q170,130 195,145 Q210,135 220,150" stroke="#2C2420" fill="none" stroke-width="1" stroke-linecap="round" stroke-linejoin="round"/>
  <path d="M380,160 Q400,145 430,152 Q450,140 475,155 Q490,145 500,160" stroke="#2C2420" fill="none" stroke-width="1" stroke-linecap="round" stroke-linejoin="round"/>

  <!-- Birds -->
  <path d="M160,180 Q165,174 170,180" stroke="#2C2420" fill="none" stroke-width="1" stroke-linecap="round" stroke-linejoin="round"/>
  <path d="M170,180 Q175,174 180,180" stroke="#2C2420" fill="none" stroke-width="1" stroke-linecap="round" stroke-linejoin="round"/>
  <path d="M430,175 Q434,170 438,175" stroke="#2C2420" fill="none" stroke-width="1" stroke-linecap="round" stroke-linejoin="round"/>
  <path d="M438,175 Q442,170 446,175" stroke="#2C2420" fill="none" stroke-width="1" stroke-linecap="round" stroke-linejoin="round"/>

  <text x="297.5" y="820" text-anchor="middle" font-family="sans-serif" font-size="8" fill="#C4B8AB">berlinbabysitter.com</text>
</svg>