<svg xmlns="http://www.w3.org/2000/svg" viewBox="0 0 595 842" width="595" height="842" style="background: white">
  <title>Brandenburg Gate Detailed Coloring Page</title>

  <!-- Ground -->
  <line x1="15" y1="790" x2="580" y2="790" stroke="#2C2420" fill="none" stroke-width="4" stroke-linecap="round"/>

  <!-- Base steps -->
  <rect x="30" y="760" width="535" height="30" rx="2" stroke="#2C2420" fill="none" stroke-width="4"/>
  <line x1="35" y1="775" x2="560" y2="775" stroke="#2C2420" fill="none" stroke-width="2"/>
  <rect x="35" y="740" width="525" height="22" rx="2" stroke="#2C2420" fill="none" stroke-width="3"/>

  <!-- 12 columns (6 front pairs) -->
  <!-- Column pair 1 -->
  <rect x="52" y="260" width="30" height="480" rx="3" stroke="#2C2420" fill="none" stroke-width="3"/>
  <rect x="52" y="700" width="30" height="25" rx="2" stroke="#2C2420" fill="none" stroke-width="2"/>
  <rect x="50" y="260" width="34" height="12" rx="2" stroke="#2C2420" fill="none" stroke-width="2"/>
  <!-- Flutes -->
  <line x1="60" y1="275" x2="60" y2="695" stroke="#2C2420" fill="none" stroke-width="1.5"/>
  <line x1="67" y1="275" x2="67" y2="695" stroke="#2C2420" fill="none" stroke-width="1.5"/>
  <line x1="74" y1="275" x2="74" y2="695" stroke="#2C2420" fill="none" stroke-width="1.5"/>

  <!-- Column pair 2 -->
  <rect x="118" y="260" width="30" height="480" rx="3" stroke="#2C2420" fill="none" stroke-width="3"/>
  <rect x="118" y="700" width="30" height="25" rx="2" stroke="#2C2420" fill="none" stroke-width="2"/>
  <rect x="116" y="260" width="34" height="12" rx="2" stroke="#2C2420" fill="none" stroke-width="2"/>
  <line x1="126" y1="275" x2="126" y2="695" stroke="#2C2420" fill="none" stroke-width="1.5"/>
  <line x1="133" y1="275" x2="133" y2="695" stroke="#2C2420" fill="none" stroke-width="1.5"/>
  <line x1="140" y1="275" x2="140" y2="695" stroke="#2C2420" fill="none" stroke-width="1.5"/>

  <!-- Column pair 3 -->
  <rect x="200" y="260" width="30" height="480" rx="3" stroke="#2C2420" fill="none" stroke-width="3"/>
  <rect x="200" y="700" width="30" height="25" rx="2" stroke="#2C2420" fill="none" stroke-width="2"/>
  <rect x="198" y="260" width="34" height="12" rx="2" stroke="#2C2420" fill="none" stroke-width="2"/>
  <line x1="208" y1="275" x2="208" y2="695" stroke="#2C2420" fill="none" stroke-width="1.5"/>
  <line x1="215" y1="275" x2="215" y2="695" stroke="#2C2420" fill="none" stroke-width="1.5"/>
  <line x1="222" y1="275" x2="222" y2="695" stroke="#2C2420" fill="none" stroke-width="1.5"/>

  <!-- Column pair 4 -->
  <rect x="365" y="260" width="30" height="480" rx="3" stroke="#2C2420" fill="none" stroke-width="3"/>
  <rect x="365" y="700" width="30" height="25" rx="2" stroke="#2C2420" fill="none" stroke-width="2"/>
  <rect x="363" y="260" width="34" height="12" rx="2" stroke="#2C2420" fill="none" stroke-width="2"/>
  <line x1="373" y1="275" x2="373" y2="695" stroke="#2C2420" fill="none" stroke-width="1.5"/>
  <line x1="380" y1="275" x2="380" y2="695" stroke="#2C2420" fill="none" stroke-width="1.5"/>
  <line x1="387" y1="275" x2="387" y2="695" stroke="#2C2420" fill="none" stroke-width="1.5"/>

  <!-- Column pair 5 -->
  <rect x="447" y="260" width="30" height="480" rx="3" stroke="#2C2420" fill="none" stroke-width="3"/>
  <rect x="447" y="700" width="30" height="25" rx="2" stroke="#2C2420" fill="none" stroke-width="2"/>
  <rect x="445" y="260" width="34" height="12" rx="2" stroke="#2C2420" fill="none" stroke-width="2"/>
  <line x1="455" y1="275" x2="455" y2="695" stroke="#2C2420" fill="none" stroke-width="1.5"/>
  <line x1="462" y1="275" x2="462" y2="695" stroke="#2C2420" fill="none" stroke-width="1.5"/>
  <line x1="469" y1="275" x2="469" y2="695" stroke="#2C2420" fill="none" stroke-width="1.5"/>

  <!-- Column pair 6 -->
  <rect x="513" y="260" width="30" height="480" rx="3" stroke="#2C2420" fill="none" stroke-width="3"/>
  <rect x="513" y="700" width="30" height="25" rx="2" stroke="#2C2420" fill="none" stroke-width="2"/>
  <rect x="511" y="260" width="34" height="12" rx="2" stroke="#2C2420" fill="none" stroke-width="2"/>
  <line x1="521" y1="275" x2="521" y2="695" stroke="#2C2420" fill="none" stroke-width="1.5"/>
  <line x1="528" y1="275" x2="528" y2="695" stroke="#2C2420" fill="none" stroke-width="1.5"/>
  <line x1="535" y1="275" x2="535" y2="695" stroke="#2C2420" fill="none" stroke-width="1.5"/>

  <!-- Entablature -->
  <rect x="38" y="228" width="520" height="35" rx="2" stroke="#2C2420" fill="none" stroke-width="4"/>
  <!-- Triglyph pattern -->
  <line x1="55" y1="232" x2="55" y2="260" stroke="#2C2420" fill="none" stroke-width="2"/>
  <line x1="60" y1="232" x2="60" y2="260" stroke="#2C2420" fill="none" stroke-width="2"/>
  <line x1="65" y1="232" x2="65" y2="260" stroke="#2C2420" fill="none" stroke-width="2"/>
  <line x1="120" y1="232" x2="120" y2="260" stroke="#2C2420" fill="none" stroke-width="2"/>
  <line x1="125" y1="232" x2="125" y2="260" stroke="#2C2420" fill="none" stroke-width="2"/>
  <line x1="130" y1="232" x2="130" y2="260" stroke="#2C2420" fill="none" stroke-width="2"/>
  <line x1="460" y1="232" x2="460" y2="260" stroke="#2C2420" fill="none" stroke-width="2"/>
  <line x1="465" y1="232" x2="465" y2="260" stroke="#2C2420" fill="none" stroke-width="2"/>
  <line x1="470" y1="232" x2="470" y2="260" stroke="#2C2420" fill="none" stroke-width="2"/>
  <line x1="525" y1="232" x2="525" y2="260" stroke="#2C2420" fill="none" stroke-width="2"/>
  <line x1="530" y1="232" x2="530" y2="260" stroke="#2C2420" fill="none" stroke-width="2"/>
  <line x1="535" y1="232" x2="535" y2="260" stroke="#2C2420" fill="none" stroke-width="2"/>

  <!-- Attic wall -->
  <rect x="42" y="148" width="512" height="82" rx="2" stroke="#2C2420" fill="none" stroke-width="4"/>
  <!-- Relief band -->
  <line x1="50" y1="180" x2="546" y2="180" stroke="#2C2420" fill="none" stroke-width="2"/>
  <line x1="50" y1="200" x2="546" y2="200" stroke="#2C2420" fill="none" stroke-width="2"/>
  <!-- Relief figures (simplified) -->
  <circle cx="100" cy="190" r="6" stroke="#2C2420" fill="none" stroke-width="2"/>
  <line x1="100" y1="196" x2="100" y2="200" stroke="#2C2420" fill="none" stroke-width="2"/>
  <circle cx="200" cy="190" r="6" stroke="#2C2420" fill="none" stroke-width="2"/>
  <line x1="200" y1="196" x2="200" y2="200" stroke="#2C2420" fill="none" stroke-width="2"/>
  <circle cx="297" cy="190" r="6" stroke="#2C2420" fill="none" stroke-width="2"/>
  <line x1="297" y1="196" x2="297" y2="200" stroke="#2C2420" fill="none" stroke-width="2"/>
  <circle cx="400" cy="190" r="6" stroke="#2C2420" fill="none" stroke-width="2"/>
  <line x1="400" y1="196" x2="400" y2="200" stroke="#2C2420" fill="none" stroke-width="2"/>
  <circle cx="500" cy="190" r="6" stroke="#2C2420" fill="none" stroke-width="2"/>
  <line x1="500" y1="196" x2="500" y2="200" stroke="#2C2420" fill="none" stroke-width="2"/>

  <!-- Pediment (triangular) -->
  <path d="M180 148 L297 90 L416 148" stroke="#2C2420" fill="none" stroke-width="4" stroke-linecap="round" stroke-linejoin="round"/>
  <!-- Pediment internal decoration -->
  <line x1="195" y1="145" x2="297" y2="95" stroke="#2C2420" fill="none" stroke-width="2"/>
  <line x1="399" y1="145" x2="297" y2="95" stroke="#2C2420" fill="none" stroke-width="2"/>
  <!-- Figure in pediment -->
  <circle cx="297" cy="120" r="8" stroke="#2C2420" fill="none" stroke-width="2"/>
  <line x1="297" y1="128" x2="297" y2="145" stroke="#2C2420" fill="none" stroke-width="2"/>
  <line x1="297" y1="135" x2="285" y2="128" stroke="#2C2420" fill="none" stroke-width="2"/>
  <line x1="297" y1="135" x2="309" y2="128" stroke="#2C2420" fill="none" stroke-width="2"/>

  <!-- Quadriga platform -->
  <rect x="220" y="65" width="155" height="25" rx="3" stroke="#2C2420" fill="none" stroke-width="3"/>

  <!-- Quadriga - 4 horses + chariot -->
  <!-- Horse 1 -->
  <path d="M238 63 C238 48, 243 35, 245 28 L248 38 C250 34, 254 36, 253 42 L250 50 C253 46, 258 44, 260 48 L258 56 Q254 62, 250 63" stroke="#2C2420" fill="none" stroke-width="2.5" stroke-linecap="round"/>
  <!-- Horse 2 -->
  <path d="M262 63 C262 48, 267 35, 269 28 L272 38 C274 34, 278 36, 277 42 L274 50 C277 46, 282 44, 284 48 L282 56 Q278 62, 274 63" stroke="#2C2420" fill="none" stroke-width="2.5" stroke-linecap="round"/>
  <!-- Horse 3 -->
  <path d="M310 63 C310 48, 315 35, 317 28 L320 38 C322 34, 326 36, 325 42 L322 50 C325 46, 330 44, 332 48 L330 56 Q326 62, 322 63" stroke="#2C2420" fill="none" stroke-width="2.5" stroke-linecap="round"/>
  <!-- Horse 4 -->
  <path d="M334 63 C334 48, 339 35, 341 28 L344 38 C346 34, 350 36, 349 42 L346 50 C349 46, 354 44, 356 48 L354 56 Q350 62, 346 63" stroke="#2C2420" fill="none" stroke-width="2.5" stroke-linecap="round"/>

  <!-- Victoria figure -->
  <circle cx="297" cy="25" r="6" stroke="#2C2420" fill="none" stroke-width="2"/>
  <line x1="297" y1="31" x2="297" y2="55" stroke="#2C2420" fill="none" stroke-width="2.5" stroke-linecap="round"/>
  <line x1="297" y1="38" x2="285" y2="32" stroke="#2C2420" fill="none" stroke-width="2" stroke-linecap="round"/>
  <line x1="297" y1="38" x2="309" y2="32" stroke="#2C2420" fill="none" stroke-width="2" stroke-linecap="round"/>
  <!-- Cross/staff -->
  <line x1="297" y1="18" x2="297" y2="5" stroke="#2C2420" fill="none" stroke-width="3" stroke-linecap="round"/>
  <line x1="291" y1="12" x2="303" y2="12" stroke="#2C2420" fill="none" stroke-width="3" stroke-linecap="round"/>

  <!-- Passageway arches -->
  <path d="M88" y1="500" stroke="#2C2420" fill="none" stroke-width="3" stroke-linecap="round"/>
  <path d="M88 500 Q108 460, 133 500" stroke="#2C2420" fill="none" stroke-width="2" stroke-linecap="round"/>
  <path d="M155 500 Q188 450, 220 500" stroke="#2C2420" fill="none" stroke-width="2" stroke-linecap="round"/>
  <path d="M240 520 Q297 430, 354 520" stroke="#2C2420" fill="none" stroke-width="3" stroke-linecap="round"/>
  <path d="M375 500 Q408 450, 440 500" stroke="#2C2420" fill="none" stroke-width="2" stroke-linecap="round"/>
  <path d="M462 500 Q488 460, 508 500" stroke="#2C2420" fill="none" stroke-width="2" stroke-linecap="round"/>

  <!-- Wreath details on walls between columns -->
  <circle cx="170" cy="400" r="18" stroke="#2C2420" fill="none" stroke-width="2"/>
  <circle cx="170" cy="400" r="12" stroke="#2C2420" fill="none" stroke-width="1.5"/>
  <circle cx="425" cy="400" r="18" stroke="#2C2420" fill="none" stroke-width="2"/>
  <circle cx="425" cy="400" r="12" stroke="#2C2420" fill="none" stroke-width="1.5"/>

  <!-- Lamp posts -->
  <line x1="25" y1="600" x2="25" y2="760" stroke="#2C2420" fill="none" stroke-width="3" stroke-linecap="round"/>
  <ellipse cx="25" cy="595" rx="10" ry="6" stroke="#2C2420" fill="none" stroke-width="2"/>
  <line x1="570" y1="600" x2="570" y2="760" stroke="#2C2420" fill="none" stroke-width="3" stroke-linecap="round"/>
  <ellipse cx="570" cy="595" rx="10" ry="6" stroke="#2C2420" fill="none" stroke-width="2"/>

  <text x="297.5" y="825" text-anchor="middle" font-family="sans-serif" font-size="8" fill="#C4B8AB">berlinbabysitter.com</text>
</svg>
