<svg xmlns="http://www.w3.org/2000/svg" viewBox="0 0 595 842" width="595" height="842" style="background: white">
  <title>East Side Gallery Coloring Page</title>

  <!-- Sky -->
  <path d="M100 50 C105 42, 115 42, 120 50" stroke="#2C2420" fill="none" stroke-width="2" stroke-linecap="round"/>
  <path d="M400 35 C405 27, 415 27, 420 35" stroke="#2C2420" fill="none" stroke-width="2" stroke-linecap="round"/>
  <path d="M250 30 C255 22, 265 22, 270 30" stroke="#2C2420" fill="none" stroke-width="2" stroke-linecap="round"/>

  <!-- The Wall - main structure -->
  <rect x="30" y="100" width="535" height="550" stroke="#2C2420" fill="none" stroke-width="5"/>

  <!-- Wall top edge/cap -->
  <rect x="25" y="90" width="545" height="15" rx="3" stroke="#2C2420" fill="none" stroke-width="4"/>
  <!-- Pipe on top -->
  <path d="M25 90 Q297 80, 570 90" stroke="#2C2420" fill="none" stroke-width="5" stroke-linecap="round"/>

  <!-- Wall panel dividers (5 panels) -->
  <line x1="137" y1="105" x2="137" y2="645" stroke="#2C2420" fill="none" stroke-width="3"/>
  <line x1="244" y1="105" x2="244" y2="645" stroke="#2C2420" fill="none" stroke-width="3"/>
  <line x1="351" y1="105" x2="351" y2="645" stroke="#2C2420" fill="none" stroke-width="3"/>
  <line x1="458" y1="105" x2="458" y2="645" stroke="#2C2420" fill="none" stroke-width="3"/>

  <!-- Panel 1: Heart outline -->
  <path d="M83 280 C83 240, 45 210, 45 260 C45 310, 83 350, 83 350 C83 350, 121 310, 121 260 C121 210, 83 240, 83 280 Z" stroke="#2C2420" fill="none" stroke-width="4" stroke-linecap="round" stroke-linejoin="round"/>
  <!-- Small hearts inside -->
  <path d="M75 290 C75 282, 68 278, 68 285 C68 292, 75 298, 75 298 C75 298, 82 292, 82 285 C82 278, 75 282, 75 290 Z" stroke="#2C2420" fill="none" stroke-width="2"/>
  <path d="M92 270 C92 262, 85 258, 85 265 C85 272, 92 278, 92 278 C92 278, 99 272, 99 265 C99 258, 92 262, 92 270 Z" stroke="#2C2420" fill="none" stroke-width="2"/>
  <!-- Stars around -->
  <path d="M55 180 L58 190 L68 190 L60 196 L63 206 L55 200 L47 206 L50 196 L42 190 L52 190 Z" stroke="#2C2420" fill="none" stroke-width="2"/>
  <path d="M110 170 L113 178 L121 178 L115 183 L117 191 L110 186 L103 191 L105 183 L99 178 L107 178 Z" stroke="#2C2420" fill="none" stroke-width="2"/>
  <!-- Dots pattern -->
  <circle cx="50" cy="400" r="5" stroke="#2C2420" fill="none" stroke-width="2"/>
  <circle cx="70" cy="420" r="5" stroke="#2C2420" fill="none" stroke-width="2"/>
  <circle cx="90" cy="400" r="5" stroke="#2C2420" fill="none" stroke-width="2"/>
  <circle cx="110" cy="420" r="5" stroke="#2C2420" fill="none" stroke-width="2"/>
  <circle cx="60" cy="450" r="5" stroke="#2C2420" fill="none" stroke-width="2"/>
  <circle cx="80" cy="450" r="5" stroke="#2C2420" fill="none" stroke-width="2"/>
  <circle cx="100" cy="450" r="5" stroke="#2C2420" fill="none" stroke-width="2"/>
  <!-- Wavy lines at bottom -->
  <path d="M40 520 C55 510, 70 530, 85 520 C100 510, 115 530, 130 520" stroke="#2C2420" fill="none" stroke-width="3" stroke-linecap="round"/>
  <path d="M40 550 C55 540, 70 560, 85 550 C100 540, 115 560, 130 550" stroke="#2C2420" fill="none" stroke-width="3" stroke-linecap="round"/>
  <path d="M40 580 C55 570, 70 590, 85 580 C100 570, 115 590, 130 580" stroke="#2C2420" fill="none" stroke-width="3" stroke-linecap="round"/>

  <!-- Panel 2: Peace symbol -->
  <circle cx="190" cy="280" r="60" stroke="#2C2420" fill="none" stroke-width="4"/>
  <line x1="190" y1="220" x2="190" y2="340" stroke="#2C2420" fill="none" stroke-width="4" stroke-linecap="round"/>
  <line x1="190" y1="280" x2="150" y2="320" stroke="#2C2420" fill="none" stroke-width="4" stroke-linecap="round"/>
  <line x1="190" y1="280" x2="230" y2="320" stroke="#2C2420" fill="none" stroke-width="4" stroke-linecap="round"/>
  <!-- Flowers below -->
  <circle cx="160" cy="420" r="12" stroke="#2C2420" fill="none" stroke-width="3"/>
  <circle cx="160" cy="420" r="4" stroke="#2C2420" fill="none" stroke-width="2"/>
  <line x1="160" y1="432" x2="160" y2="470" stroke="#2C2420" fill="none" stroke-width="2"/>
  <path d="M155 450 C145 445, 142 455, 150 458" stroke="#2C2420" fill="none" stroke-width="2"/>
  <circle cx="200" cy="430" r="10" stroke="#2C2420" fill="none" stroke-width="3"/>
  <circle cx="200" cy="430" r="3" stroke="#2C2420" fill="none" stroke-width="2"/>
  <line x1="200" y1="440" x2="200" y2="475" stroke="#2C2420" fill="none" stroke-width="2"/>
  <circle cx="225" cy="415" r="14" stroke="#2C2420" fill="none" stroke-width="3"/>
  <circle cx="225" cy="415" r="5" stroke="#2C2420" fill="none" stroke-width="2"/>
  <line x1="225" y1="429" x2="225" y2="470" stroke="#2C2420" fill="none" stroke-width="2"/>
  <!-- Zigzag pattern -->
  <path d="M148 510 L160 530 L172 510 L184 530 L196 510 L208 530 L220 510 L232 530" stroke="#2C2420" fill="none" stroke-width="3" stroke-linecap="round" stroke-linejoin="round"/>
  <!-- Spiral -->
  <path d="M190 580 C200 570, 210 580, 200 590 C190 600, 175 590, 185 575 C195 560, 218 570, 208 590 C198 610, 170 598, 180 570" stroke="#2C2420" fill="none" stroke-width="2" stroke-linecap="round"/>

  <!-- Panel 3: Sun/eye design (YOUR MURAL - empty with frame) -->
  <rect x="255" y="120" width="85" height="510" rx="5" stroke="#2C2420" fill="none" stroke-width="3" stroke-dasharray="8 4"/>
  <!-- Large eye/sun -->
  <ellipse cx="297" cy="260" rx="40" ry="30" stroke="#2C2420" fill="none" stroke-width="4"/>
  <circle cx="297" cy="260" r="15" stroke="#2C2420" fill="none" stroke-width="3"/>
  <circle cx="297" cy="260" r="5" fill="#2C2420"/>
  <!-- Rays around -->
  <line x1="297" y1="220" x2="297" y2="200" stroke="#2C2420" fill="none" stroke-width="3" stroke-linecap="round"/>
  <line x1="297" y1="300" x2="297" y2="320" stroke="#2C2420" fill="none" stroke-width="3" stroke-linecap="round"/>
  <line x1="255" y1="260" x2="265" y2="260" stroke="#2C2420" fill="none" stroke-width="3" stroke-linecap="round"/>
  <line x1="329" y1="260" x2="339" y2="260" stroke="#2C2420" fill="none" stroke-width="3" stroke-linecap="round"/>
  <line x1="270" y1="233" x2="278" y2="241" stroke="#2C2420" fill="none" stroke-width="3" stroke-linecap="round"/>
  <line x1="316" y1="279" x2="324" y2="287" stroke="#2C2420" fill="none" stroke-width="3" stroke-linecap="round"/>
  <line x1="270" y1="287" x2="278" y2="279" stroke="#2C2420" fill="none" stroke-width="3" stroke-linecap="round"/>
  <line x1="316" y1="241" x2="324" y2="233" stroke="#2C2420" fill="none" stroke-width="3" stroke-linecap="round"/>
  <!-- Geometric triangles -->
  <path d="M270 380 L297 340 L324 380 Z" stroke="#2C2420" fill="none" stroke-width="3"/>
  <path d="M275 500 L297 460 L319 500 Z" stroke="#2C2420" fill="none" stroke-width="3"/>
  <path d="M280 440 L297 410 L314 440 Z" stroke="#2C2420" fill="none" stroke-width="2"/>
  <!-- Brick pattern -->
  <path d="M260 560 L335 560 M260 575 L335 575 M260 590 L335 590 M260 605 L335 605 M260 620 L335 620" stroke="#2C2420" fill="none" stroke-width="2"/>
  <path d="M280 560 L280 575 M310 560 L310 575 M265 575 L265 590 M295 575 L295 590 M325 575 L325 590 M280 590 L280 605 M310 590 L310 605 M265 605 L265 620 M295 605 L295 620 M325 605 L325 620" stroke="#2C2420" fill="none" stroke-width="2"/>

  <!-- Panel 4: Dove/bird -->
  <path d="M405 250 C420 220, 440 210, 450 220 L440 240 C445 235, 455 238, 450 245 L438 255 C442 250, 452 252, 448 260 L420 285 C410 290, 395 285, 390 275 C385 265, 390 255, 400 250 Z" stroke="#2C2420" fill="none" stroke-width="3" stroke-linecap="round" stroke-linejoin="round"/>
  <!-- Dove wing -->
  <path d="M400 260 C380 245, 375 260, 385 275" stroke="#2C2420" fill="none" stroke-width="3" stroke-linecap="round"/>
  <!-- Dove eye -->
  <circle cx="415" cy="250" r="3" fill="#2C2420"/>
  <!-- Olive branch -->
  <path d="M425 285 C435 295, 445 300, 455 298" stroke="#2C2420" fill="none" stroke-width="2" stroke-linecap="round"/>
  <path d="M438 292 C442 285, 448 288, 445 294" stroke="#2C2420" fill="none" stroke-width="2"/>
  <path d="M448 296 C452 289, 458 292, 455 298" stroke="#2C2420" fill="none" stroke-width="2"/>
  <!-- Concentric circles -->
  <circle cx="405" cy="170" r="15" stroke="#2C2420" fill="none" stroke-width="2"/>
  <circle cx="405" cy="170" r="25" stroke="#2C2420" fill="none" stroke-width="2"/>
  <circle cx="405" cy="170" r="35" stroke="#2C2420" fill="none" stroke-width="2"/>
  <!-- Checkered pattern -->
  <rect x="365" y="400" width="20" height="20" stroke="#2C2420" fill="none" stroke-width="2"/>
  <rect x="385" y="400" width="20" height="20" stroke="#2C2420" fill="none" stroke-width="2"/>
  <rect x="405" y="400" width="20" height="20" stroke="#2C2420" fill="none" stroke-width="2"/>
  <rect x="425" y="400" width="20" height="20" stroke="#2C2420" fill="none" stroke-width="2"/>
  <rect x="365" y="420" width="20" height="20" stroke="#2C2420" fill="none" stroke-width="2"/>
  <rect x="385" y="420" width="20" height="20" stroke="#2C2420" fill="none" stroke-width="2"/>
  <rect x="405" y="420" width="20" height="20" stroke="#2C2420" fill="none" stroke-width="2"/>
  <rect x="425" y="420" width="20" height="20" stroke="#2C2420" fill="none" stroke-width="2"/>
  <!-- Cross-hatch in alternating cells -->
  <line x1="365" y1="400" x2="385" y2="420" stroke="#2C2420" fill="none" stroke-width="1.5"/>
  <line x1="385" y1="400" x2="365" y2="420" stroke="#2C2420" fill="none" stroke-width="1.5"/>
  <line x1="405" y1="400" x2="425" y2="420" stroke="#2C2420" fill="none" stroke-width="1.5"/>
  <line x1="425" y1="400" x2="405" y2="420" stroke="#2C2420" fill="none" stroke-width="1.5"/>
  <line x1="385" y1="420" x2="405" y2="440" stroke="#2C2420" fill="none" stroke-width="1.5"/>
  <line x1="405" y1="420" x2="385" y2="440" stroke="#2C2420" fill="none" stroke-width="1.5"/>
  <line x1="425" y1="420" x2="445" y2="440" stroke="#2C2420" fill="none" stroke-width="1.5"/>
  <line x1="445" y1="420" x2="425" y2="440" stroke="#2C2420" fill="none" stroke-width="1.5"/>
  <!-- Arrow -->
  <path d="M370 520 L440 520 L430 510 M440 520 L430 530" stroke="#2C2420" fill="none" stroke-width="3" stroke-linecap="round" stroke-linejoin="round"/>

  <!-- Panel 5: Abstract face -->
  <circle cx="510" cy="250" r="55" stroke="#2C2420" fill="none" stroke-width="4"/>
  <!-- Eyes (different styles) -->
  <circle cx="490" cy="235" r="12" stroke="#2C2420" fill="none" stroke-width="3"/>
  <circle cx="490" cy="235" r="4" fill="#2C2420"/>
  <!-- Star eye -->
  <path d="M530 235 L533 242 L540 242 L535 247 L537 254 L530 250 L523 254 L525 247 L520 242 L527 242 Z" stroke="#2C2420" fill="none" stroke-width="2"/>
  <!-- Big grin -->
  <path d="M480 270 Q510 300 540 270" stroke="#2C2420" fill="none" stroke-width="4" stroke-linecap="round"/>
  <!-- Teeth -->
  <line x1="495" y1="275" x2="495" y2="285" stroke="#2C2420" fill="none" stroke-width="2"/>
  <line x1="510" y1="278" x2="510" y2="288" stroke="#2C2420" fill="none" stroke-width="2"/>
  <line x1="525" y1="275" x2="525" y2="285" stroke="#2C2420" fill="none" stroke-width="2"/>
  <!-- Spiky hair -->
  <path d="M465 210 L470 180 L485 205 L495 175 L510 200 L520 170 L530 198 L540 178 L548 205" stroke="#2C2420" fill="none" stroke-width="3" stroke-linecap="round" stroke-linejoin="round"/>
  <!-- Drips -->
  <path d="M475 400 L475 440 Q475 450, 480 450 Q485 450, 485 440 L485 410" stroke="#2C2420" fill="none" stroke-width="2"/>
  <path d="M510 420 L510 470 Q510 480, 515 480 Q520 480, 520 470 L520 430" stroke="#2C2420" fill="none" stroke-width="2"/>
  <path d="M545 390 L545 450 Q545 460, 550 460 Q555 460, 555 450 L555 400" stroke="#2C2420" fill="none" stroke-width="2"/>
  <!-- Lightning bolt -->
  <path d="M490 520 L500 540 L492 540 L502 565 L495 550 L505 550 L490 520" stroke="#2C2420" fill="none" stroke-width="2" stroke-linecap="round" stroke-linejoin="round"/>

  <!-- Sidewalk / path -->
  <rect x="20" y="650" width="555" height="25" stroke="#2C2420" fill="none" stroke-width="4"/>

  <!-- People viewing the wall -->
  <!-- Person 1 (photographing) -->
  <circle cx="100" cy="698" r="10" stroke="#2C2420" fill="none" stroke-width="3"/>
  <line x1="100" y1="708" x2="100" y2="740" stroke="#2C2420" fill="none" stroke-width="3" stroke-linecap="round"/>
  <path d="M100 718 L85 710" stroke="#2C2420" fill="none" stroke-width="3" stroke-linecap="round"/>
  <rect x="78" y="704" width="12" height="8" rx="2" stroke="#2C2420" fill="none" stroke-width="2"/>
  <path d="M100 740 L92 770" stroke="#2C2420" fill="none" stroke-width="3" stroke-linecap="round"/>
  <path d="M100 740 L108 770" stroke="#2C2420" fill="none" stroke-width="3" stroke-linecap="round"/>

  <!-- Person 2 (pointing) -->
  <circle cx="350" cy="700" r="10" stroke="#2C2420" fill="none" stroke-width="3"/>
  <line x1="350" y1="710" x2="350" y2="742" stroke="#2C2420" fill="none" stroke-width="3" stroke-linecap="round"/>
  <path d="M350 720 L370 705" stroke="#2C2420" fill="none" stroke-width="3" stroke-linecap="round"/>
  <path d="M350 720 L335 725" stroke="#2C2420" fill="none" stroke-width="3" stroke-linecap="round"/>
  <path d="M350 742 L342 772" stroke="#2C2420" fill="none" stroke-width="3" stroke-linecap="round"/>
  <path d="M350 742 L358 770" stroke="#2C2420" fill="none" stroke-width="3" stroke-linecap="round"/>

  <!-- Person 3 (kid) -->
  <circle cx="500" cy="710" r="8" stroke="#2C2420" fill="none" stroke-width="3"/>
  <line x1="500" y1="718" x2="500" y2="745" stroke="#2C2420" fill="none" stroke-width="3" stroke-linecap="round"/>
  <path d="M500 745 L493 770" stroke="#2C2420" fill="none" stroke-width="3" stroke-linecap="round"/>
  <path d="M500 745 L507 768" stroke="#2C2420" fill="none" stroke-width="3" stroke-linecap="round"/>

  <!-- Ground -->
  <line x1="20" y1="780" x2="575" y2="780" stroke="#2C2420" fill="none" stroke-width="4" stroke-linecap="round"/>

  <text x="297.5" y="825" text-anchor="middle" font-family="sans-serif" font-size="8" fill="#C4B8AB">berlinbabysitter.com</text>
</svg>
