<svg xmlns="http://www.w3.org/2000/svg" viewBox="0 0 595 842" width="595" height="842" style="background: white">
  <title>East Side Gallery - Berlin Wall Coloring Page for Ages 10+</title>

  <!-- Wall panels in perspective - receding to the right -->
  <!-- Front face of the wall - Panel 1 (closest, largest) -->
  <polygon points="60,280 160,280 160,520 60,520" stroke="#2C2420" fill="none" stroke-width="2" stroke-linecap="round" stroke-linejoin="round"/>
  <!-- Panel 1: Peace symbol mural -->
  <circle cx="110" cy="400" r="45" stroke="#2C2420" fill="none" stroke-width="1.5" stroke-linecap="round" stroke-linejoin="round"/>
  <line x1="110" y1="355" x2="110" y2="445" stroke="#2C2420" fill="none" stroke-width="1.5" stroke-linecap="round" stroke-linejoin="round"/>
  <line x1="110" y1="400" x2="78" y2="432" stroke="#2C2420" fill="none" stroke-width="1.5" stroke-linecap="round" stroke-linejoin="round"/>
  <line x1="110" y1="400" x2="142" y2="432" stroke="#2C2420" fill="none" stroke-width="1.5" stroke-linecap="round" stroke-linejoin="round"/>
  <!-- Radiating lines around peace symbol -->
  <line x1="110" y1="340" x2="110" y2="330" stroke="#2C2420" fill="none" stroke-width="1.5" stroke-linecap="round" stroke-linejoin="round"/>
  <line x1="155" y1="400" x2="162" y2="400" stroke="#2C2420" fill="none" stroke-width="1.5" stroke-linecap="round" stroke-linejoin="round"/>
  <line x1="65" y1="400" x2="58" y2="400" stroke="#2C2420" fill="none" stroke-width="1.5" stroke-linecap="round" stroke-linejoin="round"/>
  <line x1="142" y1="368" x2="148" y2="362" stroke="#2C2420" fill="none" stroke-width="1.5" stroke-linecap="round" stroke-linejoin="round"/>
  <line x1="78" y1="368" x2="72" y2="362" stroke="#2C2420" fill="none" stroke-width="1.5" stroke-linecap="round" stroke-linejoin="round"/>

  <!-- Panel 2 -->
  <polygon points="160,280 265,285 265,515 160,520" stroke="#2C2420" fill="none" stroke-width="2" stroke-linecap="round" stroke-linejoin="round"/>
  <!-- Panel 2: Abstract geometric mural - triangles and circles -->
  <polygon points="185,310 240,310 212,350" stroke="#2C2420" fill="none" stroke-width="1.5" stroke-linecap="round" stroke-linejoin="round"/>
  <polygon points="195,340 250,340 222,380" stroke="#2C2420" fill="none" stroke-width="1.5" stroke-linecap="round" stroke-linejoin="round"/>
  <circle cx="212" cy="420" r="25" stroke="#2C2420" fill="none" stroke-width="1.5" stroke-linecap="round" stroke-linejoin="round"/>
  <circle cx="212" cy="420" r="15" stroke="#2C2420" fill="none" stroke-width="1.5" stroke-linecap="round" stroke-linejoin="round"/>
  <circle cx="212" cy="420" r="5" stroke="#2C2420" fill="none" stroke-width="1.5" stroke-linecap="round" stroke-linejoin="round"/>
  <rect x="185" y="455" width="55" height="40" stroke="#2C2420" fill="none" stroke-width="1.5" stroke-linecap="round" stroke-linejoin="round"/>
  <line x1="185" y1="455" x2="240" y2="495" stroke="#2C2420" fill="none" stroke-width="1.5" stroke-linecap="round" stroke-linejoin="round"/>
  <line x1="240" y1="455" x2="185" y2="495" stroke="#2C2420" fill="none" stroke-width="1.5" stroke-linecap="round" stroke-linejoin="round"/>

  <!-- Panel 3 (blank for kids to draw) -->
  <polygon points="265,285 365,290 365,510 265,515" stroke="#2C2420" fill="none" stroke-width="2" stroke-linecap="round" stroke-linejoin="round"/>
  <!-- Small "your art here" hint -->
  <rect x="290" y="385" width="50" height="30" rx="3" stroke="#2C2420" fill="none" stroke-width="1" stroke-linecap="round" stroke-linejoin="round" stroke-dasharray="4,3"/>

  <!-- Panel 4: Swirl/wave mural -->
  <polygon points="365,290 455,295 455,508 365,510" stroke="#2C2420" fill="none" stroke-width="2" stroke-linecap="round" stroke-linejoin="round"/>
  <!-- Swirl pattern -->
  <path d="M385,340 Q395,310 415,320 Q435,330 420,350 Q405,370 390,355 Q380,345 385,340" stroke="#2C2420" fill="none" stroke-width="1.5" stroke-linecap="round" stroke-linejoin="round"/>
  <path d="M400,370 Q420,355 430,375 Q440,395 420,400 Q400,405 400,385" stroke="#2C2420" fill="none" stroke-width="1.5" stroke-linecap="round" stroke-linejoin="round"/>
  <path d="M380,410 Q400,400 415,415 Q430,430 415,445 Q400,460 385,445 Q375,435 380,410" stroke="#2C2420" fill="none" stroke-width="1.5" stroke-linecap="round" stroke-linejoin="round"/>
  <path d="M420,440 Q440,425 448,445 Q455,465 440,470 Q425,475 420,460 Q415,450 420,440" stroke="#2C2420" fill="none" stroke-width="1.5" stroke-linecap="round" stroke-linejoin="round"/>

  <!-- Panel 5 (blank for kids to draw) -->
  <polygon points="455,295 530,298 530,505 455,508" stroke="#2C2420" fill="none" stroke-width="2" stroke-linecap="round" stroke-linejoin="round"/>
  <rect x="472" y="390" width="40" height="22" rx="3" stroke="#2C2420" fill="none" stroke-width="1" stroke-linecap="round" stroke-linejoin="round" stroke-dasharray="4,3"/>

  <!-- Panel 6: Abstract face/eye -->
  <polygon points="530,298 540,299 540,504 530,505" stroke="#2C2420" fill="none" stroke-width="2" stroke-linecap="round" stroke-linejoin="round"/>

  <!-- Top of wall - perspective receding to the right -->
  <polygon points="60,280 160,280 265,285 365,290 455,295 530,298 540,299 540,270 530,269 455,266 365,261 265,256 160,251 60,250" stroke="#2C2420" fill="none" stroke-width="2" stroke-linecap="round" stroke-linejoin="round"/>

  <!-- Brick pattern on top of wall -->
  <!-- Row 1 -->
  <line x1="80" y1="258" x2="80" y2="268" stroke="#2C2420" fill="none" stroke-width="1" stroke-linecap="round" stroke-linejoin="round"/>
  <line x1="100" y1="257" x2="100" y2="270" stroke="#2C2420" fill="none" stroke-width="1" stroke-linecap="round" stroke-linejoin="round"/>
  <line x1="120" y1="255" x2="120" y2="272" stroke="#2C2420" fill="none" stroke-width="1" stroke-linecap="round" stroke-linejoin="round"/>
  <line x1="140" y1="254" x2="140" y2="275" stroke="#2C2420" fill="none" stroke-width="1" stroke-linecap="round" stroke-linejoin="round"/>
  <line x1="180" y1="256" x2="180" y2="278" stroke="#2C2420" fill="none" stroke-width="1" stroke-linecap="round" stroke-linejoin="round"/>
  <line x1="210" y1="258" x2="210" y2="280" stroke="#2C2420" fill="none" stroke-width="1" stroke-linecap="round" stroke-linejoin="round"/>
  <line x1="240" y1="260" x2="240" y2="282" stroke="#2C2420" fill="none" stroke-width="1" stroke-linecap="round" stroke-linejoin="round"/>
  <line x1="290" y1="262" x2="290" y2="284" stroke="#2C2420" fill="none" stroke-width="1" stroke-linecap="round" stroke-linejoin="round"/>
  <line x1="330" y1="264" x2="330" y2="286" stroke="#2C2420" fill="none" stroke-width="1" stroke-linecap="round" stroke-linejoin="round"/>
  <line x1="380" y1="266" x2="380" y2="289" stroke="#2C2420" fill="none" stroke-width="1" stroke-linecap="round" stroke-linejoin="round"/>
  <line x1="420" y1="268" x2="420" y2="291" stroke="#2C2420" fill="none" stroke-width="1" stroke-linecap="round" stroke-linejoin="round"/>
  <line x1="470" y1="270" x2="470" y2="294" stroke="#2C2420" fill="none" stroke-width="1" stroke-linecap="round" stroke-linejoin="round"/>
  <line x1="510" y1="271" x2="510" y2="296" stroke="#2C2420" fill="none" stroke-width="1" stroke-linecap="round" stroke-linejoin="round"/>
  <!-- Horizontal brick line -->
  <path d="M60,262 L160,267 L265,271 L365,276 L455,280 L530,283 L540,284" stroke="#2C2420" fill="none" stroke-width="1" stroke-linecap="round" stroke-linejoin="round"/>

  <!-- Barbed wire on top sections -->
  <!-- Barbed wire segment 1 -->
  <path d="M60,248 Q70,240 80,248 Q90,256 100,248 Q110,240 120,248 Q130,256 140,248 Q150,240 160,248" stroke="#2C2420" fill="none" stroke-width="1.5" stroke-linecap="round" stroke-linejoin="round"/>
  <!-- Barbs -->
  <line x1="70" y1="244" x2="66" y2="238" stroke="#2C2420" fill="none" stroke-width="1" stroke-linecap="round" stroke-linejoin="round"/>
  <line x1="70" y1="244" x2="74" y2="238" stroke="#2C2420" fill="none" stroke-width="1" stroke-linecap="round" stroke-linejoin="round"/>
  <line x1="90" y1="252" x2="86" y2="258" stroke="#2C2420" fill="none" stroke-width="1" stroke-linecap="round" stroke-linejoin="round"/>
  <line x1="90" y1="252" x2="94" y2="258" stroke="#2C2420" fill="none" stroke-width="1" stroke-linecap="round" stroke-linejoin="round"/>
  <line x1="110" y1="244" x2="106" y2="238" stroke="#2C2420" fill="none" stroke-width="1" stroke-linecap="round" stroke-linejoin="round"/>
  <line x1="110" y1="244" x2="114" y2="238" stroke="#2C2420" fill="none" stroke-width="1" stroke-linecap="round" stroke-linejoin="round"/>
  <line x1="130" y1="252" x2="126" y2="258" stroke="#2C2420" fill="none" stroke-width="1" stroke-linecap="round" stroke-linejoin="round"/>
  <line x1="130" y1="252" x2="134" y2="258" stroke="#2C2420" fill="none" stroke-width="1" stroke-linecap="round" stroke-linejoin="round"/>
  <line x1="150" y1="244" x2="146" y2="238" stroke="#2C2420" fill="none" stroke-width="1" stroke-linecap="round" stroke-linejoin="round"/>
  <line x1="150" y1="244" x2="154" y2="238" stroke="#2C2420" fill="none" stroke-width="1" stroke-linecap="round" stroke-linejoin="round"/>

  <!-- Barbed wire segment 2 -->
  <path d="M365,260 Q375,252 385,260 Q395,268 405,260 Q415,252 425,260 Q435,268 445,260 Q455,252 455,264" stroke="#2C2420" fill="none" stroke-width="1.5" stroke-linecap="round" stroke-linejoin="round"/>
  <line x1="375" y1="256" x2="371" y2="250" stroke="#2C2420" fill="none" stroke-width="1" stroke-linecap="round" stroke-linejoin="round"/>
  <line x1="375" y1="256" x2="379" y2="250" stroke="#2C2420" fill="none" stroke-width="1" stroke-linecap="round" stroke-linejoin="round"/>
  <line x1="395" y1="264" x2="391" y2="270" stroke="#2C2420" fill="none" stroke-width="1" stroke-linecap="round" stroke-linejoin="round"/>
  <line x1="395" y1="264" x2="399" y2="270" stroke="#2C2420" fill="none" stroke-width="1" stroke-linecap="round" stroke-linejoin="round"/>
  <line x1="415" y1="256" x2="411" y2="250" stroke="#2C2420" fill="none" stroke-width="1" stroke-linecap="round" stroke-linejoin="round"/>
  <line x1="415" y1="256" x2="419" y2="250" stroke="#2C2420" fill="none" stroke-width="1" stroke-linecap="round" stroke-linejoin="round"/>
  <line x1="435" y1="264" x2="431" y2="270" stroke="#2C2420" fill="none" stroke-width="1" stroke-linecap="round" stroke-linejoin="round"/>
  <line x1="435" y1="264" x2="439" y2="270" stroke="#2C2420" fill="none" stroke-width="1" stroke-linecap="round" stroke-linejoin="round"/>

  <!-- Ground / grass at the base of the wall -->
  <line x1="30" y1="520" x2="550" y2="505" stroke="#2C2420" fill="none" stroke-width="1.5" stroke-linecap="round" stroke-linejoin="round"/>

  <!-- Grass tufts along the base -->
  <path d="M50,520 Q52,505 55,520" stroke="#2C2420" fill="none" stroke-width="1.5" stroke-linecap="round" stroke-linejoin="round"/>
  <path d="M55,520 Q58,508 62,520" stroke="#2C2420" fill="none" stroke-width="1.5" stroke-linecap="round" stroke-linejoin="round"/>
  <path d="M60,520 Q64,500 68,520" stroke="#2C2420" fill="none" stroke-width="1.5" stroke-linecap="round" stroke-linejoin="round"/>
  <path d="M90,520 Q93,507 96,520" stroke="#2C2420" fill="none" stroke-width="1.5" stroke-linecap="round" stroke-linejoin="round"/>
  <path d="M96,520 Q100,510 104,520" stroke="#2C2420" fill="none" stroke-width="1.5" stroke-linecap="round" stroke-linejoin="round"/>
  <path d="M150,520 Q153,505 156,520" stroke="#2C2420" fill="none" stroke-width="1.5" stroke-linecap="round" stroke-linejoin="round"/>
  <path d="M156,520 Q160,512 164,520" stroke="#2C2420" fill="none" stroke-width="1.5" stroke-linecap="round" stroke-linejoin="round"/>
  <path d="M220,518 Q223,503 226,518" stroke="#2C2420" fill="none" stroke-width="1.5" stroke-linecap="round" stroke-linejoin="round"/>
  <path d="M226,518 Q230,508 234,518" stroke="#2C2420" fill="none" stroke-width="1.5" stroke-linecap="round" stroke-linejoin="round"/>
  <path d="M234,518 Q238,510 242,518" stroke="#2C2420" fill="none" stroke-width="1.5" stroke-linecap="round" stroke-linejoin="round"/>
  <path d="M300,515 Q303,500 306,515" stroke="#2C2420" fill="none" stroke-width="1.5" stroke-linecap="round" stroke-linejoin="round"/>
  <path d="M306,515 Q310,505 314,515" stroke="#2C2420" fill="none" stroke-width="1.5" stroke-linecap="round" stroke-linejoin="round"/>
  <path d="M370,512 Q373,498 376,512" stroke="#2C2420" fill="none" stroke-width="1.5" stroke-linecap="round" stroke-linejoin="round"/>
  <path d="M376,512 Q380,502 384,512" stroke="#2C2420" fill="none" stroke-width="1.5" stroke-linecap="round" stroke-linejoin="round"/>
  <path d="M440,510 Q443,496 446,510" stroke="#2C2420" fill="none" stroke-width="1.5" stroke-linecap="round" stroke-linejoin="round"/>
  <path d="M446,510 Q450,500 454,510" stroke="#2C2420" fill="none" stroke-width="1.5" stroke-linecap="round" stroke-linejoin="round"/>
  <path d="M500,508 Q503,495 506,508" stroke="#2C2420" fill="none" stroke-width="1.5" stroke-linecap="round" stroke-linejoin="round"/>

  <!-- Wildflowers along the base -->
  <!-- Flower 1 - daisy -->
  <path d="M75,520 L75,498" stroke="#2C2420" fill="none" stroke-width="1.5" stroke-linecap="round" stroke-linejoin="round"/>
  <ellipse cx="75" cy="492" rx="4" ry="6" stroke="#2C2420" fill="none" stroke-width="1" stroke-linecap="round" stroke-linejoin="round"/>
  <ellipse cx="69" cy="495" rx="4" ry="6" transform="rotate(-40,69,495)" stroke="#2C2420" fill="none" stroke-width="1" stroke-linecap="round" stroke-linejoin="round"/>
  <ellipse cx="81" cy="495" rx="4" ry="6" transform="rotate(40,81,495)" stroke="#2C2420" fill="none" stroke-width="1" stroke-linecap="round" stroke-linejoin="round"/>
  <ellipse cx="72" cy="500" rx="4" ry="6" transform="rotate(-70,72,500)" stroke="#2C2420" fill="none" stroke-width="1" stroke-linecap="round" stroke-linejoin="round"/>
  <ellipse cx="78" cy="500" rx="4" ry="6" transform="rotate(70,78,500)" stroke="#2C2420" fill="none" stroke-width="1" stroke-linecap="round" stroke-linejoin="round"/>
  <circle cx="75" cy="497" r="3" stroke="#2C2420" fill="none" stroke-width="1" stroke-linecap="round" stroke-linejoin="round"/>
  <!-- Leaf -->
  <path d="M75,510 Q65,505 60,510" stroke="#2C2420" fill="none" stroke-width="1" stroke-linecap="round" stroke-linejoin="round"/>
  <path d="M75,510 Q65,510 60,510" stroke="#2C2420" fill="none" stroke-width="1" stroke-linecap="round" stroke-linejoin="round"/>

  <!-- Flower 2 - tulip -->
  <path d="M130,520 L130,495" stroke="#2C2420" fill="none" stroke-width="1.5" stroke-linecap="round" stroke-linejoin="round"/>
  <path d="M125,495 Q130,480 135,495" stroke="#2C2420" fill="none" stroke-width="1.5" stroke-linecap="round" stroke-linejoin="round"/>
  <path d="M122,498 Q125,485 130,495" stroke="#2C2420" fill="none" stroke-width="1" stroke-linecap="round" stroke-linejoin="round"/>
  <path d="M138,498 Q135,485 130,495" stroke="#2C2420" fill="none" stroke-width="1" stroke-linecap="round" stroke-linejoin="round"/>

  <!-- Flower 3 - small cluster -->
  <path d="M200,518 L200,500" stroke="#2C2420" fill="none" stroke-width="1" stroke-linecap="round" stroke-linejoin="round"/>
  <circle cx="200" cy="497" r="4" stroke="#2C2420" fill="none" stroke-width="1" stroke-linecap="round" stroke-linejoin="round"/>
  <path d="M195,518 L192,502" stroke="#2C2420" fill="none" stroke-width="1" stroke-linecap="round" stroke-linejoin="round"/>
  <circle cx="192" cy="499" r="3" stroke="#2C2420" fill="none" stroke-width="1" stroke-linecap="round" stroke-linejoin="round"/>
  <path d="M205,518 L208,504" stroke="#2C2420" fill="none" stroke-width="1" stroke-linecap="round" stroke-linejoin="round"/>
  <circle cx="208" cy="501" r="3" stroke="#2C2420" fill="none" stroke-width="1" stroke-linecap="round" stroke-linejoin="round"/>

  <!-- Flower 4 - poppy -->
  <path d="M350,512 L350,488" stroke="#2C2420" fill="none" stroke-width="1.5" stroke-linecap="round" stroke-linejoin="round"/>
  <path d="M343,490 Q350,478 357,490 Q350,498 343,490" stroke="#2C2420" fill="none" stroke-width="1" stroke-linecap="round" stroke-linejoin="round"/>
  <path d="M345,495 Q350,483 355,495 Q350,502 345,495" stroke="#2C2420" fill="none" stroke-width="1" stroke-linecap="round" stroke-linejoin="round"/>
  <circle cx="350" cy="490" r="3" stroke="#2C2420" fill="none" stroke-width="1" stroke-linecap="round" stroke-linejoin="round"/>

  <!-- Flower 5 -->
  <path d="M480,508 L480,486" stroke="#2C2420" fill="none" stroke-width="1" stroke-linecap="round" stroke-linejoin="round"/>
  <path d="M475,486 Q480,475 485,486" stroke="#2C2420" fill="none" stroke-width="1" stroke-linecap="round" stroke-linejoin="round"/>
  <path d="M473,490 Q480,479 487,490" stroke="#2C2420" fill="none" stroke-width="1" stroke-linecap="round" stroke-linejoin="round"/>

  <!-- Spree River -->
  <path d="M30,580 Q100,570 200,575 Q300,580 400,572 Q500,565 565,570" stroke="#2C2420" fill="none" stroke-width="1.5" stroke-linecap="round" stroke-linejoin="round"/>
  <!-- River bank - far side -->
  <path d="M30,555 Q100,548 200,552 Q300,556 400,550 Q500,544 565,548" stroke="#2C2420" fill="none" stroke-width="1.5" stroke-linecap="round" stroke-linejoin="round"/>

  <!-- Water ripple patterns -->
  <path d="M50,565 Q60,562 70,565" stroke="#2C2420" fill="none" stroke-width="1" stroke-linecap="round" stroke-linejoin="round"/>
  <path d="M90,568 Q105,564 120,568" stroke="#2C2420" fill="none" stroke-width="1" stroke-linecap="round" stroke-linejoin="round"/>
  <path d="M140,562 Q155,558 170,562" stroke="#2C2420" fill="none" stroke-width="1" stroke-linecap="round" stroke-linejoin="round"/>
  <path d="M200,570 Q215,566 230,570" stroke="#2C2420" fill="none" stroke-width="1" stroke-linecap="round" stroke-linejoin="round"/>
  <path d="M250,565 Q265,561 280,565" stroke="#2C2420" fill="none" stroke-width="1" stroke-linecap="round" stroke-linejoin="round"/>
  <path d="M310,568 Q325,564 340,568" stroke="#2C2420" fill="none" stroke-width="1" stroke-linecap="round" stroke-linejoin="round"/>
  <path d="M360,563 Q375,559 390,563" stroke="#2C2420" fill="none" stroke-width="1" stroke-linecap="round" stroke-linejoin="round"/>
  <path d="M420,560 Q435,556 450,560" stroke="#2C2420" fill="none" stroke-width="1" stroke-linecap="round" stroke-linejoin="round"/>
  <path d="M470,558 Q485,554 500,558" stroke="#2C2420" fill="none" stroke-width="1" stroke-linecap="round" stroke-linejoin="round"/>
  <path d="M75,572 Q85,569 95,572" stroke="#2C2420" fill="none" stroke-width="1" stroke-linecap="round" stroke-linejoin="round"/>
  <path d="M160,575 Q175,571 190,575" stroke="#2C2420" fill="none" stroke-width="1" stroke-linecap="round" stroke-linejoin="round"/>
  <path d="M280,572 Q295,568 310,572" stroke="#2C2420" fill="none" stroke-width="1" stroke-linecap="round" stroke-linejoin="round"/>
  <path d="M400,567 Q415,563 430,567" stroke="#2C2420" fill="none" stroke-width="1" stroke-linecap="round" stroke-linejoin="round"/>
  <path d="M510,562 Q525,558 540,562" stroke="#2C2420" fill="none" stroke-width="1" stroke-linecap="round" stroke-linejoin="round"/>

  <!-- Oberbaum Bridge in the distance -->
  <!-- Main bridge structure -->
  <path d="M380,540 L540,535" stroke="#2C2420" fill="none" stroke-width="1.5" stroke-linecap="round" stroke-linejoin="round"/>
  <path d="M380,548 L540,543" stroke="#2C2420" fill="none" stroke-width="1.5" stroke-linecap="round" stroke-linejoin="round"/>
  <!-- Bridge arches -->
  <path d="M390,548 Q400,555 410,548" stroke="#2C2420" fill="none" stroke-width="1" stroke-linecap="round" stroke-linejoin="round"/>
  <path d="M410,548 Q420,555 430,547" stroke="#2C2420" fill="none" stroke-width="1" stroke-linecap="round" stroke-linejoin="round"/>
  <path d="M430,547 Q440,554 450,547" stroke="#2C2420" fill="none" stroke-width="1" stroke-linecap="round" stroke-linejoin="round"/>
  <path d="M450,547 Q460,554 470,546" stroke="#2C2420" fill="none" stroke-width="1" stroke-linecap="round" stroke-linejoin="round"/>
  <path d="M470,546 Q480,553 490,545" stroke="#2C2420" fill="none" stroke-width="1" stroke-linecap="round" stroke-linejoin="round"/>
  <path d="M490,545 Q500,552 510,544" stroke="#2C2420" fill="none" stroke-width="1" stroke-linecap="round" stroke-linejoin="round"/>
  <path d="M510,544 Q520,551 530,543" stroke="#2C2420" fill="none" stroke-width="1" stroke-linecap="round" stroke-linejoin="round"/>
  <!-- Bridge towers -->
  <rect x="428" y="520" width="10" height="20" stroke="#2C2420" fill="none" stroke-width="1" stroke-linecap="round" stroke-linejoin="round"/>
  <polygon points="428,520 433,512 438,520" stroke="#2C2420" fill="none" stroke-width="1" stroke-linecap="round" stroke-linejoin="round"/>
  <rect x="488" y="518" width="10" height="18" stroke="#2C2420" fill="none" stroke-width="1" stroke-linecap="round" stroke-linejoin="round"/>
  <polygon points="488,518 493,510 498,518" stroke="#2C2420" fill="none" stroke-width="1" stroke-linecap="round" stroke-linejoin="round"/>
  <!-- Tower windows -->
  <path d="M431,525 Q433,523 435,525 L435,530 L431,530 Z" stroke="#2C2420" fill="none" stroke-width="0.8" stroke-linecap="round" stroke-linejoin="round"/>
  <path d="M491,523 Q493,521 495,523 L495,528 L491,528 Z" stroke="#2C2420" fill="none" stroke-width="0.8" stroke-linecap="round" stroke-linejoin="round"/>

  <!-- Far riverbank details - trees -->
  <path d="M50,552 Q55,535 60,552" stroke="#2C2420" fill="none" stroke-width="1" stroke-linecap="round" stroke-linejoin="round"/>
  <circle cx="55" cy="538" r="8" stroke="#2C2420" fill="none" stroke-width="1" stroke-linecap="round" stroke-linejoin="round"/>
  <path d="M100,550 Q105,530 110,550" stroke="#2C2420" fill="none" stroke-width="1" stroke-linecap="round" stroke-linejoin="round"/>
  <ellipse cx="105" cy="530" rx="10" ry="8" stroke="#2C2420" fill="none" stroke-width="1" stroke-linecap="round" stroke-linejoin="round"/>
  <path d="M170,550 Q175,535 180,550" stroke="#2C2420" fill="none" stroke-width="1" stroke-linecap="round" stroke-linejoin="round"/>
  <circle cx="175" cy="536" r="7" stroke="#2C2420" fill="none" stroke-width="1" stroke-linecap="round" stroke-linejoin="round"/>
  <path d="M250,548 Q255,532 260,548" stroke="#2C2420" fill="none" stroke-width="1" stroke-linecap="round" stroke-linejoin="round"/>
  <circle cx="255" cy="534" r="7" stroke="#2C2420" fill="none" stroke-width="1" stroke-linecap="round" stroke-linejoin="round"/>
  <path d="M320,546 Q325,530 330,546" stroke="#2C2420" fill="none" stroke-width="1" stroke-linecap="round" stroke-linejoin="round"/>
  <ellipse cx="325" cy="530" rx="9" ry="7" stroke="#2C2420" fill="none" stroke-width="1" stroke-linecap="round" stroke-linejoin="round"/>

  <!-- Near riverbank path/walkway -->
  <path d="M30,590 Q150,600 300,598 Q450,596 565,590" stroke="#2C2420" fill="none" stroke-width="1" stroke-linecap="round" stroke-linejoin="round"/>

  <!-- Foreground path with cobblestones -->
  <path d="M30,620 Q150,630 300,628 Q450,626 565,618" stroke="#2C2420" fill="none" stroke-width="1" stroke-linecap="round" stroke-linejoin="round"/>
  <!-- Cobblestone details -->
  <ellipse cx="80" cy="605" rx="8" ry="5" stroke="#2C2420" fill="none" stroke-width="0.8" stroke-linecap="round" stroke-linejoin="round"/>
  <ellipse cx="100" cy="610" rx="7" ry="4" stroke="#2C2420" fill="none" stroke-width="0.8" stroke-linecap="round" stroke-linejoin="round"/>
  <ellipse cx="120" cy="603" rx="6" ry="5" stroke="#2C2420" fill="none" stroke-width="0.8" stroke-linecap="round" stroke-linejoin="round"/>
  <ellipse cx="150" cy="608" rx="8" ry="4" stroke="#2C2420" fill="none" stroke-width="0.8" stroke-linecap="round" stroke-linejoin="round"/>
  <ellipse cx="175" cy="612" rx="7" ry="5" stroke="#2C2420" fill="none" stroke-width="0.8" stroke-linecap="round" stroke-linejoin="round"/>
  <ellipse cx="200" cy="605" rx="6" ry="4" stroke="#2C2420" fill="none" stroke-width="0.8" stroke-linecap="round" stroke-linejoin="round"/>
  <ellipse cx="230" cy="610" rx="8" ry="5" stroke="#2C2420" fill="none" stroke-width="0.8" stroke-linecap="round" stroke-linejoin="round"/>
  <ellipse cx="260" cy="604" rx="7" ry="4" stroke="#2C2420" fill="none" stroke-width="0.8" stroke-linecap="round" stroke-linejoin="round"/>
  <ellipse cx="290" cy="612" rx="6" ry="5" stroke="#2C2420" fill="none" stroke-width="0.8" stroke-linecap="round" stroke-linejoin="round"/>
  <ellipse cx="320" cy="606" rx="8" ry="4" stroke="#2C2420" fill="none" stroke-width="0.8" stroke-linecap="round" stroke-linejoin="round"/>
  <ellipse cx="350" cy="610" rx="7" ry="5" stroke="#2C2420" fill="none" stroke-width="0.8" stroke-linecap="round" stroke-linejoin="round"/>
  <ellipse cx="380" cy="604" rx="6" ry="4" stroke="#2C2420" fill="none" stroke-width="0.8" stroke-linecap="round" stroke-linejoin="round"/>
  <ellipse cx="410" cy="608" rx="8" ry="5" stroke="#2C2420" fill="none" stroke-width="0.8" stroke-linecap="round" stroke-linejoin="round"/>
  <ellipse cx="440" cy="602" rx="7" ry="4" stroke="#2C2420" fill="none" stroke-width="0.8" stroke-linecap="round" stroke-linejoin="round"/>
  <ellipse cx="470" cy="606" rx="6" ry="5" stroke="#2C2420" fill="none" stroke-width="0.8" stroke-linecap="round" stroke-linejoin="round"/>
  <ellipse cx="500" cy="600" rx="8" ry="4" stroke="#2C2420" fill="none" stroke-width="0.8" stroke-linecap="round" stroke-linejoin="round"/>

  <!-- Sky - clouds -->
  <path d="M80,180 Q100,160 130,170 Q150,155 180,170 Q200,160 210,180" stroke="#2C2420" fill="none" stroke-width="1" stroke-linecap="round" stroke-linejoin="round"/>
  <path d="M350,150 Q370,130 400,140 Q420,125 450,140 Q470,130 490,150" stroke="#2C2420" fill="none" stroke-width="1" stroke-linecap="round" stroke-linejoin="round"/>
  <path d="M250,200 Q270,185 290,195 Q305,182 320,200" stroke="#2C2420" fill="none" stroke-width="1" stroke-linecap="round" stroke-linejoin="round"/>

  <!-- Birds in sky -->
  <path d="M300,130 Q305,125 310,130" stroke="#2C2420" fill="none" stroke-width="1" stroke-linecap="round" stroke-linejoin="round"/>
  <path d="M310,130 Q315,125 320,130" stroke="#2C2420" fill="none" stroke-width="1" stroke-linecap="round" stroke-linejoin="round"/>
  <path d="M280,145 Q284,141 288,145" stroke="#2C2420" fill="none" stroke-width="1" stroke-linecap="round" stroke-linejoin="round"/>
  <path d="M288,145 Q292,141 296,145" stroke="#2C2420" fill="none" stroke-width="1" stroke-linecap="round" stroke-linejoin="round"/>
  <path d="M330,140 Q334,136 338,140" stroke="#2C2420" fill="none" stroke-width="1" stroke-linecap="round" stroke-linejoin="round"/>
  <path d="M338,140 Q342,136 346,140" stroke="#2C2420" fill="none" stroke-width="1" stroke-linecap="round" stroke-linejoin="round"/>

  <!-- TV Tower silhouette in far distance -->
  <line x1="220" y1="240" x2="220" y2="170" stroke="#2C2420" fill="none" stroke-width="1" stroke-linecap="round" stroke-linejoin="round"/>
  <ellipse cx="220" cy="195" rx="6" ry="10" stroke="#2C2420" fill="none" stroke-width="1" stroke-linecap="round" stroke-linejoin="round"/>

  <text x="297.5" y="820" text-anchor="middle" font-family="sans-serif" font-size="8" fill="#C4B8AB">berlinbabysitter.com</text>
</svg>