<svg xmlns="http://www.w3.org/2000/svg" viewBox="0 0 595 842" width="595" height="842" style="background: white">
  <title>Kreuzberg Street Art Coloring Page</title>

  <!-- Sky birds -->
  <path d="M60 35 C65 27, 75 27, 80 35" stroke="#2C2420" fill="none" stroke-width="2" stroke-linecap="round"/>
  <path d="M420 25 C425 17, 435 17, 440 25" stroke="#2C2420" fill="none" stroke-width="2" stroke-linecap="round"/>
  <path d="M470 40 C475 32, 485 32, 490 40" stroke="#2C2420" fill="none" stroke-width="2" stroke-linecap="round"/>

  <!-- Cloud -->
  <path d="M120 50 C110 35, 130 22, 148 26 C155 10, 185 8, 195 24 C208 14, 225 20, 222 35 C237 36, 240 52, 228 58 C230 68, 215 76, 204 68 C194 78, 172 80, 168 66 C154 76, 125 70, 120 58 Z" stroke="#2C2420" fill="none" stroke-width="3" stroke-linecap="round"/>

  <!-- ===== MAIN ALTBAU BUILDING (left-center) ===== -->
  <!-- Building outline -->
  <rect x="30" y="80" width="340" height="580" stroke="#2C2420" fill="none" stroke-width="4"/>
  <!-- Ornate cornice -->
  <rect x="25" y="72" width="350" height="12" rx="2" stroke="#2C2420" fill="none" stroke-width="3"/>
  <!-- Dentils -->
  <line x1="35" y1="78" x2="35" y2="84" stroke="#2C2420" fill="none" stroke-width="2"/>
  <line x1="50" y1="78" x2="50" y2="84" stroke="#2C2420" fill="none" stroke-width="2"/>
  <line x1="65" y1="78" x2="65" y2="84" stroke="#2C2420" fill="none" stroke-width="2"/>
  <line x1="80" y1="78" x2="80" y2="84" stroke="#2C2420" fill="none" stroke-width="2"/>
  <line x1="95" y1="78" x2="95" y2="84" stroke="#2C2420" fill="none" stroke-width="2"/>
  <line x1="110" y1="78" x2="110" y2="84" stroke="#2C2420" fill="none" stroke-width="2"/>
  <line x1="125" y1="78" x2="125" y2="84" stroke="#2C2420" fill="none" stroke-width="2"/>
  <line x1="140" y1="78" x2="140" y2="84" stroke="#2C2420" fill="none" stroke-width="2"/>
  <line x1="155" y1="78" x2="155" y2="84" stroke="#2C2420" fill="none" stroke-width="2"/>
  <line x1="170" y1="78" x2="170" y2="84" stroke="#2C2420" fill="none" stroke-width="2"/>
  <line x1="185" y1="78" x2="185" y2="84" stroke="#2C2420" fill="none" stroke-width="2"/>
  <line x1="200" y1="78" x2="200" y2="84" stroke="#2C2420" fill="none" stroke-width="2"/>
  <line x1="215" y1="78" x2="215" y2="84" stroke="#2C2420" fill="none" stroke-width="2"/>
  <line x1="230" y1="78" x2="230" y2="84" stroke="#2C2420" fill="none" stroke-width="2"/>
  <line x1="245" y1="78" x2="245" y2="84" stroke="#2C2420" fill="none" stroke-width="2"/>
  <line x1="260" y1="78" x2="260" y2="84" stroke="#2C2420" fill="none" stroke-width="2"/>
  <line x1="275" y1="78" x2="275" y2="84" stroke="#2C2420" fill="none" stroke-width="2"/>
  <line x1="290" y1="78" x2="290" y2="84" stroke="#2C2420" fill="none" stroke-width="2"/>
  <line x1="305" y1="78" x2="305" y2="84" stroke="#2C2420" fill="none" stroke-width="2"/>
  <line x1="320" y1="78" x2="320" y2="84" stroke="#2C2420" fill="none" stroke-width="2"/>
  <line x1="335" y1="78" x2="335" y2="84" stroke="#2C2420" fill="none" stroke-width="2"/>
  <line x1="350" y1="78" x2="350" y2="84" stroke="#2C2420" fill="none" stroke-width="2"/>
  <line x1="365" y1="78" x2="365" y2="84" stroke="#2C2420" fill="none" stroke-width="2"/>

  <!-- Floor dividers -->
  <line x1="30" y1="220" x2="370" y2="220" stroke="#2C2420" fill="none" stroke-width="3"/>
  <line x1="30" y1="360" x2="370" y2="360" stroke="#2C2420" fill="none" stroke-width="3"/>
  <line x1="30" y1="500" x2="370" y2="500" stroke="#2C2420" fill="none" stroke-width="3"/>

  <!-- ===== 4TH FLOOR WINDOWS ===== -->
  <rect x="55" y="100" width="55" height="80" rx="3" stroke="#2C2420" fill="none" stroke-width="3"/>
  <path d="M55 100 Q82 85, 110 100" stroke="#2C2420" fill="none" stroke-width="3" stroke-linecap="round"/>
  <line x1="82" y1="100" x2="82" y2="180" stroke="#2C2420" fill="none" stroke-width="2"/>
  <line x1="55" y1="140" x2="110" y2="140" stroke="#2C2420" fill="none" stroke-width="2"/>
  <rect x="50" y="180" width="65" height="6" rx="1" stroke="#2C2420" fill="none" stroke-width="2"/>

  <rect x="145" y="100" width="55" height="80" rx="3" stroke="#2C2420" fill="none" stroke-width="3"/>
  <path d="M145 100 Q172 85, 200 100" stroke="#2C2420" fill="none" stroke-width="3" stroke-linecap="round"/>
  <line x1="172" y1="100" x2="172" y2="180" stroke="#2C2420" fill="none" stroke-width="2"/>
  <line x1="145" y1="140" x2="200" y2="140" stroke="#2C2420" fill="none" stroke-width="2"/>
  <rect x="140" y="180" width="65" height="6" rx="1" stroke="#2C2420" fill="none" stroke-width="2"/>

  <rect x="240" y="100" width="55" height="80" rx="3" stroke="#2C2420" fill="none" stroke-width="3"/>
  <path d="M240 100 Q267 85, 295 100" stroke="#2C2420" fill="none" stroke-width="3" stroke-linecap="round"/>
  <line x1="267" y1="100" x2="267" y2="180" stroke="#2C2420" fill="none" stroke-width="2"/>
  <line x1="240" y1="140" x2="295" y2="140" stroke="#2C2420" fill="none" stroke-width="2"/>
  <rect x="235" y="180" width="65" height="6" rx="1" stroke="#2C2420" fill="none" stroke-width="2"/>

  <rect x="330" y="100" width="30" height="80" rx="3" stroke="#2C2420" fill="none" stroke-width="3"/>
  <line x1="330" y1="140" x2="360" y2="140" stroke="#2C2420" fill="none" stroke-width="2"/>

  <!-- ===== 3RD FLOOR WINDOWS WITH BALCONIES ===== -->
  <rect x="55" y="240" width="55" height="80" rx="3" stroke="#2C2420" fill="none" stroke-width="3"/>
  <line x1="82" y1="240" x2="82" y2="320" stroke="#2C2420" fill="none" stroke-width="2"/>
  <line x1="55" y1="280" x2="110" y2="280" stroke="#2C2420" fill="none" stroke-width="2"/>
  <!-- Balcony -->
  <rect x="45" y="320" width="75" height="5" rx="1" stroke="#2C2420" fill="none" stroke-width="2"/>
  <line x1="50" y1="325" x2="50" y2="345" stroke="#2C2420" fill="none" stroke-width="2"/>
  <line x1="62" y1="325" x2="62" y2="345" stroke="#2C2420" fill="none" stroke-width="2"/>
  <line x1="74" y1="325" x2="74" y2="345" stroke="#2C2420" fill="none" stroke-width="2"/>
  <line x1="86" y1="325" x2="86" y2="345" stroke="#2C2420" fill="none" stroke-width="2"/>
  <line x1="98" y1="325" x2="98" y2="345" stroke="#2C2420" fill="none" stroke-width="2"/>
  <line x1="110" y1="325" x2="110" y2="345" stroke="#2C2420" fill="none" stroke-width="2"/>
  <line x1="45" y1="335" x2="120" y2="335" stroke="#2C2420" fill="none" stroke-width="2"/>
  <rect x="45" y="345" width="75" height="5" rx="1" stroke="#2C2420" fill="none" stroke-width="2"/>
  <!-- Flower box -->
  <rect x="55" y="340" width="50" height="10" rx="2" stroke="#2C2420" fill="none" stroke-width="2"/>
  <path d="M65 340 C65 332, 70 328, 75 335" stroke="#2C2420" fill="none" stroke-width="2"/>
  <path d="M85 340 C85 330, 90 326, 93 334" stroke="#2C2420" fill="none" stroke-width="2"/>

  <rect x="145" y="240" width="55" height="80" rx="3" stroke="#2C2420" fill="none" stroke-width="3"/>
  <line x1="172" y1="240" x2="172" y2="320" stroke="#2C2420" fill="none" stroke-width="2"/>
  <line x1="145" y1="280" x2="200" y2="280" stroke="#2C2420" fill="none" stroke-width="2"/>
  <!-- Balcony -->
  <rect x="135" y="320" width="75" height="5" rx="1" stroke="#2C2420" fill="none" stroke-width="2"/>
  <line x1="140" y1="325" x2="140" y2="345" stroke="#2C2420" fill="none" stroke-width="2"/>
  <line x1="152" y1="325" x2="152" y2="345" stroke="#2C2420" fill="none" stroke-width="2"/>
  <line x1="164" y1="325" x2="164" y2="345" stroke="#2C2420" fill="none" stroke-width="2"/>
  <line x1="176" y1="325" x2="176" y2="345" stroke="#2C2420" fill="none" stroke-width="2"/>
  <line x1="188" y1="325" x2="188" y2="345" stroke="#2C2420" fill="none" stroke-width="2"/>
  <line x1="200" y1="325" x2="200" y2="345" stroke="#2C2420" fill="none" stroke-width="2"/>
  <line x1="135" y1="335" x2="210" y2="335" stroke="#2C2420" fill="none" stroke-width="2"/>
  <rect x="135" y="345" width="75" height="5" rx="1" stroke="#2C2420" fill="none" stroke-width="2"/>

  <rect x="240" y="240" width="55" height="80" rx="3" stroke="#2C2420" fill="none" stroke-width="3"/>
  <line x1="267" y1="240" x2="267" y2="320" stroke="#2C2420" fill="none" stroke-width="2"/>
  <line x1="240" y1="280" x2="295" y2="280" stroke="#2C2420" fill="none" stroke-width="2"/>
  <rect x="235" y="320" width="65" height="6" rx="1" stroke="#2C2420" fill="none" stroke-width="2"/>

  <rect x="330" y="240" width="30" height="80" rx="3" stroke="#2C2420" fill="none" stroke-width="3"/>
  <line x1="330" y1="280" x2="360" y2="280" stroke="#2C2420" fill="none" stroke-width="2"/>

  <!-- ===== 2ND FLOOR WINDOWS ===== -->
  <rect x="55" y="380" width="55" height="80" rx="3" stroke="#2C2420" fill="none" stroke-width="3"/>
  <line x1="82" y1="380" x2="82" y2="460" stroke="#2C2420" fill="none" stroke-width="2"/>
  <line x1="55" y1="420" x2="110" y2="420" stroke="#2C2420" fill="none" stroke-width="2"/>
  <rect x="50" y="460" width="65" height="6" rx="1" stroke="#2C2420" fill="none" stroke-width="2"/>

  <rect x="145" y="380" width="55" height="80" rx="3" stroke="#2C2420" fill="none" stroke-width="3"/>
  <line x1="172" y1="380" x2="172" y2="460" stroke="#2C2420" fill="none" stroke-width="2"/>
  <line x1="145" y1="420" x2="200" y2="420" stroke="#2C2420" fill="none" stroke-width="2"/>
  <rect x="140" y="460" width="65" height="6" rx="1" stroke="#2C2420" fill="none" stroke-width="2"/>

  <rect x="240" y="380" width="55" height="80" rx="3" stroke="#2C2420" fill="none" stroke-width="3"/>
  <line x1="267" y1="380" x2="267" y2="460" stroke="#2C2420" fill="none" stroke-width="2"/>
  <line x1="240" y1="420" x2="295" y2="420" stroke="#2C2420" fill="none" stroke-width="2"/>
  <rect x="235" y="460" width="65" height="6" rx="1" stroke="#2C2420" fill="none" stroke-width="2"/>

  <rect x="330" y="380" width="30" height="80" rx="3" stroke="#2C2420" fill="none" stroke-width="3"/>
  <line x1="330" y1="420" x2="360" y2="420" stroke="#2C2420" fill="none" stroke-width="2"/>

  <!-- ===== GROUND FLOOR ===== -->
  <!-- Main entrance door -->
  <rect x="160" y="530" width="70" height="130" rx="5" stroke="#2C2420" fill="none" stroke-width="4"/>
  <path d="M160 530 Q195 505, 230 530" stroke="#2C2420" fill="none" stroke-width="3" stroke-linecap="round"/>
  <!-- Door panels -->
  <rect x="167" y="555" width="24" height="48" rx="2" stroke="#2C2420" fill="none" stroke-width="2"/>
  <rect x="199" y="555" width="24" height="48" rx="2" stroke="#2C2420" fill="none" stroke-width="2"/>
  <rect x="167" y="610" width="24" height="45" rx="2" stroke="#2C2420" fill="none" stroke-width="2"/>
  <rect x="199" y="610" width="24" height="45" rx="2" stroke="#2C2420" fill="none" stroke-width="2"/>
  <!-- Door handles -->
  <circle cx="189" cy="600" r="4" stroke="#2C2420" fill="none" stroke-width="2"/>
  <circle cx="201" cy="600" r="4" stroke="#2C2420" fill="none" stroke-width="2"/>

  <!-- Ground floor windows -->
  <rect x="50" y="525" width="55" height="65" rx="3" stroke="#2C2420" fill="none" stroke-width="3"/>
  <line x1="77" y1="525" x2="77" y2="590" stroke="#2C2420" fill="none" stroke-width="2"/>
  <rect x="280" y="525" width="55" height="65" rx="3" stroke="#2C2420" fill="none" stroke-width="3"/>
  <line x1="307" y1="525" x2="307" y2="590" stroke="#2C2420" fill="none" stroke-width="2"/>

  <!-- ===== LARGE EYE MURAL (between windows, 3rd-4th floor) ===== -->
  <!-- Outer eye shape -->
  <path d="M140 150 Q200 95, 260 150 Q200 205, 140 150 Z" stroke="#2C2420" fill="none" stroke-width="3" stroke-linecap="round"/>
  <!-- Iris -->
  <circle cx="200" cy="150" r="28" stroke="#2C2420" fill="none" stroke-width="3"/>
  <!-- Pupil -->
  <circle cx="200" cy="150" r="14" stroke="#2C2420" fill="none" stroke-width="3"/>
  <!-- Pupil highlight -->
  <circle cx="192" cy="142" r="5" stroke="#2C2420" fill="none" stroke-width="2"/>
  <!-- Eyelashes top -->
  <line x1="155" y1="132" x2="148" y2="115" stroke="#2C2420" fill="none" stroke-width="2" stroke-linecap="round"/>
  <line x1="170" y1="120" x2="165" y2="102" stroke="#2C2420" fill="none" stroke-width="2" stroke-linecap="round"/>
  <line x1="185" y1="112" x2="183" y2="94" stroke="#2C2420" fill="none" stroke-width="2" stroke-linecap="round"/>
  <line x1="200" y1="108" x2="200" y2="90" stroke="#2C2420" fill="none" stroke-width="2" stroke-linecap="round"/>
  <line x1="215" y1="112" x2="217" y2="94" stroke="#2C2420" fill="none" stroke-width="2" stroke-linecap="round"/>
  <line x1="230" y1="120" x2="235" y2="102" stroke="#2C2420" fill="none" stroke-width="2" stroke-linecap="round"/>
  <line x1="245" y1="132" x2="252" y2="115" stroke="#2C2420" fill="none" stroke-width="2" stroke-linecap="round"/>
  <!-- Tear drop -->
  <path d="M200 178 Q204 195, 200 212 Q196 195, 200 178" stroke="#2C2420" fill="none" stroke-width="2" stroke-linecap="round"/>

  <!-- ===== BUBBLE LETTERS "XBERG" graffiti (wall area) ===== -->
  <!-- X -->
  <path d="M50 200 Q55 192, 62 200 L78 218 L94 200 Q100 192, 106 200" stroke="#2C2420" fill="none" stroke-width="3" stroke-linecap="round"/>
  <path d="M50 218 Q55 226, 62 218 L78 200 L94 218 Q100 226, 106 218" stroke="#2C2420" fill="none" stroke-width="3" stroke-linecap="round"/>
  <!-- B -->
  <path d="M115 192 L115 226 Q135 232, 148 220 Q156 210, 148 200 Q142 195, 148 188 Q152 180, 135 182 L115 192" stroke="#2C2420" fill="none" stroke-width="3" stroke-linecap="round"/>
  <path d="M115 205 Q135 202, 142 208" stroke="#2C2420" fill="none" stroke-width="2" stroke-linecap="round"/>
  <!-- E -->
  <path d="M168 192 Q160 192, 160 200 L160 218 Q160 226, 168 226 L180 226 Q170 212, 180 209 Q170 206, 178 192 L168 192" stroke="#2C2420" fill="none" stroke-width="3" stroke-linecap="round"/>
  <!-- R -->
  <path d="M192 226 L192 192 Q210 188, 215 198 Q218 206, 208 210 L220 226" stroke="#2C2420" fill="none" stroke-width="3" stroke-linecap="round"/>
  <!-- G -->
  <path d="M238 198 Q230 188, 222 198 L222 218 Q222 228, 235 226 L238 226 L238 212 L230 212" stroke="#2C2420" fill="none" stroke-width="3" stroke-linecap="round"/>

  <!-- ===== GEOMETRIC TRIANGLE PATTERN (wall section) ===== -->
  <polygon points="310,370 330,340 350,370" stroke="#2C2420" fill="none" stroke-width="2"/>
  <polygon points="330,340 350,370 370,340" stroke="#2C2420" fill="none" stroke-width="2"/>
  <polygon points="310,370 330,400 350,370" stroke="#2C2420" fill="none" stroke-width="2"/>
  <polygon points="350,370 370,400 370,340" stroke="#2C2420" fill="none" stroke-width="2"/>

  <!-- Concentric diamonds (wall decoration) -->
  <polygon points="200,480 220,460 240,480 220,500" stroke="#2C2420" fill="none" stroke-width="2"/>
  <polygon points="207,480 220,467 233,480 220,493" stroke="#2C2420" fill="none" stroke-width="2"/>
  <polygon points="214,480 220,474 226,480 220,486" stroke="#2C2420" fill="none" stroke-width="2"/>

  <!-- ===== STICKERS ON WALL ===== -->
  <!-- Heart -->
  <path d="M48 475 Q48 462, 58 462 Q68 462, 68 475 L58 492 L48 475" stroke="#2C2420" fill="none" stroke-width="2" stroke-linecap="round"/>
  <!-- Star -->
  <polygon points="310,478 314,466 318,478 330,478 322,486 325,498 314,490 303,498 306,486 298,478" stroke="#2C2420" fill="none" stroke-width="2"/>
  <!-- Crown -->
  <path d="M340,485 L340,500 L368,500 L368,485 L360,494 L354,485 L348,494 Z" stroke="#2C2420" fill="none" stroke-width="2" stroke-linecap="round"/>
  <!-- Skull -->
  <path d="M280,440 Q274,428 280,418 Q286,408 298,408 Q310,408 316,418 Q322,428 316,440 L312,444 L306,440 L298,444 L290,440 L284,444 Z" stroke="#2C2420" fill="none" stroke-width="2" stroke-linecap="round"/>
  <circle cx="290" cy="426" r="4" stroke="#2C2420" fill="none" stroke-width="2"/>
  <circle cx="306" cy="426" r="4" stroke="#2C2420" fill="none" stroke-width="2"/>
  <path d="M294 434 Q298 438 302 434" stroke="#2C2420" fill="none" stroke-width="2" stroke-linecap="round"/>

  <!-- ===== DRIPPING PAINT EFFECTS ===== -->
  <path d="M42 220 C42 240, 44 258, 42 270 Q42 278, 44 270 C44 258, 46 240, 44 220" stroke="#2C2420" fill="none" stroke-width="2" stroke-linecap="round"/>
  <path d="M130 220 C130 235, 132 248, 130 256 Q130 262, 132 256 C132 248, 134 235, 132 220" stroke="#2C2420" fill="none" stroke-width="2" stroke-linecap="round"/>
  <path d="M305 360 C305 380, 307 395, 305 408 Q305 414, 307 408 C307 395, 309 380, 307 360" stroke="#2C2420" fill="none" stroke-width="2" stroke-linecap="round"/>

  <!-- ===== WHEAT-PASTE POSTER (torn edges) ===== -->
  <path d="M40 390 L40 440 Q48 443, 55 440 Q62 437, 70 440 Q77 443, 85 440 L90 440 L90 387 Q83 390, 76 387 Q69 384, 62 387 Q55 390, 48 387 Z" stroke="#2C2420" fill="none" stroke-width="2" stroke-linecap="round"/>
  <!-- Face on poster -->
  <circle cx="65" cy="410" r="12" stroke="#2C2420" fill="none" stroke-width="2"/>
  <line x1="59" y1="407" x2="63" y2="407" stroke="#2C2420" fill="none" stroke-width="2" stroke-linecap="round"/>
  <line x1="67" y1="407" x2="71" y2="407" stroke="#2C2420" fill="none" stroke-width="2" stroke-linecap="round"/>
  <path d="M59 417 Q65 422, 71 417" stroke="#2C2420" fill="none" stroke-width="2" stroke-linecap="round"/>

  <!-- ===== SWALLOW / BIRD DESIGN ===== -->
  <path d="M120 355 Q135 340, 150 348 Q158 352, 155 362 Q150 370, 142 366 L128 382 Q120 375, 125 365 Q116 362, 112 355 Q108 348, 120 355" stroke="#2C2420" fill="none" stroke-width="2" stroke-linecap="round"/>
  <path d="M128 382 Q124 390, 118 395" stroke="#2C2420" fill="none" stroke-width="2" stroke-linecap="round"/>
  <path d="M128 382 Q132 390, 138 395" stroke="#2C2420" fill="none" stroke-width="2" stroke-linecap="round"/>

  <!-- ===== VINES GROWING UP BUILDING ===== -->
  <!-- Left vine -->
  <path d="M35 660 Q30 620, 38 580 Q44 540, 36 500 Q32 470, 38 440" stroke="#2C2420" fill="none" stroke-width="2" stroke-linecap="round"/>
  <path d="M38 600 Q28 594, 26 588" stroke="#2C2420" fill="none" stroke-width="2" stroke-linecap="round"/>
  <path d="M38 600 Q30 600, 27 594" stroke="#2C2420" fill="none" stroke-width="2" stroke-linecap="round"/>
  <path d="M36 550 Q46 544, 48 538" stroke="#2C2420" fill="none" stroke-width="2" stroke-linecap="round"/>
  <path d="M36 550 Q44 550, 47 544" stroke="#2C2420" fill="none" stroke-width="2" stroke-linecap="round"/>
  <path d="M38 510 Q28 504, 26 498" stroke="#2C2420" fill="none" stroke-width="2" stroke-linecap="round"/>
  <path d="M38 510 Q30 510, 27 504" stroke="#2C2420" fill="none" stroke-width="2" stroke-linecap="round"/>
  <path d="M36 470 Q46 465, 48 458" stroke="#2C2420" fill="none" stroke-width="2" stroke-linecap="round"/>
  <path d="M36 470 Q44 470, 47 465" stroke="#2C2420" fill="none" stroke-width="2" stroke-linecap="round"/>
  <!-- Right vine -->
  <path d="M365 660 Q370 625, 364 590 Q360 555, 366 520 Q370 495, 364 465" stroke="#2C2420" fill="none" stroke-width="2" stroke-linecap="round"/>
  <path d="M364 610 Q374 604, 376 598" stroke="#2C2420" fill="none" stroke-width="2" stroke-linecap="round"/>
  <path d="M364 610 Q372 610, 375 604" stroke="#2C2420" fill="none" stroke-width="2" stroke-linecap="round"/>
  <path d="M366 560 Q356 554, 354 548" stroke="#2C2420" fill="none" stroke-width="2" stroke-linecap="round"/>
  <path d="M366 560 Q358 560, 355 554" stroke="#2C2420" fill="none" stroke-width="2" stroke-linecap="round"/>

  <!-- ===== HANGING LAUNDRY LINE ===== -->
  <path d="M115 195 Q200 185, 290 195" stroke="#2C2420" fill="none" stroke-width="2" stroke-linecap="round"/>
  <!-- T-shirt -->
  <path d="M145 195 L141 188 L135 192 L135 212 L155 212 L155 192 L149 188 Z" stroke="#2C2420" fill="none" stroke-width="2" stroke-linecap="round"/>
  <!-- Sock -->
  <path d="M195 195 L192 214 Q192 220, 199 220 L202 214 L198 195" stroke="#2C2420" fill="none" stroke-width="2" stroke-linecap="round"/>
  <!-- Pants -->
  <path d="M240 194 L237 220 L244 220 L247 206 L250 220 L257 220 L254 194 Z" stroke="#2C2420" fill="none" stroke-width="2" stroke-linecap="round"/>

  <!-- ===== ADJACENT BUILDING (right side) ===== -->
  <rect x="400" y="120" width="175" height="540" stroke="#2C2420" fill="none" stroke-width="4"/>
  <rect x="395" y="112" width="185" height="12" rx="2" stroke="#2C2420" fill="none" stroke-width="3"/>
  <!-- Windows -->
  <rect x="420" y="145" width="40" height="55" rx="3" stroke="#2C2420" fill="none" stroke-width="3"/>
  <line x1="440" y1="145" x2="440" y2="200" stroke="#2C2420" fill="none" stroke-width="2"/>
  <rect x="490" y="145" width="40" height="55" rx="3" stroke="#2C2420" fill="none" stroke-width="3"/>
  <line x1="510" y1="145" x2="510" y2="200" stroke="#2C2420" fill="none" stroke-width="2"/>
  <rect x="545" y="145" width="25" height="55" rx="3" stroke="#2C2420" fill="none" stroke-width="3"/>

  <rect x="420" y="235" width="40" height="55" rx="3" stroke="#2C2420" fill="none" stroke-width="3"/>
  <line x1="440" y1="235" x2="440" y2="290" stroke="#2C2420" fill="none" stroke-width="2"/>
  <rect x="490" y="235" width="40" height="55" rx="3" stroke="#2C2420" fill="none" stroke-width="3"/>
  <line x1="510" y1="235" x2="510" y2="290" stroke="#2C2420" fill="none" stroke-width="2"/>
  <rect x="545" y="235" width="25" height="55" rx="3" stroke="#2C2420" fill="none" stroke-width="3"/>

  <rect x="420" y="325" width="40" height="55" rx="3" stroke="#2C2420" fill="none" stroke-width="3"/>
  <line x1="440" y1="325" x2="440" y2="380" stroke="#2C2420" fill="none" stroke-width="2"/>
  <rect x="490" y="325" width="40" height="55" rx="3" stroke="#2C2420" fill="none" stroke-width="3"/>
  <line x1="510" y1="325" x2="510" y2="380" stroke="#2C2420" fill="none" stroke-width="2"/>
  <rect x="545" y="325" width="25" height="55" rx="3" stroke="#2C2420" fill="none" stroke-width="3"/>

  <rect x="420" y="415" width="40" height="55" rx="3" stroke="#2C2420" fill="none" stroke-width="3"/>
  <line x1="440" y1="415" x2="440" y2="470" stroke="#2C2420" fill="none" stroke-width="2"/>
  <rect x="490" y="415" width="40" height="55" rx="3" stroke="#2C2420" fill="none" stroke-width="3"/>
  <line x1="510" y1="415" x2="510" y2="470" stroke="#2C2420" fill="none" stroke-width="2"/>
  <rect x="545" y="415" width="25" height="55" rx="3" stroke="#2C2420" fill="none" stroke-width="3"/>

  <!-- Adjacent building shop front -->
  <rect x="405" y="510" width="165" height="150" stroke="#2C2420" fill="none" stroke-width="4"/>
  <!-- Shop awning -->
  <path d="M400 510 L575 510" stroke="#2C2420" fill="none" stroke-width="4" stroke-linecap="round"/>
  <path d="M402 510 Q430 525, 458 510 Q486 525, 514 510 Q542 525, 572 510" stroke="#2C2420" fill="none" stroke-width="3" stroke-linecap="round"/>
  <!-- Shop sign -->
  <rect x="430" y="522" width="115" height="28" rx="4" stroke="#2C2420" fill="none" stroke-width="3"/>
  <!-- Shop display -->
  <rect x="412" y="565" width="65" height="85" rx="3" stroke="#2C2420" fill="none" stroke-width="3"/>
  <!-- Items in display -->
  <rect x="420" y="615" width="14" height="28" rx="2" stroke="#2C2420" fill="none" stroke-width="2"/>
  <rect x="440" y="610" width="14" height="33" rx="2" stroke="#2C2420" fill="none" stroke-width="2"/>
  <rect x="458" y="618" width="14" height="25" rx="2" stroke="#2C2420" fill="none" stroke-width="2"/>
  <!-- Shop door -->
  <rect x="495" y="570" width="60" height="90" rx="4" stroke="#2C2420" fill="none" stroke-width="4"/>
  <circle cx="506" cy="620" r="4" stroke="#2C2420" fill="#2C2420"/>

  <!-- ===== STREET LAMP ===== -->
  <line x1="388" y1="360" x2="388" y2="660" stroke="#2C2420" fill="none" stroke-width="4" stroke-linecap="round"/>
  <path d="M380 360 Q388 342, 396 360" stroke="#2C2420" fill="none" stroke-width="4" stroke-linecap="round"/>
  <ellipse cx="388" cy="368" rx="14" ry="7" stroke="#2C2420" fill="none" stroke-width="3"/>

  <!-- ===== CAFE WITH TABLES (ground floor left) ===== -->
  <!-- Cafe awning -->
  <path d="M35 610 L150 610 L155 628 L30 628 Z" stroke="#2C2420" fill="none" stroke-width="3" stroke-linecap="round"/>
  <path d="M30 628 Q50 640, 70 628 Q90 640, 110 628 Q130 640, 155 628" stroke="#2C2420" fill="none" stroke-width="2" stroke-linecap="round"/>

  <!-- Outdoor table 1 -->
  <ellipse cx="70" cy="665" rx="22" ry="5" stroke="#2C2420" fill="none" stroke-width="2"/>
  <line x1="70" y1="670" x2="70" y2="690" stroke="#2C2420" fill="none" stroke-width="2" stroke-linecap="round"/>
  <line x1="58" y1="690" x2="82" y2="690" stroke="#2C2420" fill="none" stroke-width="2"/>
  <!-- Coffee cup -->
  <rect x="64" y="658" width="10" height="8" rx="1" stroke="#2C2420" fill="none" stroke-width="2"/>
  <path d="M74 660 Q78 663, 74 666" stroke="#2C2420" fill="none" stroke-width="1.5" stroke-linecap="round"/>
  <!-- Chairs -->
  <path d="M44 672 L44 690 M38 672 L50 672 M38 680 L50 680" stroke="#2C2420" fill="none" stroke-width="2" stroke-linecap="round"/>
  <path d="M96 672 L96 690 M90 672 L102 672 M90 680 L102 680" stroke="#2C2420" fill="none" stroke-width="2" stroke-linecap="round"/>

  <!-- Outdoor table 2 -->
  <ellipse cx="140" cy="672" rx="20" ry="4" stroke="#2C2420" fill="none" stroke-width="2"/>
  <line x1="140" y1="676" x2="140" y2="694" stroke="#2C2420" fill="none" stroke-width="2" stroke-linecap="round"/>
  <line x1="128" y1="694" x2="152" y2="694" stroke="#2C2420" fill="none" stroke-width="2"/>

  <!-- ===== BICYCLE (parked on street) ===== -->
  <!-- Rear wheel -->
  <circle cx="260" cy="682" r="24" stroke="#2C2420" fill="none" stroke-width="3"/>
  <circle cx="260" cy="682" r="3" stroke="#2C2420" fill="none" stroke-width="2"/>
  <!-- Spokes -->
  <line x1="260" y1="660" x2="260" y2="704" stroke="#2C2420" fill="none" stroke-width="1"/>
  <line x1="238" y1="682" x2="282" y2="682" stroke="#2C2420" fill="none" stroke-width="1"/>
  <line x1="243" y1="665" x2="277" y2="699" stroke="#2C2420" fill="none" stroke-width="1"/>
  <line x1="277" y1="665" x2="243" y2="699" stroke="#2C2420" fill="none" stroke-width="1"/>
  <!-- Front wheel -->
  <circle cx="340" cy="682" r="24" stroke="#2C2420" fill="none" stroke-width="3"/>
  <circle cx="340" cy="682" r="3" stroke="#2C2420" fill="none" stroke-width="2"/>
  <line x1="340" y1="660" x2="340" y2="704" stroke="#2C2420" fill="none" stroke-width="1"/>
  <line x1="318" y1="682" x2="362" y2="682" stroke="#2C2420" fill="none" stroke-width="1"/>
  <line x1="323" y1="665" x2="357" y2="699" stroke="#2C2420" fill="none" stroke-width="1"/>
  <line x1="357" y1="665" x2="323" y2="699" stroke="#2C2420" fill="none" stroke-width="1"/>
  <!-- Frame -->
  <line x1="260" y1="682" x2="298" y2="650" stroke="#2C2420" fill="none" stroke-width="3" stroke-linecap="round"/>
  <line x1="298" y1="650" x2="340" y2="682" stroke="#2C2420" fill="none" stroke-width="3" stroke-linecap="round"/>
  <line x1="260" y1="682" x2="300" y2="682" stroke="#2C2420" fill="none" stroke-width="3" stroke-linecap="round"/>
  <!-- Seat -->
  <line x1="298" y1="650" x2="292" y2="638" stroke="#2C2420" fill="none" stroke-width="3" stroke-linecap="round"/>
  <path d="M282 638 L302 636" stroke="#2C2420" fill="none" stroke-width="3" stroke-linecap="round"/>
  <!-- Handlebars -->
  <line x1="340" y1="682" x2="346" y2="648" stroke="#2C2420" fill="none" stroke-width="3" stroke-linecap="round"/>
  <path d="M338 648 L354 645" stroke="#2C2420" fill="none" stroke-width="3" stroke-linecap="round"/>
  <!-- Pedal area -->
  <circle cx="300" cy="682" r="5" stroke="#2C2420" fill="none" stroke-width="2"/>
  <!-- Basket -->
  <path d="M344 650 L358 650 L360 668 L342 668 Z" stroke="#2C2420" fill="none" stroke-width="2" stroke-linecap="round"/>
  <line x1="346" y1="650" x2="346" y2="668" stroke="#2C2420" fill="none" stroke-width="1"/>
  <line x1="350" y1="650" x2="350" y2="668" stroke="#2C2420" fill="none" stroke-width="1"/>
  <line x1="354" y1="650" x2="354" y2="668" stroke="#2C2420" fill="none" stroke-width="1"/>
  <line x1="342" y1="656" x2="360" y2="656" stroke="#2C2420" fill="none" stroke-width="1"/>
  <line x1="342" y1="662" x2="360" y2="662" stroke="#2C2420" fill="none" stroke-width="1"/>

  <!-- ===== PERSON WALKING ===== -->
  <circle cx="200" cy="640" r="10" stroke="#2C2420" fill="none" stroke-width="3"/>
  <line x1="200" y1="650" x2="200" y2="680" stroke="#2C2420" fill="none" stroke-width="3" stroke-linecap="round"/>
  <path d="M200 662 L186 652" stroke="#2C2420" fill="none" stroke-width="3" stroke-linecap="round"/>
  <path d="M200 662 L214 655" stroke="#2C2420" fill="none" stroke-width="3" stroke-linecap="round"/>
  <path d="M200 680 L190 700" stroke="#2C2420" fill="none" stroke-width="3" stroke-linecap="round"/>
  <path d="M200 680 L210 698" stroke="#2C2420" fill="none" stroke-width="3" stroke-linecap="round"/>

  <!-- ===== SIDEWALK ===== -->
  <line x1="15" y1="710" x2="580" y2="710" stroke="#2C2420" fill="none" stroke-width="4" stroke-linecap="round"/>
  <line x1="15" y1="730" x2="580" y2="730" stroke="#2C2420" fill="none" stroke-width="3" stroke-linecap="round"/>
  <!-- Tiles -->
  <line x1="60" y1="710" x2="60" y2="730" stroke="#2C2420" fill="none" stroke-width="2"/>
  <line x1="120" y1="710" x2="120" y2="730" stroke="#2C2420" fill="none" stroke-width="2"/>
  <line x1="180" y1="710" x2="180" y2="730" stroke="#2C2420" fill="none" stroke-width="2"/>
  <line x1="240" y1="710" x2="240" y2="730" stroke="#2C2420" fill="none" stroke-width="2"/>
  <line x1="300" y1="710" x2="300" y2="730" stroke="#2C2420" fill="none" stroke-width="2"/>
  <line x1="360" y1="710" x2="360" y2="730" stroke="#2C2420" fill="none" stroke-width="2"/>
  <line x1="420" y1="710" x2="420" y2="730" stroke="#2C2420" fill="none" stroke-width="2"/>
  <line x1="480" y1="710" x2="480" y2="730" stroke="#2C2420" fill="none" stroke-width="2"/>
  <line x1="540" y1="710" x2="540" y2="730" stroke="#2C2420" fill="none" stroke-width="2"/>

  <!-- ===== ROAD ===== -->
  <rect x="15" y="730" width="565" height="60" stroke="#2C2420" fill="none" stroke-width="4"/>
  <!-- Center dashes -->
  <line x1="50" y1="760" x2="110" y2="760" stroke="#2C2420" fill="none" stroke-width="3" stroke-linecap="round"/>
  <line x1="150" y1="760" x2="210" y2="760" stroke="#2C2420" fill="none" stroke-width="3" stroke-linecap="round"/>
  <line x1="250" y1="760" x2="310" y2="760" stroke="#2C2420" fill="none" stroke-width="3" stroke-linecap="round"/>
  <line x1="350" y1="760" x2="410" y2="760" stroke="#2C2420" fill="none" stroke-width="3" stroke-linecap="round"/>
  <line x1="450" y1="760" x2="510" y2="760" stroke="#2C2420" fill="none" stroke-width="3" stroke-linecap="round"/>

  <!-- ===== SATELLITE DISH ON ROOF ===== -->
  <path d="M330 68 Q342 52, 355 68" stroke="#2C2420" fill="none" stroke-width="2" stroke-linecap="round"/>
  <line x1="342" y1="58" x2="342" y2="72" stroke="#2C2420" fill="none" stroke-width="2" stroke-linecap="round"/>

  <!-- ===== ANTENNA ON ADJACENT BUILDING ===== -->
  <line x1="540" y1="112" x2="540" y2="75" stroke="#2C2420" fill="none" stroke-width="2" stroke-linecap="round"/>
  <line x1="532" y1="88" x2="548" y2="88" stroke="#2C2420" fill="none" stroke-width="2" stroke-linecap="round"/>
  <line x1="534" y1="98" x2="546" y2="98" stroke="#2C2420" fill="none" stroke-width="2" stroke-linecap="round"/>

  <text x="297.5" y="810" text-anchor="middle" font-family="sans-serif" font-size="8" fill="#C4B8AB">berlinbabysitter.com</text>
</svg>