<svg xmlns="http://www.w3.org/2000/svg" viewBox="0 0 595 842" width="595" height="842" style="background: white">
  <title>Mauerpark Sunday Scene Coloring Page</title>

  <!-- Sky -->
  <!-- Sun -->
  <circle cx="480" cy="70" r="35" stroke="#2C2420" fill="none" stroke-width="4"/>
  <line x1="480" y1="25" x2="480" y2="15" stroke="#2C2420" fill="none" stroke-width="3" stroke-linecap="round"/>
  <line x1="480" y1="115" x2="480" y2="125" stroke="#2C2420" fill="none" stroke-width="3" stroke-linecap="round"/>
  <line x1="435" y1="70" x2="425" y2="70" stroke="#2C2420" fill="none" stroke-width="3" stroke-linecap="round"/>
  <line x1="525" y1="70" x2="535" y2="70" stroke="#2C2420" fill="none" stroke-width="3" stroke-linecap="round"/>

  <!-- Cloud -->
  <path d="M80 60 C70 45, 90 30, 108 35 C115 18, 145 15, 155 32 C168 22, 185 28, 183 42 C198 43, 200 58, 188 65 C190 76, 175 84, 164 76 C154 86, 132 88, 128 74 C114 84, 85 78, 80 68 Z" stroke="#2C2420" fill="none" stroke-width="4" stroke-linecap="round"/>

  <!-- Background hill -->
  <path d="M20 350 Q297 180, 575 350" stroke="#2C2420" fill="none" stroke-width="4" stroke-linecap="round"/>

  <!-- Trees on hill -->
  <circle cx="100" cy="285" r="28" stroke="#2C2420" fill="none" stroke-width="4"/>
  <line x1="100" y1="313" x2="100" y2="340" stroke="#2C2420" fill="none" stroke-width="4" stroke-linecap="round"/>
  <circle cx="200" cy="240" r="25" stroke="#2C2420" fill="none" stroke-width="4"/>
  <line x1="200" y1="265" x2="200" y2="295" stroke="#2C2420" fill="none" stroke-width="4" stroke-linecap="round"/>
  <circle cx="480" cy="280" r="30" stroke="#2C2420" fill="none" stroke-width="4"/>
  <line x1="480" y1="310" x2="480" y2="342" stroke="#2C2420" fill="none" stroke-width="4" stroke-linecap="round"/>

  <!-- Karaoke amphitheater (stone semi-circle) -->
  <path d="M100 550 Q297 420, 495 550" stroke="#2C2420" fill="none" stroke-width="5" stroke-linecap="round"/>
  <!-- Amphitheater steps -->
  <path d="M140 530 Q297 440, 455 530" stroke="#2C2420" fill="none" stroke-width="4" stroke-linecap="round"/>
  <path d="M175 510 Q297 450, 420 510" stroke="#2C2420" fill="none" stroke-width="4" stroke-linecap="round"/>
  <path d="M210 490 Q297 460, 385 490" stroke="#2C2420" fill="none" stroke-width="4" stroke-linecap="round"/>

  <!-- Karaoke singer on stage -->
  <!-- Stage area -->
  <rect x="250" y="540" width="95" height="5" rx="2" stroke="#2C2420" fill="none" stroke-width="3"/>
  <!-- Singer -->
  <circle cx="297" cy="505" r="14" stroke="#2C2420" fill="none" stroke-width="4"/>
  <!-- Singer body -->
  <line x1="297" y1="519" x2="297" y2="540" stroke="#2C2420" fill="none" stroke-width="4" stroke-linecap="round"/>
  <!-- Arms raised -->
  <path d="M297 525 L275 510" stroke="#2C2420" fill="none" stroke-width="4" stroke-linecap="round"/>
  <path d="M297 525 L320 508" stroke="#2C2420" fill="none" stroke-width="4" stroke-linecap="round"/>
  <!-- Microphone -->
  <line x1="275" y1="510" x2="268" y2="498" stroke="#2C2420" fill="none" stroke-width="3" stroke-linecap="round"/>
  <circle cx="265" cy="494" r="5" stroke="#2C2420" fill="none" stroke-width="3"/>

  <!-- Audience stick figures on steps -->
  <circle cx="160" cy="520" r="6" stroke="#2C2420" fill="none" stroke-width="2"/>
  <line x1="160" y1="526" x2="160" y2="540" stroke="#2C2420" fill="none" stroke-width="2" stroke-linecap="round"/>
  <circle cx="190" cy="505" r="6" stroke="#2C2420" fill="none" stroke-width="2"/>
  <line x1="190" y1="511" x2="190" y2="525" stroke="#2C2420" fill="none" stroke-width="2" stroke-linecap="round"/>
  <circle cx="400" cy="520" r="6" stroke="#2C2420" fill="none" stroke-width="2"/>
  <line x1="400" y1="526" x2="400" y2="540" stroke="#2C2420" fill="none" stroke-width="2" stroke-linecap="round"/>
  <circle cx="430" cy="508" r="6" stroke="#2C2420" fill="none" stroke-width="2"/>
  <line x1="430" y1="514" x2="430" y2="528" stroke="#2C2420" fill="none" stroke-width="2" stroke-linecap="round"/>
  <!-- Person waving arms -->
  <circle cx="350" cy="488" r="6" stroke="#2C2420" fill="none" stroke-width="2"/>
  <line x1="350" y1="494" x2="350" y2="508" stroke="#2C2420" fill="none" stroke-width="2" stroke-linecap="round"/>
  <path d="M350 498 L340 488" stroke="#2C2420" fill="none" stroke-width="2" stroke-linecap="round"/>
  <path d="M350 498 L360 488" stroke="#2C2420" fill="none" stroke-width="2" stroke-linecap="round"/>

  <!-- Music notes -->
  <path d="M315 480 L315 460 Q322 455, 322 465" stroke="#2C2420" fill="none" stroke-width="3" stroke-linecap="round"/>
  <circle cx="315" cy="480" r="5" stroke="#2C2420" fill="#2C2420"/>
  <path d="M340 470 L340 450 Q347 445, 347 455" stroke="#2C2420" fill="none" stroke-width="3" stroke-linecap="round"/>
  <circle cx="340" cy="470" r="5" stroke="#2C2420" fill="#2C2420"/>

  <!-- Flea market stall (left) -->
  <rect x="30" y="600" width="130" height="80" stroke="#2C2420" fill="none" stroke-width="4"/>
  <!-- Awning -->
  <path d="M25 600 L165 600 L170 575 L20 575 Z" stroke="#2C2420" fill="none" stroke-width="4" stroke-linecap="round" stroke-linejoin="round"/>
  <!-- Scalloped edge -->
  <path d="M25 600 Q47 610, 70 600 Q92 610, 115 600 Q137 610, 160 600" stroke="#2C2420" fill="none" stroke-width="3" stroke-linecap="round"/>
  <!-- Items on table -->
  <circle cx="55" cy="635" r="10" stroke="#2C2420" fill="none" stroke-width="3"/>
  <rect x="80" y="625" width="18" height="22" rx="3" stroke="#2C2420" fill="none" stroke-width="3"/>
  <circle cx="120" cy="638" r="8" stroke="#2C2420" fill="none" stroke-width="3"/>
  <!-- Seller -->
  <circle cx="95" cy="590" r="8" stroke="#2C2420" fill="none" stroke-width="3"/>

  <!-- Flea market stall (right) -->
  <rect x="435" y="600" width="130" height="80" stroke="#2C2420" fill="none" stroke-width="4"/>
  <path d="M430 600 L570 600 L575 575 L425 575 Z" stroke="#2C2420" fill="none" stroke-width="4" stroke-linecap="round" stroke-linejoin="round"/>
  <path d="M430 600 Q452 610, 475 600 Q497 610, 520 600 Q542 610, 565 600" stroke="#2C2420" fill="none" stroke-width="3" stroke-linecap="round"/>
  <rect x="450" y="625" width="15" height="20" rx="2" stroke="#2C2420" fill="none" stroke-width="3"/>
  <rect x="475" y="622" width="20" height="25" rx="2" stroke="#2C2420" fill="none" stroke-width="3"/>
  <circle cx="520" cy="635" r="12" stroke="#2C2420" fill="none" stroke-width="3"/>
  <circle cx="500" cy="590" r="8" stroke="#2C2420" fill="none" stroke-width="3"/>

  <!-- Kids playing on hill (right) -->
  <!-- Kid 1 climbing -->
  <circle cx="520" cy="330" r="9" stroke="#2C2420" fill="none" stroke-width="3"/>
  <line x1="520" y1="339" x2="520" y2="362" stroke="#2C2420" fill="none" stroke-width="3" stroke-linecap="round"/>
  <path d="M520 348 L508 340" stroke="#2C2420" fill="none" stroke-width="3" stroke-linecap="round"/>
  <path d="M520 348 L532 340" stroke="#2C2420" fill="none" stroke-width="3" stroke-linecap="round"/>
  <path d="M520 362 L510 380" stroke="#2C2420" fill="none" stroke-width="3" stroke-linecap="round"/>
  <path d="M520 362 L530 378" stroke="#2C2420" fill="none" stroke-width="3" stroke-linecap="round"/>

  <!-- Kid 2 -->
  <circle cx="550" cy="350" r="8" stroke="#2C2420" fill="none" stroke-width="3"/>
  <line x1="550" y1="358" x2="550" y2="378" stroke="#2C2420" fill="none" stroke-width="3" stroke-linecap="round"/>
  <path d="M550 378 L542 395" stroke="#2C2420" fill="none" stroke-width="3" stroke-linecap="round"/>
  <path d="M550 378 L558 393" stroke="#2C2420" fill="none" stroke-width="3" stroke-linecap="round"/>

  <!-- Dog with walker -->
  <path d="M290 680 C295 670, 310 670, 315 680 L315 695 L290 695 Z" stroke="#2C2420" fill="none" stroke-width="3" stroke-linecap="round"/>
  <circle cx="310" cy="672" r="8" stroke="#2C2420" fill="none" stroke-width="3"/>
  <line x1="315" y1="695" x2="320" y2="710" stroke="#2C2420" fill="none" stroke-width="2" stroke-linecap="round"/>
  <line x1="295" y1="695" x2="290" y2="710" stroke="#2C2420" fill="none" stroke-width="2" stroke-linecap="round"/>
  <path d="M290 685 L275 688" stroke="#2C2420" fill="none" stroke-width="2" stroke-linecap="round"/>
  <!-- Leash -->
  <path d="M318 672 C340 660, 350 665, 350 668" stroke="#2C2420" fill="none" stroke-width="2" stroke-linecap="round"/>
  <!-- Walker -->
  <circle cx="360" cy="660" r="8" stroke="#2C2420" fill="none" stroke-width="3"/>
  <line x1="360" y1="668" x2="360" y2="695" stroke="#2C2420" fill="none" stroke-width="3" stroke-linecap="round"/>
  <path d="M360 676 L350 668" stroke="#2C2420" fill="none" stroke-width="3" stroke-linecap="round"/>

  <!-- Ground/path -->
  <path d="M20 720 C150 710, 300 725, 575 715" stroke="#2C2420" fill="none" stroke-width="4" stroke-linecap="round"/>

  <!-- Grass tufts -->
  <path d="M40 718 L45 705 L50 718" stroke="#2C2420" fill="none" stroke-width="2" stroke-linecap="round"/>
  <path d="M200 722 L205 710 L210 722" stroke="#2C2420" fill="none" stroke-width="2" stroke-linecap="round"/>
  <path d="M400 718 L405 706 L410 718" stroke="#2C2420" fill="none" stroke-width="2" stroke-linecap="round"/>
  <path d="M540 714 L545 702 L550 714" stroke="#2C2420" fill="none" stroke-width="2" stroke-linecap="round"/>

  <!-- Birds -->
  <path d="M250 120 C255 112, 265 112, 270 120" stroke="#2C2420" fill="none" stroke-width="2" stroke-linecap="round"/>
  <path d="M280 130 C285 122, 295 122, 300 130" stroke="#2C2420" fill="none" stroke-width="2" stroke-linecap="round"/>

  <text x="297.5" y="800" text-anchor="middle" font-family="sans-serif" font-size="8" fill="#C4B8AB">berlinbabysitter.com</text>
</svg>
