<svg xmlns="http://www.w3.org/2000/svg" viewBox="0 0 595 842" width="595" height="842" style="background: white">
  <title>Mauerpark Sunday Scene Coloring Page - Karaoke amphitheater, flea market, and park activities</title>

  <!-- === SUN === -->
  <circle cx="490" cy="70" r="35" stroke="#2C2420" fill="none" stroke-width="2.5" stroke-linecap="round" stroke-linejoin="round"/>
  <line x1="490" y1="25" x2="490" y2="12" stroke="#2C2420" stroke-width="2" stroke-linecap="round"/>
  <line x1="490" y1="115" x2="490" y2="128" stroke="#2C2420" stroke-width="2" stroke-linecap="round"/>
  <line x1="445" y1="70" x2="432" y2="70" stroke="#2C2420" stroke-width="2" stroke-linecap="round"/>
  <line x1="535" y1="70" x2="548" y2="70" stroke="#2C2420" stroke-width="2" stroke-linecap="round"/>
  <line x1="458" y1="38" x2="449" y2="29" stroke="#2C2420" stroke-width="2" stroke-linecap="round"/>
  <line x1="522" y1="102" x2="531" y2="111" stroke="#2C2420" stroke-width="2" stroke-linecap="round"/>
  <line x1="458" y1="102" x2="449" y2="111" stroke="#2C2420" stroke-width="2" stroke-linecap="round"/>
  <line x1="522" y1="38" x2="531" y2="29" stroke="#2C2420" stroke-width="2" stroke-linecap="round"/>

  <!-- === CLOUDS === -->
  <ellipse cx="120" cy="60" rx="40" ry="18" stroke="#2C2420" fill="none" stroke-width="2" stroke-linecap="round" stroke-linejoin="round"/>
  <ellipse cx="100" cy="50" rx="28" ry="14" stroke="#2C2420" fill="none" stroke-width="2" stroke-linecap="round" stroke-linejoin="round"/>
  <ellipse cx="145" cy="52" rx="30" ry="15" stroke="#2C2420" fill="none" stroke-width="2" stroke-linecap="round" stroke-linejoin="round"/>

  <ellipse cx="310" cy="45" rx="35" ry="15" stroke="#2C2420" fill="none" stroke-width="2" stroke-linecap="round" stroke-linejoin="round"/>
  <ellipse cx="290" cy="36" rx="22" ry="12" stroke="#2C2420" fill="none" stroke-width="2" stroke-linecap="round" stroke-linejoin="round"/>
  <ellipse cx="330" cy="38" rx="25" ry="12" stroke="#2C2420" fill="none" stroke-width="2" stroke-linecap="round" stroke-linejoin="round"/>

  <!-- === BIRDS === -->
  <path d="M200 90 Q204 83 208 90 Q212 83 216 90" stroke="#2C2420" fill="none" stroke-width="2" stroke-linecap="round" stroke-linejoin="round"/>
  <path d="M380 65 Q383 60 386 65 Q389 60 392 65" stroke="#2C2420" fill="none" stroke-width="2" stroke-linecap="round" stroke-linejoin="round"/>

  <!-- === TREES (background left and right) === -->
  <!-- Tree left -->
  <rect x="40" y="230" width="14" height="120" stroke="#2C2420" fill="none" stroke-width="2.5" stroke-linecap="round" stroke-linejoin="round"/>
  <circle cx="47" cy="200" r="40" stroke="#2C2420" fill="none" stroke-width="2.5" stroke-linecap="round" stroke-linejoin="round"/>
  <circle cx="25" cy="220" r="28" stroke="#2C2420" fill="none" stroke-width="2" stroke-linecap="round" stroke-linejoin="round"/>
  <circle cx="72" cy="215" r="30" stroke="#2C2420" fill="none" stroke-width="2" stroke-linecap="round" stroke-linejoin="round"/>
  <circle cx="47" cy="175" r="25" stroke="#2C2420" fill="none" stroke-width="2" stroke-linecap="round" stroke-linejoin="round"/>

  <!-- Tree right -->
  <rect x="520" y="200" width="12" height="130" stroke="#2C2420" fill="none" stroke-width="2.5" stroke-linecap="round" stroke-linejoin="round"/>
  <circle cx="526" cy="170" r="38" stroke="#2C2420" fill="none" stroke-width="2.5" stroke-linecap="round" stroke-linejoin="round"/>
  <circle cx="505" cy="190" r="25" stroke="#2C2420" fill="none" stroke-width="2" stroke-linecap="round" stroke-linejoin="round"/>
  <circle cx="548" cy="185" r="28" stroke="#2C2420" fill="none" stroke-width="2" stroke-linecap="round" stroke-linejoin="round"/>
  <circle cx="530" cy="148" r="22" stroke="#2C2420" fill="none" stroke-width="2" stroke-linecap="round" stroke-linejoin="round"/>

  <!-- Small tree mid-right -->
  <rect x="445" y="250" width="10" height="80" stroke="#2C2420" fill="none" stroke-width="2" stroke-linecap="round" stroke-linejoin="round"/>
  <circle cx="450" cy="230" r="28" stroke="#2C2420" fill="none" stroke-width="2" stroke-linecap="round" stroke-linejoin="round"/>
  <circle cx="435" cy="242" r="18" stroke="#2C2420" fill="none" stroke-width="2" stroke-linecap="round" stroke-linejoin="round"/>
  <circle cx="465" cy="240" r="20" stroke="#2C2420" fill="none" stroke-width="2" stroke-linecap="round" stroke-linejoin="round"/>

  <!-- === AMPHITHEATER / WALL (the old Berlin Wall remnant) === -->
  <!-- Curved stone wall tiers -->
  <path d="M100 400 Q200 350 350 400" stroke="#2C2420" fill="none" stroke-width="2.5" stroke-linecap="round" stroke-linejoin="round"/>
  <path d="M110 420 Q210 370 340 420" stroke="#2C2420" fill="none" stroke-width="2.5" stroke-linecap="round" stroke-linejoin="round"/>
  <path d="M120 440 Q220 395 330 440" stroke="#2C2420" fill="none" stroke-width="2.5" stroke-linecap="round" stroke-linejoin="round"/>
  <path d="M130 460 Q225 418 320 460" stroke="#2C2420" fill="none" stroke-width="2.5" stroke-linecap="round" stroke-linejoin="round"/>
  <!-- Back wall -->
  <path d="M90 380 L90 400 Q200 340 360 400 L360 380 Q200 320 90 380" stroke="#2C2420" fill="none" stroke-width="2.5" stroke-linecap="round" stroke-linejoin="round"/>
  <!-- Stone texture on wall -->
  <line x1="120" y1="385" x2="150" y2="378" stroke="#2C2420" stroke-width="1.5" stroke-linecap="round"/>
  <line x1="170" y1="372" x2="200" y2="365" stroke="#2C2420" stroke-width="1.5" stroke-linecap="round"/>
  <line x1="220" y1="362" x2="250" y2="360" stroke="#2C2420" stroke-width="1.5" stroke-linecap="round"/>
  <line x1="270" y1="362" x2="300" y2="367" stroke="#2C2420" stroke-width="1.5" stroke-linecap="round"/>
  <line x1="310" y1="372" x2="340" y2="380" stroke="#2C2420" stroke-width="1.5" stroke-linecap="round"/>

  <!-- People sitting on tiers (audience) -->
  <!-- Person 1 on tier 1 -->
  <circle cx="150" cy="390" r="7" stroke="#2C2420" fill="none" stroke-width="2" stroke-linecap="round" stroke-linejoin="round"/>
  <path d="M143 397 L143 415 M157 397 L157 415" stroke="#2C2420" fill="none" stroke-width="2" stroke-linecap="round"/>
  <line x1="143" y1="405" x2="157" y2="405" stroke="#2C2420" stroke-width="2" stroke-linecap="round"/>

  <!-- Person 2 on tier 1 -->
  <circle cx="270" cy="386" r="7" stroke="#2C2420" fill="none" stroke-width="2" stroke-linecap="round" stroke-linejoin="round"/>
  <path d="M263 393 L263 412 M277 393 L277 412" stroke="#2C2420" fill="none" stroke-width="2" stroke-linecap="round"/>
  <line x1="263" y1="400" x2="277" y2="400" stroke="#2C2420" stroke-width="2" stroke-linecap="round"/>

  <!-- Person 3 on tier 2 -->
  <circle cx="190" cy="410" r="7" stroke="#2C2420" fill="none" stroke-width="2" stroke-linecap="round" stroke-linejoin="round"/>
  <path d="M183 417 L183 435 M197 417 L197 435" stroke="#2C2420" fill="none" stroke-width="2" stroke-linecap="round"/>
  <line x1="183" y1="425" x2="197" y2="425" stroke="#2C2420" stroke-width="2" stroke-linecap="round"/>

  <!-- Person 4 on tier 2 (with raised arm, cheering) -->
  <circle cx="240" cy="408" r="7" stroke="#2C2420" fill="none" stroke-width="2" stroke-linecap="round" stroke-linejoin="round"/>
  <path d="M233 415 L233 435 M247 415 L247 435" stroke="#2C2420" fill="none" stroke-width="2" stroke-linecap="round"/>
  <line x1="233" y1="425" x2="247" y2="425" stroke="#2C2420" stroke-width="2" stroke-linecap="round"/>
  <path d="M247 420 L255 400" stroke="#2C2420" fill="none" stroke-width="2" stroke-linecap="round"/>

  <!-- Person 5 on tier 3 -->
  <circle cx="210" cy="430" r="7" stroke="#2C2420" fill="none" stroke-width="2" stroke-linecap="round" stroke-linejoin="round"/>
  <path d="M203 437 L203 455 M217 437 L217 455" stroke="#2C2420" fill="none" stroke-width="2" stroke-linecap="round"/>
  <line x1="203" y1="445" x2="217" y2="445" stroke="#2C2420" stroke-width="2" stroke-linecap="round"/>

  <!-- === KARAOKE SINGER at the bottom of amphitheater === -->
  <!-- Stage area -->
  <ellipse cx="225" cy="490" rx="40" ry="10" stroke="#2C2420" fill="none" stroke-width="2" stroke-linecap="round" stroke-linejoin="round"/>
  <!-- Singer body -->
  <circle cx="225" cy="468" r="10" stroke="#2C2420" fill="none" stroke-width="2.5" stroke-linecap="round" stroke-linejoin="round"/>
  <!-- Singer face features -->
  <circle cx="222" cy="466" r="1.5" stroke="#2C2420" fill="none" stroke-width="1.5"/>
  <circle cx="228" cy="466" r="1.5" stroke="#2C2420" fill="none" stroke-width="1.5"/>
  <path d="M222 472 Q225 475 228 472" stroke="#2C2420" fill="none" stroke-width="1.5" stroke-linecap="round"/>
  <!-- Hair -->
  <path d="M215 463 Q215 455 225 455 Q235 455 235 463" stroke="#2C2420" fill="none" stroke-width="2" stroke-linecap="round" stroke-linejoin="round"/>
  <!-- Body -->
  <path d="M218 478 L218 500 M232 478 L232 500" stroke="#2C2420" fill="none" stroke-width="2.5" stroke-linecap="round"/>
  <line x1="218" y1="488" x2="232" y2="488" stroke="#2C2420" stroke-width="2" stroke-linecap="round"/>
  <!-- Arms -->
  <path d="M218 485 L205 478" stroke="#2C2420" fill="none" stroke-width="2" stroke-linecap="round"/>
  <path d="M232 485 L245 478" stroke="#2C2420" fill="none" stroke-width="2" stroke-linecap="round"/>
  <!-- Legs -->
  <path d="M218 500 L215 515 M232 500 L235 515" stroke="#2C2420" fill="none" stroke-width="2" stroke-linecap="round"/>
  <!-- Microphone in hand -->
  <line x1="245" y1="478" x2="248" y2="472" stroke="#2C2420" stroke-width="2" stroke-linecap="round"/>
  <circle cx="248" cy="469" r="4" stroke="#2C2420" fill="none" stroke-width="2" stroke-linecap="round" stroke-linejoin="round"/>
  <!-- Microphone stand -->
  <line x1="248" y1="473" x2="248" y2="515" stroke="#2C2420" stroke-width="2" stroke-linecap="round"/>
  <!-- Stand base -->
  <path d="M240 515 L248 515 L256 515" stroke="#2C2420" fill="none" stroke-width="2" stroke-linecap="round"/>
  <!-- Music notes floating -->
  <path d="M260 455 L260 442 L268 445 L268 458" stroke="#2C2420" fill="none" stroke-width="1.5" stroke-linecap="round" stroke-linejoin="round"/>
  <circle cx="260" cy="458" r="3" stroke="#2C2420" fill="none" stroke-width="1.5" stroke-linecap="round" stroke-linejoin="round"/>
  <circle cx="268" cy="461" r="3" stroke="#2C2420" fill="none" stroke-width="1.5" stroke-linecap="round" stroke-linejoin="round"/>

  <path d="M200 452 L200 440" stroke="#2C2420" fill="none" stroke-width="1.5" stroke-linecap="round"/>
  <circle cx="197" cy="454" r="3" stroke="#2C2420" fill="none" stroke-width="1.5" stroke-linecap="round" stroke-linejoin="round"/>
  <path d="M200 440 Q204 438 204 442" stroke="#2C2420" fill="none" stroke-width="1.5" stroke-linecap="round"/>

  <!-- === GRASSY HILL (right side) === -->
  <path d="M370 520 Q420 380 560 450 L560 520 Z" stroke="#2C2420" fill="none" stroke-width="2.5" stroke-linecap="round" stroke-linejoin="round"/>

  <!-- Kids playing on hill -->
  <!-- Kid 1 - running up hill -->
  <circle cx="430" cy="430" r="8" stroke="#2C2420" fill="none" stroke-width="2" stroke-linecap="round" stroke-linejoin="round"/>
  <path d="M424 438 L420 458 M436 438 L440 458" stroke="#2C2420" fill="none" stroke-width="2" stroke-linecap="round"/>
  <line x1="424" y1="446" x2="436" y2="446" stroke="#2C2420" stroke-width="2" stroke-linecap="round"/>
  <!-- Arms stretched out -->
  <path d="M424 444 L414 438" stroke="#2C2420" fill="none" stroke-width="2" stroke-linecap="round"/>
  <path d="M436 444 L446 438" stroke="#2C2420" fill="none" stroke-width="2" stroke-linecap="round"/>
  <!-- Legs running -->
  <path d="M420 458 L414 468 M440 458 L446 468" stroke="#2C2420" fill="none" stroke-width="2" stroke-linecap="round"/>

  <!-- Kid 2 - on top of hill, arms up -->
  <circle cx="500" cy="408" r="8" stroke="#2C2420" fill="none" stroke-width="2" stroke-linecap="round" stroke-linejoin="round"/>
  <path d="M494 416 L494 438 M506 416 L506 438" stroke="#2C2420" fill="none" stroke-width="2" stroke-linecap="round"/>
  <line x1="494" y1="426" x2="506" y2="426" stroke="#2C2420" stroke-width="2" stroke-linecap="round"/>
  <path d="M494 422 L484 410" stroke="#2C2420" fill="none" stroke-width="2" stroke-linecap="round"/>
  <path d="M506 422 L516 410" stroke="#2C2420" fill="none" stroke-width="2" stroke-linecap="round"/>
  <path d="M494 438 L490 452 M506 438 L510 452" stroke="#2C2420" fill="none" stroke-width="2" stroke-linecap="round"/>

  <!-- Kid 3 - sitting on hill -->
  <circle cx="465" cy="448" r="7" stroke="#2C2420" fill="none" stroke-width="2" stroke-linecap="round" stroke-linejoin="round"/>
  <path d="M458 455 L458 472 M472 455 L472 472" stroke="#2C2420" fill="none" stroke-width="2" stroke-linecap="round"/>
  <line x1="458" y1="462" x2="472" y2="462" stroke="#2C2420" stroke-width="2" stroke-linecap="round"/>
  <path d="M458 472 L453 478 L465 478 M472 472 L477 478 L465 478" stroke="#2C2420" fill="none" stroke-width="2" stroke-linecap="round"/>

  <!-- Grass on hill -->
  <path d="M400 490 L403 478 L406 490" stroke="#2C2420" fill="none" stroke-width="1.5" stroke-linecap="round" stroke-linejoin="round"/>
  <path d="M450 475 L453 463 L456 475" stroke="#2C2420" fill="none" stroke-width="1.5" stroke-linecap="round" stroke-linejoin="round"/>
  <path d="M520 445 L523 433 L526 445" stroke="#2C2420" fill="none" stroke-width="1.5" stroke-linecap="round" stroke-linejoin="round"/>
  <path d="M540 455 L543 443 L546 455" stroke="#2C2420" fill="none" stroke-width="1.5" stroke-linecap="round" stroke-linejoin="round"/>
  <path d="M480 470 L483 460 L486 470" stroke="#2C2420" fill="none" stroke-width="1.5" stroke-linecap="round" stroke-linejoin="round"/>

  <!-- === FLEA MARKET AREA (bottom left) === -->
  <!-- Blanket 1 -->
  <path d="M50 560 L50 610 L180 610 L180 560 Z" stroke="#2C2420" fill="none" stroke-width="2.5" stroke-linecap="round" stroke-linejoin="round"/>
  <!-- Items on blanket -->
  <!-- Book -->
  <rect x="60" y="570" width="18" height="14" stroke="#2C2420" fill="none" stroke-width="2" stroke-linecap="round" stroke-linejoin="round"/>
  <line x1="69" y1="570" x2="69" y2="584" stroke="#2C2420" stroke-width="1.5" stroke-linecap="round"/>
  <!-- Vase -->
  <path d="M95 575 Q90 565 95 560 L105 560 Q110 565 105 575 L105 590 Q100 595 95 590 Z" stroke="#2C2420" fill="none" stroke-width="2" stroke-linecap="round" stroke-linejoin="round"/>
  <!-- Cup -->
  <path d="M120 578 L120 590 L135 590 L135 578 Z" stroke="#2C2420" fill="none" stroke-width="2" stroke-linecap="round" stroke-linejoin="round"/>
  <path d="M135 580 Q142 582 142 586 Q142 590 135 590" stroke="#2C2420" fill="none" stroke-width="1.5" stroke-linecap="round"/>
  <!-- Record/vinyl -->
  <circle cx="160" cy="580" r="12" stroke="#2C2420" fill="none" stroke-width="2" stroke-linecap="round" stroke-linejoin="round"/>
  <circle cx="160" cy="580" r="4" stroke="#2C2420" fill="none" stroke-width="1.5" stroke-linecap="round" stroke-linejoin="round"/>
  <!-- Shoe -->
  <path d="M70 592 L70 605 L90 605 Q95 600 88 595 L75 595 Z" stroke="#2C2420" fill="none" stroke-width="1.5" stroke-linecap="round" stroke-linejoin="round"/>
  <!-- Sunglasses -->
  <path d="M120 598 Q125 596 130 598" stroke="#2C2420" fill="none" stroke-width="1.5" stroke-linecap="round"/>
  <circle cx="118" cy="600" r="4" stroke="#2C2420" fill="none" stroke-width="1.5" stroke-linecap="round" stroke-linejoin="round"/>
  <circle cx="132" cy="600" r="4" stroke="#2C2420" fill="none" stroke-width="1.5" stroke-linecap="round" stroke-linejoin="round"/>
  <!-- Necklace -->
  <path d="M150 595 Q155 605 165 600 Q170 595 160 595 Z" stroke="#2C2420" fill="none" stroke-width="1.5" stroke-linecap="round" stroke-linejoin="round"/>

  <!-- Seller sitting behind blanket -->
  <circle cx="115" cy="540" r="9" stroke="#2C2420" fill="none" stroke-width="2" stroke-linecap="round" stroke-linejoin="round"/>
  <path d="M106 549 L106 565 L124 565 L124 549" stroke="#2C2420" fill="none" stroke-width="2" stroke-linecap="round" stroke-linejoin="round"/>
  <!-- Seller hat -->
  <path d="M104 535 Q115 525 126 535" stroke="#2C2420" fill="none" stroke-width="2" stroke-linecap="round" stroke-linejoin="round"/>
  <line x1="100" y1="535" x2="130" y2="535" stroke="#2C2420" stroke-width="2" stroke-linecap="round"/>

  <!-- Table/blanket 2 -->
  <path d="M200 570 L200 610 L330 610 L330 570 Z" stroke="#2C2420" fill="none" stroke-width="2.5" stroke-linecap="round" stroke-linejoin="round"/>
  <!-- Items on table 2 -->
  <!-- Lamp -->
  <path d="M215 555 L210 570 L230 570 L225 555" stroke="#2C2420" fill="none" stroke-width="2" stroke-linecap="round" stroke-linejoin="round"/>
  <line x1="220" y1="555" x2="220" y2="545" stroke="#2C2420" stroke-width="2" stroke-linecap="round"/>
  <path d="M213 545 L220 540 L227 545" stroke="#2C2420" fill="none" stroke-width="1.5" stroke-linecap="round" stroke-linejoin="round"/>
  <!-- Picture frame -->
  <rect x="245" y="575" width="16" height="20" stroke="#2C2420" fill="none" stroke-width="2" stroke-linecap="round" stroke-linejoin="round"/>
  <rect x="248" y="578" width="10" height="14" stroke="#2C2420" fill="none" stroke-width="1" stroke-linecap="round" stroke-linejoin="round"/>
  <!-- Teddy bear -->
  <circle cx="285" cy="585" r="8" stroke="#2C2420" fill="none" stroke-width="2" stroke-linecap="round" stroke-linejoin="round"/>
  <circle cx="279" cy="578" r="4" stroke="#2C2420" fill="none" stroke-width="1.5" stroke-linecap="round" stroke-linejoin="round"/>
  <circle cx="291" cy="578" r="4" stroke="#2C2420" fill="none" stroke-width="1.5" stroke-linecap="round" stroke-linejoin="round"/>
  <circle cx="282" cy="583" r="1.5" stroke="#2C2420" fill="none" stroke-width="1"/>
  <circle cx="288" cy="583" r="1.5" stroke="#2C2420" fill="none" stroke-width="1"/>
  <ellipse cx="285" cy="588" rx="2" ry="1.5" stroke="#2C2420" fill="none" stroke-width="1"/>
  <!-- Books stack -->
  <rect x="305" y="580" width="20" height="4" stroke="#2C2420" fill="none" stroke-width="1.5" stroke-linecap="round" stroke-linejoin="round"/>
  <rect x="305" y="584" width="20" height="4" stroke="#2C2420" fill="none" stroke-width="1.5" stroke-linecap="round" stroke-linejoin="round"/>
  <rect x="305" y="588" width="20" height="4" stroke="#2C2420" fill="none" stroke-width="1.5" stroke-linecap="round" stroke-linejoin="round"/>

  <!-- === PERSON WITH GUITAR (bottom right) === -->
  <!-- Head -->
  <circle cx="420" cy="530" r="10" stroke="#2C2420" fill="none" stroke-width="2.5" stroke-linecap="round" stroke-linejoin="round"/>
  <!-- Hair/beanie -->
  <path d="M410 526 Q410 518 420 516 Q430 518 430 526" stroke="#2C2420" fill="none" stroke-width="2" stroke-linecap="round" stroke-linejoin="round"/>
  <!-- Face features -->
  <circle cx="416" cy="528" r="1.5" stroke="#2C2420" fill="none" stroke-width="1.5"/>
  <circle cx="424" cy="528" r="1.5" stroke="#2C2420" fill="none" stroke-width="1.5"/>
  <path d="M416 534 Q420 537 424 534" stroke="#2C2420" fill="none" stroke-width="1.5" stroke-linecap="round"/>
  <!-- Body -->
  <path d="M413 540 L410 575 M427 540 L430 575" stroke="#2C2420" fill="none" stroke-width="2.5" stroke-linecap="round"/>
  <line x1="410" y1="555" x2="430" y2="555" stroke="#2C2420" stroke-width="2" stroke-linecap="round"/>
  <!-- Legs crossed (sitting) -->
  <path d="M410 575 L400 590 L420 590 M430 575 L440 590 L420 590" stroke="#2C2420" fill="none" stroke-width="2" stroke-linecap="round" stroke-linejoin="round"/>
  <!-- Guitar body -->
  <ellipse cx="395" cy="565" rx="18" ry="22" stroke="#2C2420" fill="none" stroke-width="2.5" stroke-linecap="round" stroke-linejoin="round"/>
  <ellipse cx="395" cy="555" rx="14" ry="16" stroke="#2C2420" fill="none" stroke-width="2" stroke-linecap="round" stroke-linejoin="round"/>
  <!-- Guitar sound hole -->
  <circle cx="395" cy="565" r="5" stroke="#2C2420" fill="none" stroke-width="1.5" stroke-linecap="round" stroke-linejoin="round"/>
  <!-- Guitar neck -->
  <line x1="395" y1="540" x2="395" y2="510" stroke="#2C2420" stroke-width="2.5" stroke-linecap="round"/>
  <!-- Frets -->
  <line x1="391" y1="520" x2="399" y2="520" stroke="#2C2420" stroke-width="1.5" stroke-linecap="round"/>
  <line x1="391" y1="528" x2="399" y2="528" stroke="#2C2420" stroke-width="1.5" stroke-linecap="round"/>
  <line x1="391" y1="515" x2="399" y2="515" stroke="#2C2420" stroke-width="1.5" stroke-linecap="round"/>
  <!-- Guitar headstock -->
  <rect x="392" y="505" width="6" height="8" stroke="#2C2420" fill="none" stroke-width="1.5" stroke-linecap="round" stroke-linejoin="round"/>
  <!-- Tuning pegs -->
  <line x1="390" y1="507" x2="387" y2="507" stroke="#2C2420" stroke-width="1.5" stroke-linecap="round"/>
  <line x1="390" y1="511" x2="387" y2="511" stroke="#2C2420" stroke-width="1.5" stroke-linecap="round"/>
  <line x1="400" y1="507" x2="403" y2="507" stroke="#2C2420" stroke-width="1.5" stroke-linecap="round"/>
  <line x1="400" y1="511" x2="403" y2="511" stroke="#2C2420" stroke-width="1.5" stroke-linecap="round"/>
  <!-- Arms holding guitar -->
  <path d="M413 550 L395 560" stroke="#2C2420" fill="none" stroke-width="2" stroke-linecap="round"/>
  <path d="M427 550 L400 540" stroke="#2C2420" fill="none" stroke-width="2" stroke-linecap="round"/>

  <!-- === GROUND / PATH === -->
  <line x1="30" y1="620" x2="565" y2="620" stroke="#2C2420" stroke-width="2" stroke-linecap="round"/>

  <!-- Grass along ground -->
  <path d="M350 620 L353 608 L356 620" stroke="#2C2420" fill="none" stroke-width="1.5" stroke-linecap="round" stroke-linejoin="round"/>
  <path d="M356 620 L359 610 L362 620" stroke="#2C2420" fill="none" stroke-width="1.5" stroke-linecap="round" stroke-linejoin="round"/>
  <path d="M480 620 L483 610 L486 620" stroke="#2C2420" fill="none" stroke-width="1.5" stroke-linecap="round" stroke-linejoin="round"/>
  <path d="M540 620 L543 608 L546 620" stroke="#2C2420" fill="none" stroke-width="1.5" stroke-linecap="round" stroke-linejoin="round"/>

  <!-- === DOG walking on path === -->
  <!-- Dog body -->
  <ellipse cx="380" cy="645" rx="18" ry="10" stroke="#2C2420" fill="none" stroke-width="2" stroke-linecap="round" stroke-linejoin="round"/>
  <!-- Dog head -->
  <circle cx="400" cy="638" r="8" stroke="#2C2420" fill="none" stroke-width="2" stroke-linecap="round" stroke-linejoin="round"/>
  <!-- Ear -->
  <path d="M403 632 Q408 625 406 632" stroke="#2C2420" fill="none" stroke-width="1.5" stroke-linecap="round" stroke-linejoin="round"/>
  <!-- Eye -->
  <circle cx="403" cy="636" r="1.5" stroke="#2C2420" fill="none" stroke-width="1" stroke-linecap="round"/>
  <!-- Nose -->
  <circle cx="407" cy="640" r="1.5" stroke="#2C2420" fill="none" stroke-width="1.5"/>
  <!-- Legs -->
  <line x1="370" y1="652" x2="370" y2="665" stroke="#2C2420" stroke-width="2" stroke-linecap="round"/>
  <line x1="378" y1="654" x2="378" y2="665" stroke="#2C2420" stroke-width="2" stroke-linecap="round"/>
  <line x1="385" y1="654" x2="385" y2="665" stroke="#2C2420" stroke-width="2" stroke-linecap="round"/>
  <line x1="393" y1="652" x2="393" y2="665" stroke="#2C2420" stroke-width="2" stroke-linecap="round"/>
  <!-- Tail -->
  <path d="M362 642 Q355 630 360 625" stroke="#2C2420" fill="none" stroke-width="2" stroke-linecap="round" stroke-linejoin="round"/>

  <!-- === WALKING PERSON with coffee === -->
  <circle cx="320" cy="630" r="8" stroke="#2C2420" fill="none" stroke-width="2" stroke-linecap="round" stroke-linejoin="round"/>
  <path d="M314 638 L312 668 M326 638 L328 668" stroke="#2C2420" fill="none" stroke-width="2" stroke-linecap="round"/>
  <line x1="314" y1="650" x2="326" y2="650" stroke="#2C2420" stroke-width="2" stroke-linecap="round"/>
  <path d="M312 668 L306 680 M328 668 L334 680" stroke="#2C2420" fill="none" stroke-width="2" stroke-linecap="round"/>
  <!-- Coffee cup in hand -->
  <path d="M326 648 L340 645" stroke="#2C2420" fill="none" stroke-width="2" stroke-linecap="round"/>
  <rect x="337" y="640" width="8" height="10" stroke="#2C2420" fill="none" stroke-width="1.5" stroke-linecap="round" stroke-linejoin="round"/>
  <!-- Steam from coffee -->
  <path d="M340 638 Q342 633 340 628" stroke="#2C2420" fill="none" stroke-width="1" stroke-linecap="round"/>
  <path d="M344 637 Q346 632 344 627" stroke="#2C2420" fill="none" stroke-width="1" stroke-linecap="round"/>

  <!-- Footer -->
  <text x="297.5" y="820" text-anchor="middle" font-family="sans-serif" font-size="8" fill="#C4B8AB">berlinbabysitter.com</text>
</svg>