<svg xmlns="http://www.w3.org/2000/svg" viewBox="0 0 595 842" width="595" height="842" style="background: white">
  <title>Museum Island Coloring Page</title>

  <!-- Sky birds -->
  <path d="M80 40 C85 32, 95 32, 100 40" stroke="#2C2420" fill="none" stroke-width="2" stroke-linecap="round"/>
  <path d="M110 50 C115 42, 125 42, 130 50" stroke="#2C2420" fill="none" stroke-width="2" stroke-linecap="round"/>
  <path d="M450 30 C455 22, 465 22, 470 30" stroke="#2C2420" fill="none" stroke-width="2" stroke-linecap="round"/>

  <!-- Cloud -->
  <path d="M340 55 C332 42, 348 28, 365 32 C370 18, 395 15, 402 30 C414 22, 430 28, 428 40 C440 42, 442 56, 430 62 C432 72, 420 78, 410 72 C400 80, 380 82, 376 70 C364 78, 345 74, 340 64 Z" stroke="#2C2420" fill="none" stroke-width="3" stroke-linecap="round"/>

  <!-- ===== BERLINER DOM (center, dominant) ===== -->
  <!-- Main dome -->
  <path d="M210 370 L210 240 Q210 140, 297 100 Q384 140, 384 240 L384 370" stroke="#2C2420" fill="none" stroke-width="4" stroke-linecap="round"/>
  <!-- Dome lantern on top -->
  <rect x="282" y="85" width="30" height="20" rx="3" stroke="#2C2420" fill="none" stroke-width="2"/>
  <path d="M282 85 Q297 68, 312 85" stroke="#2C2420" fill="none" stroke-width="2" stroke-linecap="round"/>
  <!-- Cross on top -->
  <line x1="297" y1="68" x2="297" y2="50" stroke="#2C2420" fill="none" stroke-width="3" stroke-linecap="round"/>
  <line x1="290" y1="58" x2="304" y2="58" stroke="#2C2420" fill="none" stroke-width="3" stroke-linecap="round"/>
  <!-- Dome ribs -->
  <path d="M240 280 Q268 160, 297 130 Q326 160, 354 280" stroke="#2C2420" fill="none" stroke-width="2"/>
  <path d="M255 300 Q276 180, 297 155 Q318 180, 339 300" stroke="#2C2420" fill="none" stroke-width="1.5"/>
  <!-- Dome windows -->
  <path d="M255 220 Q255 205, 268 200 Q280 205, 280 220" stroke="#2C2420" fill="none" stroke-width="2"/>
  <path d="M315 220 Q315 205, 328 200 Q340 205, 340 220" stroke="#2C2420" fill="none" stroke-width="2"/>
  <!-- Drum under dome -->
  <rect x="220" y="240" width="154" height="40" rx="3" stroke="#2C2420" fill="none" stroke-width="3"/>
  <!-- Drum columns -->
  <line x1="240" y1="244" x2="240" y2="276" stroke="#2C2420" fill="none" stroke-width="2"/>
  <line x1="260" y1="244" x2="260" y2="276" stroke="#2C2420" fill="none" stroke-width="2"/>
  <line x1="280" y1="244" x2="280" y2="276" stroke="#2C2420" fill="none" stroke-width="2"/>
  <line x1="310" y1="244" x2="310" y2="276" stroke="#2C2420" fill="none" stroke-width="2"/>
  <line x1="330" y1="244" x2="330" y2="276" stroke="#2C2420" fill="none" stroke-width="2"/>
  <line x1="350" y1="244" x2="350" y2="276" stroke="#2C2420" fill="none" stroke-width="2"/>

  <!-- Dom main body -->
  <rect x="195" y="280" width="204" height="180" stroke="#2C2420" fill="none" stroke-width="4"/>
  <!-- Side towers -->
  <rect x="195" y="250" width="30" height="210" stroke="#2C2420" fill="none" stroke-width="3"/>
  <path d="M195 250 L210 230 L225 250" stroke="#2C2420" fill="none" stroke-width="2" stroke-linecap="round"/>
  <rect x="369" y="250" width="30" height="210" stroke="#2C2420" fill="none" stroke-width="3"/>
  <path d="M369 250 L384 230 L399 250" stroke="#2C2420" fill="none" stroke-width="2" stroke-linecap="round"/>

  <!-- Front columns/portico -->
  <rect x="235" y="370" width="124" height="90" stroke="#2C2420" fill="none" stroke-width="3"/>
  <path d="M235 370 L297 340 L359 370" stroke="#2C2420" fill="none" stroke-width="3" stroke-linecap="round"/>
  <line x1="255" y1="374" x2="255" y2="455" stroke="#2C2420" fill="none" stroke-width="2"/>
  <line x1="275" y1="374" x2="275" y2="455" stroke="#2C2420" fill="none" stroke-width="2"/>
  <line x1="320" y1="374" x2="320" y2="455" stroke="#2C2420" fill="none" stroke-width="2"/>
  <line x1="340" y1="374" x2="340" y2="455" stroke="#2C2420" fill="none" stroke-width="2"/>
  <!-- Main entrance -->
  <path d="M285 455 Q297 435, 309 455" stroke="#2C2420" fill="none" stroke-width="2" stroke-linecap="round"/>

  <!-- Windows on Dom body -->
  <rect x="240" y="300" width="18" height="28" rx="3" stroke="#2C2420" fill="none" stroke-width="2"/>
  <rect x="268" y="300" width="18" height="28" rx="3" stroke="#2C2420" fill="none" stroke-width="2"/>
  <rect x="310" y="300" width="18" height="28" rx="3" stroke="#2C2420" fill="none" stroke-width="2"/>
  <rect x="338" y="300" width="18" height="28" rx="3" stroke="#2C2420" fill="none" stroke-width="2"/>

  <!-- ===== ALTE NATIONALGALERIE (left) ===== -->
  <rect x="30" y="350" width="150" height="120" stroke="#2C2420" fill="none" stroke-width="3"/>
  <path d="M30 350 L105 290 L180 350" stroke="#2C2420" fill="none" stroke-width="3" stroke-linecap="round"/>
  <!-- Steps/podium -->
  <path d="M50 470 L50 500 L160 500 L160 470" stroke="#2C2420" fill="none" stroke-width="3" stroke-linecap="round"/>
  <line x1="40" y1="500" x2="170" y2="500" stroke="#2C2420" fill="none" stroke-width="3"/>
  <!-- Windows -->
  <rect x="48" y="370" width="22" height="35" rx="2" stroke="#2C2420" fill="none" stroke-width="2"/>
  <rect x="80" y="370" width="22" height="35" rx="2" stroke="#2C2420" fill="none" stroke-width="2"/>
  <rect x="112" y="370" width="22" height="35" rx="2" stroke="#2C2420" fill="none" stroke-width="2"/>
  <rect x="144" y="370" width="22" height="35" rx="2" stroke="#2C2420" fill="none" stroke-width="2"/>
  <!-- Equestrian statue -->
  <line x1="105" y1="320" x2="105" y2="345" stroke="#2C2420" fill="none" stroke-width="2"/>
  <circle cx="105" cy="315" r="6" stroke="#2C2420" fill="none" stroke-width="2"/>

  <!-- ===== NEUES MUSEUM (right) ===== -->
  <rect x="415" y="340" width="155" height="130" stroke="#2C2420" fill="none" stroke-width="3"/>
  <!-- Roof detail -->
  <rect x="410" y="330" width="165" height="14" rx="2" stroke="#2C2420" fill="none" stroke-width="2"/>
  <!-- Windows grid -->
  <rect x="425" y="355" width="20" height="28" rx="2" stroke="#2C2420" fill="none" stroke-width="2"/>
  <rect x="455" y="355" width="20" height="28" rx="2" stroke="#2C2420" fill="none" stroke-width="2"/>
  <rect x="485" y="355" width="20" height="28" rx="2" stroke="#2C2420" fill="none" stroke-width="2"/>
  <rect x="515" y="355" width="20" height="28" rx="2" stroke="#2C2420" fill="none" stroke-width="2"/>
  <rect x="545" y="355" width="20" height="28" rx="2" stroke="#2C2420" fill="none" stroke-width="2"/>
  <rect x="425" y="398" width="20" height="28" rx="2" stroke="#2C2420" fill="none" stroke-width="2"/>
  <rect x="455" y="398" width="20" height="28" rx="2" stroke="#2C2420" fill="none" stroke-width="2"/>
  <rect x="485" y="398" width="20" height="28" rx="2" stroke="#2C2420" fill="none" stroke-width="2"/>
  <rect x="515" y="398" width="20" height="28" rx="2" stroke="#2C2420" fill="none" stroke-width="2"/>
  <rect x="545" y="398" width="20" height="28" rx="2" stroke="#2C2420" fill="none" stroke-width="2"/>
  <!-- Entrance -->
  <rect x="470" y="440" width="40" height="30" rx="3" stroke="#2C2420" fill="none" stroke-width="2"/>
  <path d="M470 440 Q490 425, 510 440" stroke="#2C2420" fill="none" stroke-width="2"/>

  <!-- ===== SPREE RIVER ===== -->
  <path d="M15 530 C80 520, 160 540, 297 528 C420 518, 500 535, 580 525" stroke="#2C2420" fill="none" stroke-width="4" stroke-linecap="round"/>
  <path d="M15 580 C80 570, 160 590, 297 578 C420 568, 500 585, 580 575" stroke="#2C2420" fill="none" stroke-width="4" stroke-linecap="round"/>
  <!-- Water ripples -->
  <path d="M60 550 C72 545, 82 555, 95 550" stroke="#2C2420" fill="none" stroke-width="2" stroke-linecap="round"/>
  <path d="M180 555 C192 550, 202 560, 215 555" stroke="#2C2420" fill="none" stroke-width="2" stroke-linecap="round"/>
  <path d="M320 548 C332 543, 342 553, 355 548" stroke="#2C2420" fill="none" stroke-width="2" stroke-linecap="round"/>
  <path d="M440 552 C452 547, 462 557, 475 552" stroke="#2C2420" fill="none" stroke-width="2" stroke-linecap="round"/>
  <!-- Reflections -->
  <line x1="297" y1="540" x2="297" y2="570" stroke="#2C2420" fill="none" stroke-width="1.5" stroke-linecap="round" stroke-dasharray="4 4"/>
  <line x1="200" y1="538" x2="200" y2="565" stroke="#2C2420" fill="none" stroke-width="1.5" stroke-linecap="round" stroke-dasharray="4 4"/>
  <line x1="400" y1="540" x2="400" y2="568" stroke="#2C2420" fill="none" stroke-width="1.5" stroke-linecap="round" stroke-dasharray="4 4"/>

  <!-- Tour boat on Spree -->
  <path d="M350 558 L350 545 L450 545 L450 558" stroke="#2C2420" fill="none" stroke-width="3" stroke-linecap="round"/>
  <path d="M340 558 Q400 570, 460 558" stroke="#2C2420" fill="none" stroke-width="3" stroke-linecap="round"/>
  <!-- Boat cabin -->
  <rect x="365" y="535" width="60" height="12" rx="3" stroke="#2C2420" fill="none" stroke-width="2"/>
  <!-- Passengers -->
  <circle cx="375" cy="530" r="4" stroke="#2C2420" fill="none" stroke-width="1.5"/>
  <circle cx="390" cy="530" r="4" stroke="#2C2420" fill="none" stroke-width="1.5"/>
  <circle cx="405" cy="530" r="4" stroke="#2C2420" fill="none" stroke-width="1.5"/>

  <!-- Embankment / Promenade -->
  <line x1="15" y1="600" x2="580" y2="600" stroke="#2C2420" fill="none" stroke-width="4" stroke-linecap="round"/>

  <!-- Trees along promenade -->
  <circle cx="60" cy="620" r="18" stroke="#2C2420" fill="none" stroke-width="3"/>
  <line x1="60" y1="638" x2="60" y2="670" stroke="#2C2420" fill="none" stroke-width="3" stroke-linecap="round"/>
  <circle cx="160" cy="615" r="22" stroke="#2C2420" fill="none" stroke-width="3"/>
  <line x1="160" y1="637" x2="160" y2="670" stroke="#2C2420" fill="none" stroke-width="3" stroke-linecap="round"/>
  <circle cx="400" cy="618" r="20" stroke="#2C2420" fill="none" stroke-width="3"/>
  <line x1="400" y1="638" x2="400" y2="670" stroke="#2C2420" fill="none" stroke-width="3" stroke-linecap="round"/>
  <circle cx="520" cy="615" r="18" stroke="#2C2420" fill="none" stroke-width="3"/>
  <line x1="520" y1="633" x2="520" y2="665" stroke="#2C2420" fill="none" stroke-width="3" stroke-linecap="round"/>

  <!-- Walking path -->
  <path d="M15 680 C100 675, 200 685, 297 678 C400 672, 500 682, 580 676" stroke="#2C2420" fill="none" stroke-width="3" stroke-linecap="round"/>

  <!-- People walking -->
  <circle cx="100" cy="665" r="5" stroke="#2C2420" fill="none" stroke-width="2"/>
  <line x1="100" y1="670" x2="100" y2="685" stroke="#2C2420" fill="none" stroke-width="2" stroke-linecap="round"/>
  <line x1="100" y1="685" x2="96" y2="700" stroke="#2C2420" fill="none" stroke-width="2" stroke-linecap="round"/>
  <line x1="100" y1="685" x2="104" y2="698" stroke="#2C2420" fill="none" stroke-width="2" stroke-linecap="round"/>

  <circle cx="280" cy="662" r="5" stroke="#2C2420" fill="none" stroke-width="2"/>
  <line x1="280" y1="667" x2="280" y2="682" stroke="#2C2420" fill="none" stroke-width="2" stroke-linecap="round"/>
  <circle cx="295" cy="663" r="5" stroke="#2C2420" fill="none" stroke-width="2"/>
  <line x1="295" y1="668" x2="295" y2="683" stroke="#2C2420" fill="none" stroke-width="2" stroke-linecap="round"/>

  <!-- Bench -->
  <path d="M450 680 L450 695 M490 680 L490 695 M445 680 L495 680" stroke="#2C2420" fill="none" stroke-width="3" stroke-linecap="round"/>

  <!-- Lower garden area -->
  <path d="M15 730 C80 725, 160 735, 297 728 C400 722, 500 732, 580 726" stroke="#2C2420" fill="none" stroke-width="3" stroke-linecap="round"/>

  <!-- Bushes -->
  <path d="M40 722 C50 712, 65 712, 75 722" stroke="#2C2420" fill="none" stroke-width="3" stroke-linecap="round"/>
  <path d="M200 728 C210 718, 225 718, 235 728" stroke="#2C2420" fill="none" stroke-width="3" stroke-linecap="round"/>
  <path d="M350 725 C360 715, 375 715, 385 725" stroke="#2C2420" fill="none" stroke-width="3" stroke-linecap="round"/>

  <text x="297.5" y="790" text-anchor="middle" font-family="sans-serif" font-size="8" fill="#C4B8AB">berlinbabysitter.com</text>
</svg>
