<svg xmlns="http://www.w3.org/2000/svg" viewBox="0 0 595 842" width="595" height="842" style="background: white">
  <title>Museum Island (Museumsinsel) from the Spree - Berlin Coloring Page for Ages 10+</title>

  <!-- ========== SKY ========== -->
  <!-- Clouds -->
  <path d="M60,80 Q80,60 110,72 Q130,55 160,70 Q180,58 200,80" stroke="#2C2420" fill="none" stroke-width="1" stroke-linecap="round" stroke-linejoin="round"/>
  <path d="M320,65 Q345,45 375,58 Q395,42 420,55 Q445,45 460,65" stroke="#2C2420" fill="none" stroke-width="1" stroke-linecap="round" stroke-linejoin="round"/>
  <path d="M200,100 Q220,85 240,95 Q255,82 270,100" stroke="#2C2420" fill="none" stroke-width="1" stroke-linecap="round" stroke-linejoin="round"/>
  <!-- Birds -->
  <path d="M150,110 Q154,105 158,110" stroke="#2C2420" fill="none" stroke-width="1" stroke-linecap="round" stroke-linejoin="round"/>
  <path d="M158,110 Q162,105 166,110" stroke="#2C2420" fill="none" stroke-width="1" stroke-linecap="round" stroke-linejoin="round"/>
  <path d="M480,90 Q483,86 486,90" stroke="#2C2420" fill="none" stroke-width="1" stroke-linecap="round" stroke-linejoin="round"/>
  <path d="M486,90 Q489,86 492,90" stroke="#2C2420" fill="none" stroke-width="1" stroke-linecap="round" stroke-linejoin="round"/>

  <!-- ========== BERLINER DOM (Berlin Cathedral) - largest, behind everything ========== -->
  <!-- Main dome -->
  <path d="M280,130 Q297,80 314,130" stroke="#2C2420" fill="none" stroke-width="2" stroke-linecap="round" stroke-linejoin="round"/>
  <!-- Dome ribs -->
  <path d="M287,128 Q297,90 307,128" stroke="#2C2420" fill="none" stroke-width="1" stroke-linecap="round" stroke-linejoin="round"/>
  <path d="M293,126 Q297,98 301,126" stroke="#2C2420" fill="none" stroke-width="0.8" stroke-linecap="round" stroke-linejoin="round"/>
  <!-- Lantern on top -->
  <rect x="293" y="80" width="8" height="12" stroke="#2C2420" fill="none" stroke-width="1" stroke-linecap="round" stroke-linejoin="round"/>
  <path d="M293,80 Q297,74 301,80" stroke="#2C2420" fill="none" stroke-width="1" stroke-linecap="round" stroke-linejoin="round"/>
  <!-- Cross on very top -->
  <line x1="297" y1="74" x2="297" y2="62" stroke="#2C2420" fill="none" stroke-width="1.5" stroke-linecap="round" stroke-linejoin="round"/>
  <line x1="292" y1="67" x2="302" y2="67" stroke="#2C2420" fill="none" stroke-width="1.5" stroke-linecap="round" stroke-linejoin="round"/>
  <!-- Dome base/drum -->
  <rect x="275" y="130" width="44" height="20" stroke="#2C2420" fill="none" stroke-width="1.5" stroke-linecap="round" stroke-linejoin="round"/>
  <!-- Windows in drum -->
  <path d="M280,132 Q282,130 284,132 L284,140 L280,140 Z" stroke="#2C2420" fill="none" stroke-width="0.8" stroke-linecap="round" stroke-linejoin="round"/>
  <path d="M288,132 Q290,130 292,132 L292,140 L288,140 Z" stroke="#2C2420" fill="none" stroke-width="0.8" stroke-linecap="round" stroke-linejoin="round"/>
  <path d="M296,132 Q298,130 300,132 L300,140 L296,140 Z" stroke="#2C2420" fill="none" stroke-width="0.8" stroke-linecap="round" stroke-linejoin="round"/>
  <path d="M304,132 Q306,130 308,132 L308,140 L304,140 Z" stroke="#2C2420" fill="none" stroke-width="0.8" stroke-linecap="round" stroke-linejoin="round"/>
  <path d="M312,132 Q314,130 316,132 L316,140 L312,140 Z" stroke="#2C2420" fill="none" stroke-width="0.8" stroke-linecap="round" stroke-linejoin="round"/>
  <!-- Cathedral main body -->
  <rect x="260" y="150" width="74" height="100" stroke="#2C2420" fill="none" stroke-width="1.5" stroke-linecap="round" stroke-linejoin="round"/>
  <!-- Facade columns -->
  <line x1="268" y1="155" x2="268" y2="245" stroke="#2C2420" fill="none" stroke-width="0.8" stroke-linecap="round" stroke-linejoin="round"/>
  <line x1="278" y1="155" x2="278" y2="245" stroke="#2C2420" fill="none" stroke-width="0.8" stroke-linecap="round" stroke-linejoin="round"/>
  <line x1="316" y1="155" x2="316" y2="245" stroke="#2C2420" fill="none" stroke-width="0.8" stroke-linecap="round" stroke-linejoin="round"/>
  <line x1="326" y1="155" x2="326" y2="245" stroke="#2C2420" fill="none" stroke-width="0.8" stroke-linecap="round" stroke-linejoin="round"/>
  <!-- Cathedral windows -->
  <path d="M285,165 Q292,158 299,165 L299,195 L285,195 Z" stroke="#2C2420" fill="none" stroke-width="1" stroke-linecap="round" stroke-linejoin="round"/>
  <path d="M303,165 Q310,158 317,165 L317,195 L303,195 Z" stroke="#2C2420" fill="none" stroke-width="1" stroke-linecap="round" stroke-linejoin="round"/>
  <path d="M285,205 Q292,198 299,205 L299,235 L285,235 Z" stroke="#2C2420" fill="none" stroke-width="1" stroke-linecap="round" stroke-linejoin="round"/>
  <path d="M303,205 Q310,198 317,205 L317,235 L303,235 Z" stroke="#2C2420" fill="none" stroke-width="1" stroke-linecap="round" stroke-linejoin="round"/>
  <!-- Smaller corner domes -->
  <path d="M258,148 Q265,135 272,148" stroke="#2C2420" fill="none" stroke-width="1" stroke-linecap="round" stroke-linejoin="round"/>
  <path d="M322,148 Q329,135 336,148" stroke="#2C2420" fill="none" stroke-width="1" stroke-linecap="round" stroke-linejoin="round"/>
  <!-- Small crosses on corner domes -->
  <line x1="265" y1="135" x2="265" y2="128" stroke="#2C2420" fill="none" stroke-width="0.8" stroke-linecap="round" stroke-linejoin="round"/>
  <line x1="262" y1="131" x2="268" y2="131" stroke="#2C2420" fill="none" stroke-width="0.8" stroke-linecap="round" stroke-linejoin="round"/>
  <line x1="329" y1="135" x2="329" y2="128" stroke="#2C2420" fill="none" stroke-width="0.8" stroke-linecap="round" stroke-linejoin="round"/>
  <line x1="326" y1="131" x2="332" y2="131" stroke="#2C2420" fill="none" stroke-width="0.8" stroke-linecap="round" stroke-linejoin="round"/>

  <!-- ========== ALTE NATIONALGALERIE (leftmost, temple facade) ========== -->
  <!-- Main temple body -->
  <rect x="55" y="200" width="100" height="120" stroke="#2C2420" fill="none" stroke-width="1.5" stroke-linecap="round" stroke-linejoin="round"/>
  <!-- Pediment (triangular top) -->
  <polygon points="50,200 105,160 160,200" stroke="#2C2420" fill="none" stroke-width="1.5" stroke-linecap="round" stroke-linejoin="round"/>
  <!-- Tympanum decoration (relief in pediment) -->
  <path d="M75,195 Q105,175 135,195" stroke="#2C2420" fill="none" stroke-width="0.8" stroke-linecap="round" stroke-linejoin="round"/>
  <!-- Front columns (Corinthian) -->
  <line x1="65" y1="200" x2="65" y2="315" stroke="#2C2420" fill="none" stroke-width="1.5" stroke-linecap="round" stroke-linejoin="round"/>
  <line x1="80" y1="200" x2="80" y2="315" stroke="#2C2420" fill="none" stroke-width="1.5" stroke-linecap="round" stroke-linejoin="round"/>
  <line x1="95" y1="200" x2="95" y2="315" stroke="#2C2420" fill="none" stroke-width="1.5" stroke-linecap="round" stroke-linejoin="round"/>
  <line x1="110" y1="200" x2="110" y2="315" stroke="#2C2420" fill="none" stroke-width="1.5" stroke-linecap="round" stroke-linejoin="round"/>
  <line x1="125" y1="200" x2="125" y2="315" stroke="#2C2420" fill="none" stroke-width="1.5" stroke-linecap="round" stroke-linejoin="round"/>
  <line x1="140" y1="200" x2="140" y2="315" stroke="#2C2420" fill="none" stroke-width="1.5" stroke-linecap="round" stroke-linejoin="round"/>
  <!-- Grand staircase -->
  <line x1="70" y1="320" x2="140" y2="320" stroke="#2C2420" fill="none" stroke-width="1" stroke-linecap="round" stroke-linejoin="round"/>
  <line x1="65" y1="328" x2="145" y2="328" stroke="#2C2420" fill="none" stroke-width="1" stroke-linecap="round" stroke-linejoin="round"/>
  <line x1="60" y1="336" x2="150" y2="336" stroke="#2C2420" fill="none" stroke-width="1" stroke-linecap="round" stroke-linejoin="round"/>
  <line x1="55" y1="344" x2="155" y2="344" stroke="#2C2420" fill="none" stroke-width="1" stroke-linecap="round" stroke-linejoin="round"/>
  <!-- Equestrian statue on stairs -->
  <!-- Horse body -->
  <path d="M100,300 Q108,290 115,295 L115,310 L100,310 Z" stroke="#2C2420" fill="none" stroke-width="1" stroke-linecap="round" stroke-linejoin="round"/>
  <!-- Horse legs -->
  <line x1="103" y1="310" x2="103" y2="318" stroke="#2C2420" fill="none" stroke-width="1" stroke-linecap="round" stroke-linejoin="round"/>
  <line x1="112" y1="310" x2="112" y2="318" stroke="#2C2420" fill="none" stroke-width="1" stroke-linecap="round" stroke-linejoin="round"/>
  <!-- Horse head -->
  <path d="M100,300 Q96,292 98,286 Q100,284 102,288 L100,295" stroke="#2C2420" fill="none" stroke-width="1" stroke-linecap="round" stroke-linejoin="round"/>
  <!-- Rider -->
  <line x1="108" y1="295" x2="108" y2="280" stroke="#2C2420" fill="none" stroke-width="1" stroke-linecap="round" stroke-linejoin="round"/>
  <circle cx="108" cy="277" r="3" stroke="#2C2420" fill="none" stroke-width="1" stroke-linecap="round" stroke-linejoin="round"/>
  <!-- Windows -->
  <rect x="62" y="225" width="12" height="18" stroke="#2C2420" fill="none" stroke-width="0.8" stroke-linecap="round" stroke-linejoin="round"/>
  <rect x="82" y="225" width="12" height="18" stroke="#2C2420" fill="none" stroke-width="0.8" stroke-linecap="round" stroke-linejoin="round"/>
  <rect x="102" y="225" width="12" height="18" stroke="#2C2420" fill="none" stroke-width="0.8" stroke-linecap="round" stroke-linejoin="round"/>
  <rect x="122" y="225" width="12" height="18" stroke="#2C2420" fill="none" stroke-width="0.8" stroke-linecap="round" stroke-linejoin="round"/>
  <rect x="142" y="225" width="12" height="18" stroke="#2C2420" fill="none" stroke-width="0.8" stroke-linecap="round" stroke-linejoin="round"/>

  <!-- ========== NEUES MUSEUM (second from left) ========== -->
  <rect x="160" y="210" width="80" height="140" stroke="#2C2420" fill="none" stroke-width="1.5" stroke-linecap="round" stroke-linejoin="round"/>
  <!-- Roof line -->
  <line x1="160" y1="210" x2="240" y2="210" stroke="#2C2420" fill="none" stroke-width="2" stroke-linecap="round" stroke-linejoin="round"/>
  <!-- Cornice -->
  <rect x="158" y="206" width="84" height="4" stroke="#2C2420" fill="none" stroke-width="1" stroke-linecap="round" stroke-linejoin="round"/>
  <!-- Windows Row 1 -->
  <path d="M168,220 Q173,215 178,220 L178,240 L168,240 Z" stroke="#2C2420" fill="none" stroke-width="0.8" stroke-linecap="round" stroke-linejoin="round"/>
  <path d="M185,220 Q190,215 195,220 L195,240 L185,240 Z" stroke="#2C2420" fill="none" stroke-width="0.8" stroke-linecap="round" stroke-linejoin="round"/>
  <path d="M202,220 Q207,215 212,220 L212,240 L202,240 Z" stroke="#2C2420" fill="none" stroke-width="0.8" stroke-linecap="round" stroke-linejoin="round"/>
  <path d="M219,220 Q224,215 229,220 L229,240 L219,240 Z" stroke="#2C2420" fill="none" stroke-width="0.8" stroke-linecap="round" stroke-linejoin="round"/>
  <!-- Windows Row 2 -->
  <rect x="168" y="250" width="10" height="16" stroke="#2C2420" fill="none" stroke-width="0.8" stroke-linecap="round" stroke-linejoin="round"/>
  <rect x="185" y="250" width="10" height="16" stroke="#2C2420" fill="none" stroke-width="0.8" stroke-linecap="round" stroke-linejoin="round"/>
  <rect x="202" y="250" width="10" height="16" stroke="#2C2420" fill="none" stroke-width="0.8" stroke-linecap="round" stroke-linejoin="round"/>
  <rect x="219" y="250" width="10" height="16" stroke="#2C2420" fill="none" stroke-width="0.8" stroke-linecap="round" stroke-linejoin="round"/>
  <!-- Windows Row 3 -->
  <rect x="168" y="280" width="10" height="16" stroke="#2C2420" fill="none" stroke-width="0.8" stroke-linecap="round" stroke-linejoin="round"/>
  <rect x="185" y="280" width="10" height="16" stroke="#2C2420" fill="none" stroke-width="0.8" stroke-linecap="round" stroke-linejoin="round"/>
  <rect x="202" y="280" width="10" height="16" stroke="#2C2420" fill="none" stroke-width="0.8" stroke-linecap="round" stroke-linejoin="round"/>
  <rect x="219" y="280" width="10" height="16" stroke="#2C2420" fill="none" stroke-width="0.8" stroke-linecap="round" stroke-linejoin="round"/>
  <!-- Horizontal band -->
  <line x1="160" y1="275" x2="240" y2="275" stroke="#2C2420" fill="none" stroke-width="0.8" stroke-linecap="round" stroke-linejoin="round"/>

  <!-- ========== PERGAMON MUSEUM (center, grand entrance) ========== -->
  <rect x="245" y="220" width="105" height="130" stroke="#2C2420" fill="none" stroke-width="1.5" stroke-linecap="round" stroke-linejoin="round"/>
  <!-- Grand entrance portico -->
  <rect x="270" y="260" width="55" height="90" stroke="#2C2420" fill="none" stroke-width="1.5" stroke-linecap="round" stroke-linejoin="round"/>
  <!-- Entrance columns -->
  <line x1="278" y1="260" x2="278" y2="345" stroke="#2C2420" fill="none" stroke-width="1.5" stroke-linecap="round" stroke-linejoin="round"/>
  <line x1="287" y1="260" x2="287" y2="345" stroke="#2C2420" fill="none" stroke-width="1.5" stroke-linecap="round" stroke-linejoin="round"/>
  <line x1="306" y1="260" x2="306" y2="345" stroke="#2C2420" fill="none" stroke-width="1.5" stroke-linecap="round" stroke-linejoin="round"/>
  <line x1="315" y1="260" x2="315" y2="345" stroke="#2C2420" fill="none" stroke-width="1.5" stroke-linecap="round" stroke-linejoin="round"/>
  <!-- Pediment over entrance -->
  <polygon points="268,260 297,240 326,260" stroke="#2C2420" fill="none" stroke-width="1.5" stroke-linecap="round" stroke-linejoin="round"/>
  <!-- Upper cornice -->
  <rect x="243" y="216" width="109" height="4" stroke="#2C2420" fill="none" stroke-width="1" stroke-linecap="round" stroke-linejoin="round"/>
  <!-- Upper windows -->
  <rect x="250" y="228" width="12" height="18" stroke="#2C2420" fill="none" stroke-width="0.8" stroke-linecap="round" stroke-linejoin="round"/>
  <rect x="332" y="228" width="12" height="18" stroke="#2C2420" fill="none" stroke-width="0.8" stroke-linecap="round" stroke-linejoin="round"/>
  <rect x="250" y="260" width="12" height="18" stroke="#2C2420" fill="none" stroke-width="0.8" stroke-linecap="round" stroke-linejoin="round"/>
  <rect x="332" y="260" width="12" height="18" stroke="#2C2420" fill="none" stroke-width="0.8" stroke-linecap="round" stroke-linejoin="round"/>
  <rect x="250" y="292" width="12" height="18" stroke="#2C2420" fill="none" stroke-width="0.8" stroke-linecap="round" stroke-linejoin="round"/>
  <rect x="332" y="292" width="12" height="18" stroke="#2C2420" fill="none" stroke-width="0.8" stroke-linecap="round" stroke-linejoin="round"/>

  <!-- ========== BODE MUSEUM (rightmost, with dome at island tip) ========== -->
  <!-- Main body -->
  <rect x="380" y="215" width="90" height="135" stroke="#2C2420" fill="none" stroke-width="1.5" stroke-linecap="round" stroke-linejoin="round"/>
  <!-- Dome -->
  <path d="M400,215 Q425,175 450,215" stroke="#2C2420" fill="none" stroke-width="2" stroke-linecap="round" stroke-linejoin="round"/>
  <!-- Dome ribs -->
  <path d="M410,213 Q425,185 440,213" stroke="#2C2420" fill="none" stroke-width="0.8" stroke-linecap="round" stroke-linejoin="round"/>
  <path d="M420,212 Q425,192 430,212" stroke="#2C2420" fill="none" stroke-width="0.8" stroke-linecap="round" stroke-linejoin="round"/>
  <!-- Lantern -->
  <rect x="422" y="178" width="6" height="8" stroke="#2C2420" fill="none" stroke-width="0.8" stroke-linecap="round" stroke-linejoin="round"/>
  <path d="M422,178 Q425,173 428,178" stroke="#2C2420" fill="none" stroke-width="0.8" stroke-linecap="round" stroke-linejoin="round"/>
  <!-- Dome drum -->
  <rect x="398" y="210" width="54" height="8" stroke="#2C2420" fill="none" stroke-width="1" stroke-linecap="round" stroke-linejoin="round"/>
  <!-- Rounded front (island tip) -->
  <path d="M470,215 Q490,250 490,285 Q490,320 470,350" stroke="#2C2420" fill="none" stroke-width="1.5" stroke-linecap="round" stroke-linejoin="round"/>
  <!-- Entrance columns at front -->
  <line x1="460" y1="240" x2="460" y2="345" stroke="#2C2420" fill="none" stroke-width="1" stroke-linecap="round" stroke-linejoin="round"/>
  <line x1="468" y1="240" x2="468" y2="345" stroke="#2C2420" fill="none" stroke-width="1" stroke-linecap="round" stroke-linejoin="round"/>
  <!-- Windows -->
  <path d="M388,228 Q393,223 398,228 L398,248 L388,248 Z" stroke="#2C2420" fill="none" stroke-width="0.8" stroke-linecap="round" stroke-linejoin="round"/>
  <path d="M408,228 Q413,223 418,228 L418,248 L408,248 Z" stroke="#2C2420" fill="none" stroke-width="0.8" stroke-linecap="round" stroke-linejoin="round"/>
  <path d="M428,228 Q433,223 438,228 L438,248 L428,248 Z" stroke="#2C2420" fill="none" stroke-width="0.8" stroke-linecap="round" stroke-linejoin="round"/>
  <path d="M448,228 Q453,223 458,228 L458,248 L448,248 Z" stroke="#2C2420" fill="none" stroke-width="0.8" stroke-linecap="round" stroke-linejoin="round"/>
  <rect x="388" y="260" width="10" height="16" stroke="#2C2420" fill="none" stroke-width="0.8" stroke-linecap="round" stroke-linejoin="round"/>
  <rect x="408" y="260" width="10" height="16" stroke="#2C2420" fill="none" stroke-width="0.8" stroke-linecap="round" stroke-linejoin="round"/>
  <rect x="428" y="260" width="10" height="16" stroke="#2C2420" fill="none" stroke-width="0.8" stroke-linecap="round" stroke-linejoin="round"/>
  <rect x="448" y="260" width="10" height="16" stroke="#2C2420" fill="none" stroke-width="0.8" stroke-linecap="round" stroke-linejoin="round"/>
  <rect x="388" y="300" width="10" height="16" stroke="#2C2420" fill="none" stroke-width="0.8" stroke-linecap="round" stroke-linejoin="round"/>
  <rect x="408" y="300" width="10" height="16" stroke="#2C2420" fill="none" stroke-width="0.8" stroke-linecap="round" stroke-linejoin="round"/>
  <rect x="428" y="300" width="10" height="16" stroke="#2C2420" fill="none" stroke-width="0.8" stroke-linecap="round" stroke-linejoin="round"/>
  <rect x="448" y="300" width="10" height="16" stroke="#2C2420" fill="none" stroke-width="0.8" stroke-linecap="round" stroke-linejoin="round"/>

  <!-- ========== LUSTGARTEN PARK (trees in front of buildings) ========== -->
  <!-- Tree 1 -->
  <line x1="175" y1="350" x2="175" y2="330" stroke="#2C2420" fill="none" stroke-width="1.5" stroke-linecap="round" stroke-linejoin="round"/>
  <circle cx="175" cy="322" r="12" stroke="#2C2420" fill="none" stroke-width="1" stroke-linecap="round" stroke-linejoin="round"/>
  <circle cx="168" cy="328" r="8" stroke="#2C2420" fill="none" stroke-width="1" stroke-linecap="round" stroke-linejoin="round"/>
  <circle cx="182" cy="328" r="8" stroke="#2C2420" fill="none" stroke-width="1" stroke-linecap="round" stroke-linejoin="round"/>
  <!-- Tree 2 -->
  <line x1="230" y1="350" x2="230" y2="325" stroke="#2C2420" fill="none" stroke-width="1.5" stroke-linecap="round" stroke-linejoin="round"/>
  <circle cx="230" cy="318" r="10" stroke="#2C2420" fill="none" stroke-width="1" stroke-linecap="round" stroke-linejoin="round"/>
  <circle cx="222" cy="322" r="7" stroke="#2C2420" fill="none" stroke-width="1" stroke-linecap="round" stroke-linejoin="round"/>
  <circle cx="238" cy="322" r="7" stroke="#2C2420" fill="none" stroke-width="1" stroke-linecap="round" stroke-linejoin="round"/>
  <!-- Tree 3 -->
  <line x1="360" y1="350" x2="360" y2="328" stroke="#2C2420" fill="none" stroke-width="1.5" stroke-linecap="round" stroke-linejoin="round"/>
  <circle cx="360" cy="320" r="11" stroke="#2C2420" fill="none" stroke-width="1" stroke-linecap="round" stroke-linejoin="round"/>
  <circle cx="352" cy="325" r="8" stroke="#2C2420" fill="none" stroke-width="1" stroke-linecap="round" stroke-linejoin="round"/>
  <circle cx="368" cy="325" r="8" stroke="#2C2420" fill="none" stroke-width="1" stroke-linecap="round" stroke-linejoin="round"/>
  <!-- Tree 4 -->
  <line x1="415" y1="350" x2="415" y2="332" stroke="#2C2420" fill="none" stroke-width="1.5" stroke-linecap="round" stroke-linejoin="round"/>
  <circle cx="415" cy="325" r="9" stroke="#2C2420" fill="none" stroke-width="1" stroke-linecap="round" stroke-linejoin="round"/>
  <circle cx="408" cy="330" r="7" stroke="#2C2420" fill="none" stroke-width="1" stroke-linecap="round" stroke-linejoin="round"/>
  <circle cx="422" cy="330" r="7" stroke="#2C2420" fill="none" stroke-width="1" stroke-linecap="round" stroke-linejoin="round"/>

  <!-- Riverbank trees -->
  <line x1="80" y1="360" x2="80" y2="340" stroke="#2C2420" fill="none" stroke-width="1" stroke-linecap="round" stroke-linejoin="round"/>
  <circle cx="80" cy="334" r="8" stroke="#2C2420" fill="none" stroke-width="1" stroke-linecap="round" stroke-linejoin="round"/>
  <line x1="500" y1="355" x2="500" y2="335" stroke="#2C2420" fill="none" stroke-width="1" stroke-linecap="round" stroke-linejoin="round"/>
  <circle cx="500" cy="328" r="10" stroke="#2C2420" fill="none" stroke-width="1" stroke-linecap="round" stroke-linejoin="round"/>
  <line x1="530" y1="358" x2="530" y2="340" stroke="#2C2420" fill="none" stroke-width="1" stroke-linecap="round" stroke-linejoin="round"/>
  <circle cx="530" cy="334" r="7" stroke="#2C2420" fill="none" stroke-width="1" stroke-linecap="round" stroke-linejoin="round"/>

  <!-- ========== ISLAND EDGE / RIVERBANK ========== -->
  <path d="M40,360 Q100,355 200,358 Q300,362 400,358 Q470,354 490,360 Q520,365 560,358" stroke="#2C2420" fill="none" stroke-width="2" stroke-linecap="round" stroke-linejoin="round"/>
  <!-- Stone wall along riverbank -->
  <path d="M40,370 Q100,365 200,368 Q300,372 400,368 Q470,364 490,370 Q520,375 560,368" stroke="#2C2420" fill="none" stroke-width="1.5" stroke-linecap="round" stroke-linejoin="round"/>
  <!-- Stone texture -->
  <line x1="80" y1="362" x2="80" y2="368" stroke="#2C2420" fill="none" stroke-width="0.5" stroke-linecap="round" stroke-linejoin="round"/>
  <line x1="110" y1="361" x2="110" y2="367" stroke="#2C2420" fill="none" stroke-width="0.5" stroke-linecap="round" stroke-linejoin="round"/>
  <line x1="140" y1="362" x2="140" y2="368" stroke="#2C2420" fill="none" stroke-width="0.5" stroke-linecap="round" stroke-linejoin="round"/>
  <line x1="170" y1="361" x2="170" y2="368" stroke="#2C2420" fill="none" stroke-width="0.5" stroke-linecap="round" stroke-linejoin="round"/>
  <line x1="200" y1="362" x2="200" y2="369" stroke="#2C2420" fill="none" stroke-width="0.5" stroke-linecap="round" stroke-linejoin="round"/>
  <line x1="230" y1="363" x2="230" y2="370" stroke="#2C2420" fill="none" stroke-width="0.5" stroke-linecap="round" stroke-linejoin="round"/>
  <line x1="260" y1="364" x2="260" y2="371" stroke="#2C2420" fill="none" stroke-width="0.5" stroke-linecap="round" stroke-linejoin="round"/>
  <line x1="290" y1="365" x2="290" y2="372" stroke="#2C2420" fill="none" stroke-width="0.5" stroke-linecap="round" stroke-linejoin="round"/>
  <line x1="320" y1="364" x2="320" y2="371" stroke="#2C2420" fill="none" stroke-width="0.5" stroke-linecap="round" stroke-linejoin="round"/>
  <line x1="350" y1="363" x2="350" y2="370" stroke="#2C2420" fill="none" stroke-width="0.5" stroke-linecap="round" stroke-linejoin="round"/>
  <line x1="380" y1="362" x2="380" y2="368" stroke="#2C2420" fill="none" stroke-width="0.5" stroke-linecap="round" stroke-linejoin="round"/>
  <line x1="410" y1="361" x2="410" y2="367" stroke="#2C2420" fill="none" stroke-width="0.5" stroke-linecap="round" stroke-linejoin="round"/>
  <line x1="440" y1="360" x2="440" y2="366" stroke="#2C2420" fill="none" stroke-width="0.5" stroke-linecap="round" stroke-linejoin="round"/>
  <line x1="470" y1="358" x2="470" y2="365" stroke="#2C2420" fill="none" stroke-width="0.5" stroke-linecap="round" stroke-linejoin="round"/>
  <line x1="500" y1="362" x2="500" y2="369" stroke="#2C2420" fill="none" stroke-width="0.5" stroke-linecap="round" stroke-linejoin="round"/>
  <line x1="530" y1="365" x2="530" y2="372" stroke="#2C2420" fill="none" stroke-width="0.5" stroke-linecap="round" stroke-linejoin="round"/>

  <!-- ========== SPREE RIVER ========== -->
  <!-- Water surface ripples -->
  <path d="M40,395 Q60,390 80,395" stroke="#2C2420" fill="none" stroke-width="1" stroke-linecap="round" stroke-linejoin="round"/>
  <path d="M100,400 Q120,395 140,400" stroke="#2C2420" fill="none" stroke-width="1" stroke-linecap="round" stroke-linejoin="round"/>
  <path d="M160,392 Q180,387 200,392" stroke="#2C2420" fill="none" stroke-width="1" stroke-linecap="round" stroke-linejoin="round"/>
  <path d="M220,398 Q240,393 260,398" stroke="#2C2420" fill="none" stroke-width="1" stroke-linecap="round" stroke-linejoin="round"/>
  <path d="M280,395 Q300,390 320,395" stroke="#2C2420" fill="none" stroke-width="1" stroke-linecap="round" stroke-linejoin="round"/>
  <path d="M340,400 Q360,395 380,400" stroke="#2C2420" fill="none" stroke-width="1" stroke-linecap="round" stroke-linejoin="round"/>
  <path d="M400,393 Q420,388 440,393" stroke="#2C2420" fill="none" stroke-width="1" stroke-linecap="round" stroke-linejoin="round"/>
  <path d="M460,398 Q480,393 500,398" stroke="#2C2420" fill="none" stroke-width="1" stroke-linecap="round" stroke-linejoin="round"/>
  <path d="M520,395 Q540,390 560,395" stroke="#2C2420" fill="none" stroke-width="1" stroke-linecap="round" stroke-linejoin="round"/>
  <!-- More ripples -->
  <path d="M60,415 Q80,410 100,415" stroke="#2C2420" fill="none" stroke-width="0.8" stroke-linecap="round" stroke-linejoin="round"/>
  <path d="M140,420 Q160,415 180,420" stroke="#2C2420" fill="none" stroke-width="0.8" stroke-linecap="round" stroke-linejoin="round"/>
  <path d="M220,412 Q240,407 260,412" stroke="#2C2420" fill="none" stroke-width="0.8" stroke-linecap="round" stroke-linejoin="round"/>
  <path d="M300,418 Q320,413 340,418" stroke="#2C2420" fill="none" stroke-width="0.8" stroke-linecap="round" stroke-linejoin="round"/>
  <path d="M380,415 Q400,410 420,415" stroke="#2C2420" fill="none" stroke-width="0.8" stroke-linecap="round" stroke-linejoin="round"/>
  <path d="M460,420 Q480,415 500,420" stroke="#2C2420" fill="none" stroke-width="0.8" stroke-linecap="round" stroke-linejoin="round"/>
  <!-- Row 3 ripples -->
  <path d="M80,435 Q100,430 120,435" stroke="#2C2420" fill="none" stroke-width="0.8" stroke-linecap="round" stroke-linejoin="round"/>
  <path d="M180,440 Q200,435 220,440" stroke="#2C2420" fill="none" stroke-width="0.8" stroke-linecap="round" stroke-linejoin="round"/>
  <path d="M280,432 Q300,427 320,432" stroke="#2C2420" fill="none" stroke-width="0.8" stroke-linecap="round" stroke-linejoin="round"/>
  <path d="M400,438 Q420,433 440,438" stroke="#2C2420" fill="none" stroke-width="0.8" stroke-linecap="round" stroke-linejoin="round"/>
  <path d="M500,435 Q520,430 540,435" stroke="#2C2420" fill="none" stroke-width="0.8" stroke-linecap="round" stroke-linejoin="round"/>
  <!-- Row 4 ripples -->
  <path d="M50,455 Q70,450 90,455" stroke="#2C2420" fill="none" stroke-width="0.8" stroke-linecap="round" stroke-linejoin="round"/>
  <path d="M150,458 Q170,453 190,458" stroke="#2C2420" fill="none" stroke-width="0.8" stroke-linecap="round" stroke-linejoin="round"/>
  <path d="M250,452 Q270,447 290,452" stroke="#2C2420" fill="none" stroke-width="0.8" stroke-linecap="round" stroke-linejoin="round"/>
  <path d="M350,458 Q370,453 390,458" stroke="#2C2420" fill="none" stroke-width="0.8" stroke-linecap="round" stroke-linejoin="round"/>
  <path d="M450,455 Q470,450 490,455" stroke="#2C2420" fill="none" stroke-width="0.8" stroke-linecap="round" stroke-linejoin="round"/>

  <!-- ========== TOUR BOAT ========== -->
  <!-- Hull -->
  <path d="M180,470 L320,470 Q330,475 320,480 L180,480 Q170,475 180,470" stroke="#2C2420" fill="none" stroke-width="1.5" stroke-linecap="round" stroke-linejoin="round"/>
  <!-- Cabin -->
  <rect x="200" y="455" width="100" height="15" stroke="#2C2420" fill="none" stroke-width="1.5" stroke-linecap="round" stroke-linejoin="round"/>
  <!-- Cabin windows -->
  <rect x="208" y="458" width="8" height="8" stroke="#2C2420" fill="none" stroke-width="0.8" stroke-linecap="round" stroke-linejoin="round"/>
  <rect x="220" y="458" width="8" height="8" stroke="#2C2420" fill="none" stroke-width="0.8" stroke-linecap="round" stroke-linejoin="round"/>
  <rect x="232" y="458" width="8" height="8" stroke="#2C2420" fill="none" stroke-width="0.8" stroke-linecap="round" stroke-linejoin="round"/>
  <rect x="244" y="458" width="8" height="8" stroke="#2C2420" fill="none" stroke-width="0.8" stroke-linecap="round" stroke-linejoin="round"/>
  <rect x="256" y="458" width="8" height="8" stroke="#2C2420" fill="none" stroke-width="0.8" stroke-linecap="round" stroke-linejoin="round"/>
  <rect x="268" y="458" width="8" height="8" stroke="#2C2420" fill="none" stroke-width="0.8" stroke-linecap="round" stroke-linejoin="round"/>
  <rect x="280" y="458" width="8" height="8" stroke="#2C2420" fill="none" stroke-width="0.8" stroke-linecap="round" stroke-linejoin="round"/>
  <!-- Cabin roof -->
  <path d="M198,455 Q250,448 302,455" stroke="#2C2420" fill="none" stroke-width="1" stroke-linecap="round" stroke-linejoin="round"/>
  <!-- Wheelhouse -->
  <rect x="306" y="460" width="12" height="10" stroke="#2C2420" fill="none" stroke-width="1" stroke-linecap="round" stroke-linejoin="round"/>
  <!-- Flag -->
  <line x1="312" y1="460" x2="312" y2="448" stroke="#2C2420" fill="none" stroke-width="0.8" stroke-linecap="round" stroke-linejoin="round"/>
  <path d="M312,448 L322,452 L312,456" stroke="#2C2420" fill="none" stroke-width="0.8" stroke-linecap="round" stroke-linejoin="round"/>
  <!-- Wake behind boat -->
  <path d="M170,475 Q160,475 150,478" stroke="#2C2420" fill="none" stroke-width="0.8" stroke-linecap="round" stroke-linejoin="round"/>
  <path d="M170,478 Q158,480 145,484" stroke="#2C2420" fill="none" stroke-width="0.8" stroke-linecap="round" stroke-linejoin="round"/>

  <!-- ========== NEAR RIVERBANK (viewer's side) ========== -->
  <path d="M40,500 Q150,505 300,502 Q450,498 560,505" stroke="#2C2420" fill="none" stroke-width="2" stroke-linecap="round" stroke-linejoin="round"/>
  <!-- Stone wall -->
  <path d="M40,510 Q150,515 300,512 Q450,508 560,515" stroke="#2C2420" fill="none" stroke-width="1.5" stroke-linecap="round" stroke-linejoin="round"/>
  <!-- Railing posts -->
  <line x1="60" y1="490" x2="60" y2="505" stroke="#2C2420" fill="none" stroke-width="1.5" stroke-linecap="round" stroke-linejoin="round"/>
  <line x1="100" y1="490" x2="100" y2="505" stroke="#2C2420" fill="none" stroke-width="1.5" stroke-linecap="round" stroke-linejoin="round"/>
  <line x1="140" y1="490" x2="140" y2="505" stroke="#2C2420" fill="none" stroke-width="1.5" stroke-linecap="round" stroke-linejoin="round"/>
  <line x1="180" y1="490" x2="180" y2="505" stroke="#2C2420" fill="none" stroke-width="1.5" stroke-linecap="round" stroke-linejoin="round"/>
  <line x1="220" y1="490" x2="220" y2="504" stroke="#2C2420" fill="none" stroke-width="1.5" stroke-linecap="round" stroke-linejoin="round"/>
  <line x1="260" y1="490" x2="260" y2="503" stroke="#2C2420" fill="none" stroke-width="1.5" stroke-linecap="round" stroke-linejoin="round"/>
  <line x1="300" y1="490" x2="300" y2="502" stroke="#2C2420" fill="none" stroke-width="1.5" stroke-linecap="round" stroke-linejoin="round"/>
  <line x1="340" y1="490" x2="340" y2="501" stroke="#2C2420" fill="none" stroke-width="1.5" stroke-linecap="round" stroke-linejoin="round"/>
  <line x1="380" y1="490" x2="380" y2="500" stroke="#2C2420" fill="none" stroke-width="1.5" stroke-linecap="round" stroke-linejoin="round"/>
  <line x1="420" y1="490" x2="420" y2="500" stroke="#2C2420" fill="none" stroke-width="1.5" stroke-linecap="round" stroke-linejoin="round"/>
  <line x1="460" y1="490" x2="460" y2="502" stroke="#2C2420" fill="none" stroke-width="1.5" stroke-linecap="round" stroke-linejoin="round"/>
  <line x1="500" y1="490" x2="500" y2="504" stroke="#2C2420" fill="none" stroke-width="1.5" stroke-linecap="round" stroke-linejoin="round"/>
  <line x1="540" y1="490" x2="540" y2="506" stroke="#2C2420" fill="none" stroke-width="1.5" stroke-linecap="round" stroke-linejoin="round"/>
  <!-- Railing bar -->
  <path d="M60,492 L540,492" stroke="#2C2420" fill="none" stroke-width="1" stroke-linecap="round" stroke-linejoin="round"/>

  <!-- ========== FOREGROUND TREES (viewer's side) ========== -->
  <!-- Tree left -->
  <line x1="70" y1="510" x2="70" y2="530" stroke="#2C2420" fill="none" stroke-width="2" stroke-linecap="round" stroke-linejoin="round"/>
  <path d="M55,530 Q70,515 85,530" stroke="#2C2420" fill="none" stroke-width="1" stroke-linecap="round" stroke-linejoin="round"/>
  <path d="M50,540 Q70,525 90,540" stroke="#2C2420" fill="none" stroke-width="1" stroke-linecap="round" stroke-linejoin="round"/>
  <!-- Tree right -->
  <line x1="520" y1="510" x2="520" y2="535" stroke="#2C2420" fill="none" stroke-width="2" stroke-linecap="round" stroke-linejoin="round"/>
  <path d="M505,535 Q520,520 535,535" stroke="#2C2420" fill="none" stroke-width="1" stroke-linecap="round" stroke-linejoin="round"/>
  <path d="M500,545 Q520,530 540,545" stroke="#2C2420" fill="none" stroke-width="1" stroke-linecap="round" stroke-linejoin="round"/>

  <!-- Reflection hints in water -->
  <line x1="295" y1="385" x2="295" y2="395" stroke="#2C2420" fill="none" stroke-width="0.5" stroke-linecap="round" stroke-linejoin="round" stroke-dasharray="2,3"/>
  <line x1="300" y1="380" x2="300" y2="392" stroke="#2C2420" fill="none" stroke-width="0.5" stroke-linecap="round" stroke-linejoin="round" stroke-dasharray="2,3"/>
  <line x1="425" y1="378" x2="425" y2="390" stroke="#2C2420" fill="none" stroke-width="0.5" stroke-linecap="round" stroke-linejoin="round" stroke-dasharray="2,3"/>
  <line x1="105" y1="380" x2="105" y2="392" stroke="#2C2420" fill="none" stroke-width="0.5" stroke-linecap="round" stroke-linejoin="round" stroke-dasharray="2,3"/>

  <text x="297.5" y="820" text-anchor="middle" font-family="sans-serif" font-size="8" fill="#C4B8AB">berlinbabysitter.com</text>
</svg>