<svg xmlns="http://www.w3.org/2000/svg" viewBox="0 0 595 842" width="595" height="842" style="background: white">
  <title>German Pretzel Coloring Page</title>

  <!-- Bottom thick arc -->
  <path d="M100 620 C100 740, 297 800, 297 800 C297 800, 494 740, 494 620" stroke="#2C2420" fill="none" stroke-width="8" stroke-linecap="round" stroke-linejoin="round"/>
  <!-- Inner bottom arc -->
  <path d="M148 608 C148 710, 297 760, 297 760 C297 760, 446 710, 446 608" stroke="#2C2420" fill="none" stroke-width="8" stroke-linecap="round" stroke-linejoin="round"/>
  <!-- Connect bottom arcs -->
  <path d="M100 620 C96 613, 132 600, 148 608" stroke="#2C2420" fill="none" stroke-width="8" stroke-linecap="round" stroke-linejoin="round"/>
  <path d="M494 620 C498 613, 462 600, 446 608" stroke="#2C2420" fill="none" stroke-width="8" stroke-linecap="round" stroke-linejoin="round"/>

  <!-- Left loop -->
  <ellipse cx="175" cy="400" rx="130" ry="155" stroke="#2C2420" fill="none" stroke-width="8" stroke-linecap="round" stroke-linejoin="round"/>
  <ellipse cx="175" cy="388" rx="70" ry="90" stroke="#2C2420" fill="none" stroke-width="7" stroke-linecap="round" stroke-linejoin="round"/>

  <!-- Right loop -->
  <ellipse cx="420" cy="400" rx="130" ry="155" stroke="#2C2420" fill="none" stroke-width="8" stroke-linecap="round" stroke-linejoin="round"/>
  <ellipse cx="420" cy="388" rx="70" ry="90" stroke="#2C2420" fill="none" stroke-width="7" stroke-linecap="round" stroke-linejoin="round"/>

  <!-- Left arm crossing up -->
  <path d="M108 300 C100 240, 155 175, 235 150 C285 136, 345 138, 385 160" stroke="#2C2420" fill="none" stroke-width="8" stroke-linecap="round" stroke-linejoin="round"/>
  <path d="M487 300 C495 240, 440 175, 360 150 C310 136, 250 138, 210 160" stroke="#2C2420" fill="none" stroke-width="8" stroke-linecap="round" stroke-linejoin="round"/>
  <!-- Inner edges -->
  <path d="M140 288 C135 240, 178 190, 240 172 C278 162, 326 163, 358 178" stroke="#2C2420" fill="none" stroke-width="7" stroke-linecap="round" stroke-linejoin="round"/>
  <path d="M455 288 C460 240, 417 190, 355 172 C317 162, 269 163, 237 178" stroke="#2C2420" fill="none" stroke-width="7" stroke-linecap="round" stroke-linejoin="round"/>

  <!-- Knot tips -->
  <path d="M385 160 C402 172, 408 190, 404 205" stroke="#2C2420" fill="none" stroke-width="7" stroke-linecap="round" stroke-linejoin="round"/>
  <path d="M358 178 C373 186, 380 202, 377 218" stroke="#2C2420" fill="none" stroke-width="7" stroke-linecap="round" stroke-linejoin="round"/>
  <path d="M210 160 C193 172, 187 190, 191 205" stroke="#2C2420" fill="none" stroke-width="7" stroke-linecap="round" stroke-linejoin="round"/>
  <path d="M237 178 C222 186, 215 202, 218 218" stroke="#2C2420" fill="none" stroke-width="7" stroke-linecap="round" stroke-linejoin="round"/>

  <!-- Salt dots -->
  <circle cx="297" cy="770" r="12" stroke="#2C2420" fill="none" stroke-width="5"/>
  <circle cx="230" cy="730" r="10" stroke="#2C2420" fill="none" stroke-width="5"/>
  <circle cx="365" cy="735" r="10" stroke="#2C2420" fill="none" stroke-width="5"/>
  <circle cx="160" cy="660" r="10" stroke="#2C2420" fill="none" stroke-width="5"/>
  <circle cx="435" cy="655" r="10" stroke="#2C2420" fill="none" stroke-width="5"/>
  <circle cx="130" cy="420" r="11" stroke="#2C2420" fill="none" stroke-width="5"/>
  <circle cx="465" cy="415" r="11" stroke="#2C2420" fill="none" stroke-width="5"/>
  <circle cx="265" cy="160" r="9" stroke="#2C2420" fill="none" stroke-width="5"/>
  <circle cx="330" cy="165" r="9" stroke="#2C2420" fill="none" stroke-width="5"/>
  <circle cx="195" cy="560" r="10" stroke="#2C2420" fill="none" stroke-width="5"/>
  <circle cx="400" cy="555" r="10" stroke="#2C2420" fill="none" stroke-width="5"/>
  <circle cx="297" cy="680" r="11" stroke="#2C2420" fill="none" stroke-width="5"/>

  <!-- Steam lines -->
  <path d="M215 110 C208 82, 228 72, 222 44 C216 16, 235 5, 228 -10" stroke="#2C2420" fill="none" stroke-width="6" stroke-linecap="round"/>
  <path d="M297 95 C290 67, 310 57, 304 29 C298 1, 317 -10, 310 -25" stroke="#2C2420" fill="none" stroke-width="6" stroke-linecap="round"/>
  <path d="M379 110 C372 82, 392 72, 386 44 C380 16, 399 5, 392 -10" stroke="#2C2420" fill="none" stroke-width="6" stroke-linecap="round"/>

  <text x="297.5" y="830" text-anchor="middle" font-family="sans-serif" font-size="8" fill="#C4B8AB">berlinbabysitter.com</text>
</svg>
