<svg xmlns="http://www.w3.org/2000/svg" viewBox="0 0 595 842" width="595" height="842" style="background: white">
  <title>Berlin Street with Bikes Coloring Page</title>

  <!-- Sky -->
  <path d="M40 40 C45 32, 55 32, 60 40" stroke="#2C2420" fill="none" stroke-width="2" stroke-linecap="round"/>
  <path d="M310 30 C315 22, 325 22, 330 30" stroke="#2C2420" fill="none" stroke-width="2" stroke-linecap="round"/>

  <!-- Left building -->
  <rect x="20" y="80" width="180" height="620" stroke="#2C2420" fill="none" stroke-width="4"/>
  <!-- Roof detail -->
  <path d="M20 80 L110 40 L200 80" stroke="#2C2420" fill="none" stroke-width="4" stroke-linecap="round" stroke-linejoin="round"/>
  <!-- Chimney -->
  <rect x="60" y="45" width="20" height="35" stroke="#2C2420" fill="none" stroke-width="3"/>
  <!-- Windows row 1 -->
  <rect x="40" y="110" width="35" height="50" rx="3" stroke="#2C2420" fill="none" stroke-width="3"/>
  <rect x="92" y="110" width="35" height="50" rx="3" stroke="#2C2420" fill="none" stroke-width="3"/>
  <rect x="145" y="110" width="35" height="50" rx="3" stroke="#2C2420" fill="none" stroke-width="3"/>
  <!-- Windows row 2 -->
  <rect x="40" y="190" width="35" height="50" rx="3" stroke="#2C2420" fill="none" stroke-width="3"/>
  <rect x="92" y="190" width="35" height="50" rx="3" stroke="#2C2420" fill="none" stroke-width="3"/>
  <rect x="145" y="190" width="35" height="50" rx="3" stroke="#2C2420" fill="none" stroke-width="3"/>
  <!-- Windows row 3 -->
  <rect x="40" y="270" width="35" height="50" rx="3" stroke="#2C2420" fill="none" stroke-width="3"/>
  <rect x="92" y="270" width="35" height="50" rx="3" stroke="#2C2420" fill="none" stroke-width="3"/>
  <rect x="145" y="270" width="35" height="50" rx="3" stroke="#2C2420" fill="none" stroke-width="3"/>
  <!-- Windows row 4 -->
  <rect x="40" y="350" width="35" height="50" rx="3" stroke="#2C2420" fill="none" stroke-width="3"/>
  <rect x="92" y="350" width="35" height="50" rx="3" stroke="#2C2420" fill="none" stroke-width="3"/>
  <rect x="145" y="350" width="35" height="50" rx="3" stroke="#2C2420" fill="none" stroke-width="3"/>
  <!-- Cat in window -->
  <path d="M148 380 C152 372, 155 375, 158 380 C161 375, 164 372, 168 380 C168 388, 158 395, 158 395 C158 395, 148 388, 148 380 Z" stroke="#2C2420" fill="none" stroke-width="2"/>
  <!-- Windows row 5 -->
  <rect x="40" y="430" width="35" height="50" rx="3" stroke="#2C2420" fill="none" stroke-width="3"/>
  <rect x="92" y="430" width="35" height="50" rx="3" stroke="#2C2420" fill="none" stroke-width="3"/>
  <rect x="145" y="430" width="35" height="50" rx="3" stroke="#2C2420" fill="none" stroke-width="3"/>
  <!-- Balcony on one window -->
  <rect x="85" y="480" width="48" height="5" stroke="#2C2420" fill="none" stroke-width="2"/>
  <line x1="90" y1="480" x2="90" y2="500" stroke="#2C2420" fill="none" stroke-width="2" stroke-linecap="round"/>
  <line x1="128" y1="480" x2="128" y2="500" stroke="#2C2420" fill="none" stroke-width="2" stroke-linecap="round"/>
  <line x1="85" y1="500" x2="133" y2="500" stroke="#2C2420" fill="none" stroke-width="2"/>
  <!-- Flower box -->
  <rect x="92" y="492" width="35" height="8" rx="2" stroke="#2C2420" fill="none" stroke-width="2"/>
  <path d="M100 492 C100 485, 105 482, 108 488" stroke="#2C2420" fill="none" stroke-width="2"/>
  <path d="M115 492 C115 483, 120 480, 122 488" stroke="#2C2420" fill="none" stroke-width="2"/>
  <!-- Door -->
  <rect x="80" y="580" width="55" height="120" rx="5" stroke="#2C2420" fill="none" stroke-width="4"/>
  <path d="M80 580 Q107 560, 135 580" stroke="#2C2420" fill="none" stroke-width="3" stroke-linecap="round"/>
  <circle cx="125" cy="645" r="4" fill="#2C2420"/>
  <!-- House number -->
  <rect x="140" y="595" width="22" height="16" rx="2" stroke="#2C2420" fill="none" stroke-width="2"/>

  <!-- Right building (Späti) -->
  <rect x="380" y="120" width="195" height="580" stroke="#2C2420" fill="none" stroke-width="4"/>
  <!-- Flat roof -->
  <line x1="380" y1="120" x2="575" y2="120" stroke="#2C2420" fill="none" stroke-width="4"/>
  <!-- Windows row 1 -->
  <rect x="400" y="145" width="35" height="45" rx="3" stroke="#2C2420" fill="none" stroke-width="3"/>
  <rect x="450" y="145" width="35" height="45" rx="3" stroke="#2C2420" fill="none" stroke-width="3"/>
  <rect x="520" y="145" width="35" height="45" rx="3" stroke="#2C2420" fill="none" stroke-width="3"/>
  <!-- Windows row 2 -->
  <rect x="400" y="215" width="35" height="45" rx="3" stroke="#2C2420" fill="none" stroke-width="3"/>
  <rect x="450" y="215" width="35" height="45" rx="3" stroke="#2C2420" fill="none" stroke-width="3"/>
  <rect x="520" y="215" width="35" height="45" rx="3" stroke="#2C2420" fill="none" stroke-width="3"/>
  <!-- Windows row 3 -->
  <rect x="400" y="285" width="35" height="45" rx="3" stroke="#2C2420" fill="none" stroke-width="3"/>
  <rect x="450" y="285" width="35" height="45" rx="3" stroke="#2C2420" fill="none" stroke-width="3"/>
  <rect x="520" y="285" width="35" height="45" rx="3" stroke="#2C2420" fill="none" stroke-width="3"/>
  <!-- Windows row 4 -->
  <rect x="400" y="355" width="35" height="45" rx="3" stroke="#2C2420" fill="none" stroke-width="3"/>
  <rect x="450" y="355" width="35" height="45" rx="3" stroke="#2C2420" fill="none" stroke-width="3"/>
  <rect x="520" y="355" width="35" height="45" rx="3" stroke="#2C2420" fill="none" stroke-width="3"/>

  <!-- Späti storefront -->
  <rect x="388" y="440" width="180" height="260" stroke="#2C2420" fill="none" stroke-width="4"/>
  <!-- Awning -->
  <path d="M383" y1="440" stroke="#2C2420" fill="none" stroke-width="4" stroke-linecap="round"/>
  <path d="M385 440 Q430 455, 478 440 Q525 455, 572 440" stroke="#2C2420" fill="none" stroke-width="3" stroke-linecap="round"/>
  <!-- Shop sign -->
  <rect x="420" y="448" width="115" height="25" rx="4" stroke="#2C2420" fill="none" stroke-width="3"/>
  <!-- Display window -->
  <rect x="395" y="490" width="80" height="100" rx="3" stroke="#2C2420" fill="none" stroke-width="3"/>
  <!-- Items in window -->
  <rect x="405" y="555" width="12" height="25" rx="2" stroke="#2C2420" fill="none" stroke-width="2"/>
  <rect x="422" y="550" width="12" height="30" rx="2" stroke="#2C2420" fill="none" stroke-width="2"/>
  <rect x="439" y="558" width="12" height="22" rx="2" stroke="#2C2420" fill="none" stroke-width="2"/>
  <rect x="456" y="552" width="12" height="28" rx="2" stroke="#2C2420" fill="none" stroke-width="2"/>
  <!-- Späti door -->
  <rect x="490" y="500" width="65" height="200" rx="4" stroke="#2C2420" fill="none" stroke-width="4"/>
  <circle cx="500" cy="605" r="4" fill="#2C2420"/>
  <!-- Open sign -->
  <rect x="498" y="530" width="42" height="15" rx="3" stroke="#2C2420" fill="none" stroke-width="2"/>
  <!-- Ice cream sign -->
  <path d="M575 500 L575 540" stroke="#2C2420" fill="none" stroke-width="3" stroke-linecap="round"/>
  <path d="M565 510 Q575 495, 585 510 L575 530 Z" stroke="#2C2420" fill="none" stroke-width="3" stroke-linecap="round"/>

  <!-- Sidewalk -->
  <rect x="20" y="700" width="555" height="30" stroke="#2C2420" fill="none" stroke-width="4"/>
  <!-- Sidewalk tiles -->
  <line x1="80" y1="700" x2="80" y2="730" stroke="#2C2420" fill="none" stroke-width="2"/>
  <line x1="140" y1="700" x2="140" y2="730" stroke="#2C2420" fill="none" stroke-width="2"/>
  <line x1="200" y1="700" x2="200" y2="730" stroke="#2C2420" fill="none" stroke-width="2"/>
  <line x1="260" y1="700" x2="260" y2="730" stroke="#2C2420" fill="none" stroke-width="2"/>
  <line x1="320" y1="700" x2="320" y2="730" stroke="#2C2420" fill="none" stroke-width="2"/>
  <line x1="380" y1="700" x2="380" y2="730" stroke="#2C2420" fill="none" stroke-width="2"/>
  <line x1="440" y1="700" x2="440" y2="730" stroke="#2C2420" fill="none" stroke-width="2"/>
  <line x1="500" y1="700" x2="500" y2="730" stroke="#2C2420" fill="none" stroke-width="2"/>
  <line x1="560" y1="700" x2="560" y2="730" stroke="#2C2420" fill="none" stroke-width="2"/>

  <!-- Road -->
  <rect x="20" y="730" width="555" height="70" stroke="#2C2420" fill="none" stroke-width="4"/>

  <!-- Street/road center dashes -->
  <line x1="60" y1="765" x2="110" y2="765" stroke="#2C2420" fill="none" stroke-width="3" stroke-linecap="round"/>
  <line x1="150" y1="765" x2="200" y2="765" stroke="#2C2420" fill="none" stroke-width="3" stroke-linecap="round"/>
  <line x1="240" y1="765" x2="290" y2="765" stroke="#2C2420" fill="none" stroke-width="3" stroke-linecap="round"/>
  <line x1="330" y1="765" x2="380" y2="765" stroke="#2C2420" fill="none" stroke-width="3" stroke-linecap="round"/>
  <line x1="420" y1="765" x2="470" y2="765" stroke="#2C2420" fill="none" stroke-width="3" stroke-linecap="round"/>

  <!-- Bike 1 (parked against left building) -->
  <circle cx="225" cy="665" r="22" stroke="#2C2420" fill="none" stroke-width="3"/>
  <circle cx="275" cy="665" r="22" stroke="#2C2420" fill="none" stroke-width="3"/>
  <line x1="225" y1="665" x2="250" y2="640" stroke="#2C2420" fill="none" stroke-width="3" stroke-linecap="round"/>
  <line x1="275" y1="665" x2="250" y2="640" stroke="#2C2420" fill="none" stroke-width="3" stroke-linecap="round"/>
  <line x1="250" y1="640" x2="245" y2="620" stroke="#2C2420" fill="none" stroke-width="3" stroke-linecap="round"/>
  <line x1="240" y1="620" x2="255" y2="620" stroke="#2C2420" fill="none" stroke-width="3" stroke-linecap="round"/>
  <line x1="275" y1="665" x2="285" y2="645" stroke="#2C2420" fill="none" stroke-width="3" stroke-linecap="round"/>

  <!-- Bike 2 -->
  <circle cx="305" cy="665" r="22" stroke="#2C2420" fill="none" stroke-width="3"/>
  <circle cx="355" cy="665" r="22" stroke="#2C2420" fill="none" stroke-width="3"/>
  <line x1="305" y1="665" x2="330" y2="640" stroke="#2C2420" fill="none" stroke-width="3" stroke-linecap="round"/>
  <line x1="355" y1="665" x2="330" y2="640" stroke="#2C2420" fill="none" stroke-width="3" stroke-linecap="round"/>
  <line x1="330" y1="640" x2="325" y2="620" stroke="#2C2420" fill="none" stroke-width="3" stroke-linecap="round"/>
  <line x1="320" y1="620" x2="335" y2="620" stroke="#2C2420" fill="none" stroke-width="3" stroke-linecap="round"/>
  <line x1="355" y1="665" x2="365" y2="645" stroke="#2C2420" fill="none" stroke-width="3" stroke-linecap="round"/>

  <!-- Bike rack -->
  <path d="M215 690 L215 700 M265 690 L265 700 M315 690 L315 700 M365 690 L365 700" stroke="#2C2420" fill="none" stroke-width="3" stroke-linecap="round"/>
  <line x1="215" y1="695" x2="365" y2="695" stroke="#2C2420" fill="none" stroke-width="3" stroke-linecap="round"/>

  <!-- Street lamp -->
  <line x1="210" y1="490" x2="210" y2="700" stroke="#2C2420" fill="none" stroke-width="4" stroke-linecap="round"/>
  <path d="M195 490 Q210 475, 225 490" stroke="#2C2420" fill="none" stroke-width="4" stroke-linecap="round"/>
  <ellipse cx="210" cy="498" rx="18" ry="8" stroke="#2C2420" fill="none" stroke-width="3"/>

  <!-- Person walking -->
  <circle cx="250" cy="530" r="10" stroke="#2C2420" fill="none" stroke-width="3"/>
  <line x1="250" y1="540" x2="250" y2="575" stroke="#2C2420" fill="none" stroke-width="3" stroke-linecap="round"/>
  <path d="M250 555 L238 545" stroke="#2C2420" fill="none" stroke-width="3" stroke-linecap="round"/>
  <path d="M250 555 L262 548" stroke="#2C2420" fill="none" stroke-width="3" stroke-linecap="round"/>
  <path d="M250 575 L240 600" stroke="#2C2420" fill="none" stroke-width="3" stroke-linecap="round"/>
  <path d="M250 575 L260 598" stroke="#2C2420" fill="none" stroke-width="3" stroke-linecap="round"/>

  <!-- Tree between buildings -->
  <line x1="300" y1="400" x2="300" y2="700" stroke="#2C2420" fill="none" stroke-width="5" stroke-linecap="round"/>
  <circle cx="300" cy="340" r="45" stroke="#2C2420" fill="none" stroke-width="4"/>
  <circle cx="265" cy="365" r="35" stroke="#2C2420" fill="none" stroke-width="4"/>
  <circle cx="335" cy="365" r="35" stroke="#2C2420" fill="none" stroke-width="4"/>
  <circle cx="300" cy="380" r="30" stroke="#2C2420" fill="none" stroke-width="4"/>

  <text x="297.5" y="825" text-anchor="middle" font-family="sans-serif" font-size="8" fill="#C4B8AB">berlinbabysitter.com</text>
</svg>
