<svg xmlns="http://www.w3.org/2000/svg" viewBox="0 0 595 842" width="595" height="842" style="background: white">
  <title>Berlin TV Tower Coloring Page</title>

  <!-- Antenna tip ball -->
  <circle cx="297" cy="38" r="12" stroke="#2C2420" fill="none" stroke-width="7" stroke-linecap="round" stroke-linejoin="round"/>

  <!-- Antenna spike -->
  <line x1="297" y1="50" x2="297" y2="155" stroke="#2C2420" fill="none" stroke-width="7" stroke-linecap="round" stroke-linejoin="round"/>

  <!-- Small antenna cross bars -->
  <line x1="278" y1="85" x2="316" y2="85" stroke="#2C2420" fill="none" stroke-width="5" stroke-linecap="round" stroke-linejoin="round"/>
  <line x1="282" y1="120" x2="312" y2="120" stroke="#2C2420" fill="none" stroke-width="5" stroke-linecap="round" stroke-linejoin="round"/>

  <!-- Upper tapered neck to sphere -->
  <path d="M285 155 L278 200" stroke="#2C2420" fill="none" stroke-width="6" stroke-linecap="round" stroke-linejoin="round"/>
  <path d="M309 155 L316 200" stroke="#2C2420" fill="none" stroke-width="6" stroke-linecap="round" stroke-linejoin="round"/>

  <!-- Sphere (the iconic ball) - LARGE -->
  <circle cx="297" cy="310" r="120" stroke="#2C2420" fill="none" stroke-width="8" stroke-linecap="round" stroke-linejoin="round"/>

  <!-- Observation deck ring -->
  <ellipse cx="297" cy="280" rx="120" ry="22" stroke="#2C2420" fill="none" stroke-width="6" stroke-linecap="round" stroke-linejoin="round"/>

  <!-- Second ring lower -->
  <ellipse cx="297" cy="330" rx="112" ry="18" stroke="#2C2420" fill="none" stroke-width="5" stroke-linecap="round" stroke-linejoin="round"/>

  <!-- Windows on sphere -->
  <circle cx="260" cy="300" r="15" stroke="#2C2420" fill="none" stroke-width="5" stroke-linecap="round" stroke-linejoin="round"/>
  <circle cx="297" cy="300" r="15" stroke="#2C2420" fill="none" stroke-width="5" stroke-linecap="round" stroke-linejoin="round"/>
  <circle cx="334" cy="300" r="15" stroke="#2C2420" fill="none" stroke-width="5" stroke-linecap="round" stroke-linejoin="round"/>

  <!-- Shaft - tapers down -->
  <path d="M265 425 L258 530 L250 630 L244 720" stroke="#2C2420" fill="none" stroke-width="7" stroke-linecap="round" stroke-linejoin="round"/>
  <path d="M329 425 L336 530 L344 630 L350 720" stroke="#2C2420" fill="none" stroke-width="7" stroke-linecap="round" stroke-linejoin="round"/>

  <!-- Shaft horizontal bands -->
  <line x1="261" y1="480" x2="333" y2="480" stroke="#2C2420" fill="none" stroke-width="5" stroke-linecap="round" stroke-linejoin="round"/>
  <line x1="256" y1="560" x2="338" y2="560" stroke="#2C2420" fill="none" stroke-width="5" stroke-linecap="round" stroke-linejoin="round"/>
  <line x1="251" y1="640" x2="343" y2="640" stroke="#2C2420" fill="none" stroke-width="5" stroke-linecap="round" stroke-linejoin="round"/>

  <!-- Base platform -->
  <path d="M210 720 L244 720 L350 720 L384 720" stroke="#2C2420" fill="none" stroke-width="7" stroke-linecap="round" stroke-linejoin="round"/>

  <!-- Base structure - flared legs -->
  <path d="M210 720 L170 770 L150 790" stroke="#2C2420" fill="none" stroke-width="7" stroke-linecap="round" stroke-linejoin="round"/>
  <path d="M384 720 L424 770 L444 790" stroke="#2C2420" fill="none" stroke-width="7" stroke-linecap="round" stroke-linejoin="round"/>
  <line x1="150" y1="790" x2="444" y2="790" stroke="#2C2420" fill="none" stroke-width="7" stroke-linecap="round" stroke-linejoin="round"/>

  <!-- Ground line -->
  <line x1="40" y1="790" x2="555" y2="790" stroke="#2C2420" fill="none" stroke-width="6" stroke-linecap="round" stroke-linejoin="round"/>

  <!-- Cloud 1 (left) -->
  <path d="M55 180 C42 162, 62 140, 88 145 C95 122, 130 118, 142 138 C158 127, 182 135, 180 155 C196 156, 200 175, 185 185 C190 200, 172 212, 158 203 C146 214, 118 216, 112 200 C96 212, 60 205, 55 192 Z" stroke="#2C2420" fill="none" stroke-width="6" stroke-linecap="round" stroke-linejoin="round"/>

  <!-- Cloud 2 (right) -->
  <path d="M415 140 C405 125, 420 108, 440 112 C446 96, 475 93, 484 108 C498 98, 516 105, 514 120 C528 121, 532 138, 518 146 C522 157, 508 165, 496 158 C486 167, 462 169, 457 155 C444 164, 420 158, 415 148 Z" stroke="#2C2420" fill="none" stroke-width="6" stroke-linecap="round" stroke-linejoin="round"/>

  <!-- Sun (top right) -->
  <circle cx="510" cy="60" r="35" stroke="#2C2420" fill="none" stroke-width="6" stroke-linecap="round" stroke-linejoin="round"/>
  <line x1="510" y1="15" x2="510" y2="5" stroke="#2C2420" fill="none" stroke-width="5" stroke-linecap="round"/>
  <line x1="510" y1="105" x2="510" y2="115" stroke="#2C2420" fill="none" stroke-width="5" stroke-linecap="round"/>
  <line x1="465" y1="60" x2="455" y2="60" stroke="#2C2420" fill="none" stroke-width="5" stroke-linecap="round"/>
  <line x1="555" y1="60" x2="565" y2="60" stroke="#2C2420" fill="none" stroke-width="5" stroke-linecap="round"/>
  <line x1="478" y1="28" x2="471" y2="21" stroke="#2C2420" fill="none" stroke-width="5" stroke-linecap="round"/>
  <line x1="542" y1="92" x2="549" y2="99" stroke="#2C2420" fill="none" stroke-width="5" stroke-linecap="round"/>
  <line x1="478" y1="92" x2="471" y2="99" stroke="#2C2420" fill="none" stroke-width="5" stroke-linecap="round"/>
  <line x1="542" y1="28" x2="549" y2="21" stroke="#2C2420" fill="none" stroke-width="5" stroke-linecap="round"/>

  <!-- Trees at base -->
  <path d="M80 790 L80 730 M60 760 Q80 720 100 760 M55 740 Q80 695 105 740" stroke="#2C2420" fill="none" stroke-width="6" stroke-linecap="round" stroke-linejoin="round"/>
  <path d="M510 790 L510 730 M490 760 Q510 720 530 760 M485 740 Q510 695 535 740" stroke="#2C2420" fill="none" stroke-width="6" stroke-linecap="round" stroke-linejoin="round"/>

  <text x="297.5" y="825" text-anchor="middle" font-family="sans-serif" font-size="8" fill="#C4B8AB">berlinbabysitter.com</text>
</svg>
