<svg xmlns="http://www.w3.org/2000/svg" viewBox="0 0 595 842" width="595" height="842" style="background: white">
  <title>Zoo Berlin Animals Coloring Page - Elephant, Panda, and Flamingo at the zoo</title>

  <!-- === ZOO BERLIN ENTRANCE ARCH === -->
  <!-- Left pillar -->
  <rect x="140" y="50" width="30" height="80" stroke="#2C2420" fill="none" stroke-width="2.5" stroke-linecap="round" stroke-linejoin="round"/>
  <!-- Right pillar -->
  <rect x="425" y="50" width="30" height="80" stroke="#2C2420" fill="none" stroke-width="2.5" stroke-linecap="round" stroke-linejoin="round"/>
  <!-- Arch -->
  <path d="M140 50 Q297 -20 455 50" stroke="#2C2420" fill="none" stroke-width="2.5" stroke-linecap="round" stroke-linejoin="round"/>
  <!-- Inner arch line -->
  <path d="M155 60 Q297 0 440 60" stroke="#2C2420" fill="none" stroke-width="2" stroke-linecap="round" stroke-linejoin="round"/>
  <!-- ZOO BERLIN text -->
  <text x="297" y="38" text-anchor="middle" font-family="sans-serif" font-size="22" font-weight="bold" stroke="#2C2420" fill="none" stroke-width="1.5" stroke-linecap="round" stroke-linejoin="round">ZOO BERLIN</text>
  <!-- Decorative balls on pillars -->
  <circle cx="155" cy="45" r="8" stroke="#2C2420" fill="none" stroke-width="2" stroke-linecap="round" stroke-linejoin="round"/>
  <circle cx="440" cy="45" r="8" stroke="#2C2420" fill="none" stroke-width="2" stroke-linecap="round" stroke-linejoin="round"/>
  <!-- Pillar details -->
  <line x1="145" y1="90" x2="165" y2="90" stroke="#2C2420" stroke-width="1.5" stroke-linecap="round"/>
  <line x1="145" y1="110" x2="165" y2="110" stroke="#2C2420" stroke-width="1.5" stroke-linecap="round"/>
  <line x1="430" y1="90" x2="450" y2="90" stroke="#2C2420" stroke-width="1.5" stroke-linecap="round"/>
  <line x1="430" y1="110" x2="450" y2="110" stroke="#2C2420" stroke-width="1.5" stroke-linecap="round"/>

  <!-- === BACKGROUND FENCE === -->
  <line x1="30" y1="200" x2="565" y2="200" stroke="#2C2420" stroke-width="2" stroke-linecap="round"/>
  <line x1="30" y1="220" x2="565" y2="220" stroke="#2C2420" stroke-width="2" stroke-linecap="round"/>
  <!-- Fence posts -->
  <line x1="50" y1="190" x2="50" y2="230" stroke="#2C2420" stroke-width="2.5" stroke-linecap="round"/>
  <line x1="90" y1="190" x2="90" y2="230" stroke="#2C2420" stroke-width="2.5" stroke-linecap="round"/>
  <line x1="130" y1="190" x2="130" y2="230" stroke="#2C2420" stroke-width="2.5" stroke-linecap="round"/>
  <line x1="170" y1="190" x2="170" y2="230" stroke="#2C2420" stroke-width="2.5" stroke-linecap="round"/>
  <line x1="210" y1="190" x2="210" y2="230" stroke="#2C2420" stroke-width="2.5" stroke-linecap="round"/>
  <line x1="250" y1="190" x2="250" y2="230" stroke="#2C2420" stroke-width="2.5" stroke-linecap="round"/>
  <line x1="290" y1="190" x2="290" y2="230" stroke="#2C2420" stroke-width="2.5" stroke-linecap="round"/>
  <line x1="330" y1="190" x2="330" y2="230" stroke="#2C2420" stroke-width="2.5" stroke-linecap="round"/>
  <line x1="370" y1="190" x2="370" y2="230" stroke="#2C2420" stroke-width="2.5" stroke-linecap="round"/>
  <line x1="410" y1="190" x2="410" y2="230" stroke="#2C2420" stroke-width="2.5" stroke-linecap="round"/>
  <line x1="450" y1="190" x2="450" y2="230" stroke="#2C2420" stroke-width="2.5" stroke-linecap="round"/>
  <line x1="490" y1="190" x2="490" y2="230" stroke="#2C2420" stroke-width="2.5" stroke-linecap="round"/>
  <line x1="530" y1="190" x2="530" y2="230" stroke="#2C2420" stroke-width="2.5" stroke-linecap="round"/>

  <!-- === TREE (left side) === -->
  <rect x="55" y="300" width="12" height="100" stroke="#2C2420" fill="none" stroke-width="2.5" stroke-linecap="round" stroke-linejoin="round"/>
  <!-- Bark texture -->
  <path d="M58 320 L65 325" stroke="#2C2420" fill="none" stroke-width="1.5" stroke-linecap="round"/>
  <path d="M60 350 L55 355" stroke="#2C2420" fill="none" stroke-width="1.5" stroke-linecap="round"/>
  <path d="M59 370 L64 375" stroke="#2C2420" fill="none" stroke-width="1.5" stroke-linecap="round"/>
  <!-- Foliage -->
  <circle cx="61" cy="280" r="35" stroke="#2C2420" fill="none" stroke-width="2.5" stroke-linecap="round" stroke-linejoin="round"/>
  <circle cx="40" cy="300" r="25" stroke="#2C2420" fill="none" stroke-width="2" stroke-linecap="round" stroke-linejoin="round"/>
  <circle cx="85" cy="295" r="28" stroke="#2C2420" fill="none" stroke-width="2" stroke-linecap="round" stroke-linejoin="round"/>
  <circle cx="55" cy="255" r="22" stroke="#2C2420" fill="none" stroke-width="2" stroke-linecap="round" stroke-linejoin="round"/>

  <!-- === TREE (right side) === -->
  <rect x="530" y="310" width="10" height="90" stroke="#2C2420" fill="none" stroke-width="2.5" stroke-linecap="round" stroke-linejoin="round"/>
  <circle cx="535" cy="290" r="30" stroke="#2C2420" fill="none" stroke-width="2.5" stroke-linecap="round" stroke-linejoin="round"/>
  <circle cx="515" cy="305" r="22" stroke="#2C2420" fill="none" stroke-width="2" stroke-linecap="round" stroke-linejoin="round"/>
  <circle cx="555" cy="300" r="20" stroke="#2C2420" fill="none" stroke-width="2" stroke-linecap="round" stroke-linejoin="round"/>

  <!-- === PANDA (left) === -->
  <!-- Body -->
  <ellipse cx="170" cy="530" rx="50" ry="65" stroke="#2C2420" fill="none" stroke-width="2.5" stroke-linecap="round" stroke-linejoin="round"/>
  <!-- Head -->
  <circle cx="170" cy="430" r="40" stroke="#2C2420" fill="none" stroke-width="2.5" stroke-linecap="round" stroke-linejoin="round"/>
  <!-- Ears -->
  <circle cx="140" cy="398" r="14" stroke="#2C2420" fill="none" stroke-width="2.5" stroke-linecap="round" stroke-linejoin="round"/>
  <circle cx="200" cy="398" r="14" stroke="#2C2420" fill="none" stroke-width="2.5" stroke-linecap="round" stroke-linejoin="round"/>
  <!-- Eye patches (darker ovals) -->
  <ellipse cx="155" cy="425" rx="14" ry="10" stroke="#2C2420" fill="none" stroke-width="2" stroke-linecap="round" stroke-linejoin="round"/>
  <ellipse cx="185" cy="425" rx="14" ry="10" stroke="#2C2420" fill="none" stroke-width="2" stroke-linecap="round" stroke-linejoin="round"/>
  <!-- Eyes inside patches -->
  <circle cx="155" cy="425" r="5" stroke="#2C2420" fill="none" stroke-width="2" stroke-linecap="round" stroke-linejoin="round"/>
  <circle cx="185" cy="425" r="5" stroke="#2C2420" fill="none" stroke-width="2" stroke-linecap="round" stroke-linejoin="round"/>
  <!-- Eye highlights -->
  <circle cx="157" cy="423" r="2" stroke="#2C2420" fill="none" stroke-width="1" stroke-linecap="round" stroke-linejoin="round"/>
  <circle cx="187" cy="423" r="2" stroke="#2C2420" fill="none" stroke-width="1" stroke-linecap="round" stroke-linejoin="round"/>
  <!-- Nose -->
  <ellipse cx="170" cy="442" rx="6" ry="4" stroke="#2C2420" fill="none" stroke-width="2" stroke-linecap="round" stroke-linejoin="round"/>
  <!-- Mouth -->
  <path d="M170 446 L170 452 Q165 458 170 458 Q175 458 170 452" stroke="#2C2420" fill="none" stroke-width="2" stroke-linecap="round" stroke-linejoin="round"/>
  <!-- Front legs (dark) holding bamboo -->
  <ellipse cx="135" cy="510" rx="18" ry="12" stroke="#2C2420" fill="none" stroke-width="2.5" stroke-linecap="round" stroke-linejoin="round"/>
  <ellipse cx="205" cy="510" rx="18" ry="12" stroke="#2C2420" fill="none" stroke-width="2.5" stroke-linecap="round" stroke-linejoin="round"/>
  <!-- Paw details -->
  <path d="M128 505 Q125 510 130 512" stroke="#2C2420" fill="none" stroke-width="1.5" stroke-linecap="round"/>
  <path d="M212 505 Q215 510 210 512" stroke="#2C2420" fill="none" stroke-width="1.5" stroke-linecap="round"/>
  <!-- Back legs (dark) -->
  <ellipse cx="145" cy="580" rx="18" ry="15" stroke="#2C2420" fill="none" stroke-width="2.5" stroke-linecap="round" stroke-linejoin="round"/>
  <ellipse cx="195" cy="580" rx="18" ry="15" stroke="#2C2420" fill="none" stroke-width="2.5" stroke-linecap="round" stroke-linejoin="round"/>
  <!-- Belly patch -->
  <ellipse cx="170" cy="540" rx="25" ry="30" stroke="#2C2420" fill="none" stroke-width="1.5" stroke-linecap="round" stroke-linejoin="round"/>

  <!-- === BAMBOO STALK (held by panda) === -->
  <line x1="120" y1="350" x2="120" y2="590" stroke="#2C2420" stroke-width="2.5" stroke-linecap="round"/>
  <!-- Bamboo segments -->
  <line x1="115" y1="400" x2="125" y2="400" stroke="#2C2420" stroke-width="2" stroke-linecap="round"/>
  <line x1="115" y1="450" x2="125" y2="450" stroke="#2C2420" stroke-width="2" stroke-linecap="round"/>
  <line x1="115" y1="500" x2="125" y2="500" stroke="#2C2420" stroke-width="2" stroke-linecap="round"/>
  <line x1="115" y1="550" x2="125" y2="550" stroke="#2C2420" stroke-width="2" stroke-linecap="round"/>
  <!-- Bamboo leaves -->
  <path d="M120 360 Q105 340 95 355" stroke="#2C2420" fill="none" stroke-width="2" stroke-linecap="round" stroke-linejoin="round"/>
  <path d="M120 360 Q110 345 100 345" stroke="#2C2420" fill="none" stroke-width="2" stroke-linecap="round" stroke-linejoin="round"/>
  <path d="M120 355 Q135 335 145 348" stroke="#2C2420" fill="none" stroke-width="2" stroke-linecap="round" stroke-linejoin="round"/>
  <path d="M120 400 Q105 385 92 395" stroke="#2C2420" fill="none" stroke-width="2" stroke-linecap="round" stroke-linejoin="round"/>
  <path d="M120 400 Q135 385 140 390" stroke="#2C2420" fill="none" stroke-width="2" stroke-linecap="round" stroke-linejoin="round"/>
  <!-- Second bamboo -->
  <line x1="108" y1="370" x2="108" y2="590" stroke="#2C2420" stroke-width="2" stroke-linecap="round"/>
  <line x1="104" y1="420" x2="112" y2="420" stroke="#2C2420" stroke-width="1.5" stroke-linecap="round"/>
  <line x1="104" y1="470" x2="112" y2="470" stroke="#2C2420" stroke-width="1.5" stroke-linecap="round"/>
  <line x1="104" y1="520" x2="112" y2="520" stroke="#2C2420" stroke-width="1.5" stroke-linecap="round"/>
  <path d="M108 375 Q95 360 88 370" stroke="#2C2420" fill="none" stroke-width="2" stroke-linecap="round" stroke-linejoin="round"/>
  <path d="M108 375 Q100 358 90 360" stroke="#2C2420" fill="none" stroke-width="2" stroke-linecap="round" stroke-linejoin="round"/>

  <!-- === ELEPHANT (center) === -->
  <!-- Body -->
  <ellipse cx="310" cy="490" rx="75" ry="60" stroke="#2C2420" fill="none" stroke-width="2.5" stroke-linecap="round" stroke-linejoin="round"/>
  <!-- Head -->
  <circle cx="310" cy="380" r="50" stroke="#2C2420" fill="none" stroke-width="2.5" stroke-linecap="round" stroke-linejoin="round"/>
  <!-- Left ear (big) -->
  <path d="M260 370 Q220 340 230 400 Q240 440 270 420" stroke="#2C2420" fill="none" stroke-width="2.5" stroke-linecap="round" stroke-linejoin="round"/>
  <!-- Inner left ear -->
  <path d="M258 378 Q235 355 240 400 Q248 430 265 415" stroke="#2C2420" fill="none" stroke-width="1.5" stroke-linecap="round" stroke-linejoin="round"/>
  <!-- Right ear (big) -->
  <path d="M360 370 Q400 340 390 400 Q380 440 350 420" stroke="#2C2420" fill="none" stroke-width="2.5" stroke-linecap="round" stroke-linejoin="round"/>
  <!-- Inner right ear -->
  <path d="M362 378 Q385 355 380 400 Q372 430 355 415" stroke="#2C2420" fill="none" stroke-width="1.5" stroke-linecap="round" stroke-linejoin="round"/>
  <!-- Eyes -->
  <circle cx="290" cy="375" r="6" stroke="#2C2420" fill="none" stroke-width="2" stroke-linecap="round" stroke-linejoin="round"/>
  <circle cx="330" cy="375" r="6" stroke="#2C2420" fill="none" stroke-width="2" stroke-linecap="round" stroke-linejoin="round"/>
  <!-- Eye highlights -->
  <circle cx="292" cy="373" r="2" stroke="#2C2420" fill="none" stroke-width="1" stroke-linecap="round" stroke-linejoin="round"/>
  <circle cx="332" cy="373" r="2" stroke="#2C2420" fill="none" stroke-width="1" stroke-linecap="round" stroke-linejoin="round"/>
  <!-- Trunk -->
  <path d="M300 400 Q295 430 290 450 Q285 470 295 490 Q300 500 305 510 Q310 520 300 530 Q290 540 280 535" stroke="#2C2420" fill="none" stroke-width="2.5" stroke-linecap="round" stroke-linejoin="round"/>
  <path d="M320 400 Q315 430 310 450 Q305 470 310 490 Q315 500 318 510 Q322 520 312 530 Q305 538 295 535" stroke="#2C2420" fill="none" stroke-width="2.5" stroke-linecap="round" stroke-linejoin="round"/>
  <!-- Trunk wrinkles -->
  <path d="M293 460 Q305 455 313 460" stroke="#2C2420" fill="none" stroke-width="1.5" stroke-linecap="round"/>
  <path d="M295 480 Q305 476 312 480" stroke="#2C2420" fill="none" stroke-width="1.5" stroke-linecap="round"/>
  <path d="M298 500 Q307 496 316 500" stroke="#2C2420" fill="none" stroke-width="1.5" stroke-linecap="round"/>
  <!-- Tusks -->
  <path d="M295 415 Q280 440 275 430 Q272 420 285 410" stroke="#2C2420" fill="none" stroke-width="2" stroke-linecap="round" stroke-linejoin="round"/>
  <path d="M325 415 Q340 440 345 430 Q348 420 335 410" stroke="#2C2420" fill="none" stroke-width="2" stroke-linecap="round" stroke-linejoin="round"/>
  <!-- Front legs -->
  <rect x="260" y="530" width="25" height="60" rx="8" stroke="#2C2420" fill="none" stroke-width="2.5" stroke-linecap="round" stroke-linejoin="round"/>
  <rect x="335" y="530" width="25" height="60" rx="8" stroke="#2C2420" fill="none" stroke-width="2.5" stroke-linecap="round" stroke-linejoin="round"/>
  <!-- Back legs -->
  <rect x="245" y="535" width="22" height="55" rx="7" stroke="#2C2420" fill="none" stroke-width="2" stroke-linecap="round" stroke-linejoin="round"/>
  <rect x="355" y="535" width="22" height="55" rx="7" stroke="#2C2420" fill="none" stroke-width="2" stroke-linecap="round" stroke-linejoin="round"/>
  <!-- Toenails -->
  <path d="M262 588 L268 588 M272 588 L278 588" stroke="#2C2420" fill="none" stroke-width="2" stroke-linecap="round"/>
  <path d="M337 588 L343 588 M347 588 L353 588" stroke="#2C2420" fill="none" stroke-width="2" stroke-linecap="round"/>
  <!-- Wrinkly skin lines on body -->
  <path d="M260 470 Q270 465 280 470" stroke="#2C2420" fill="none" stroke-width="1.5" stroke-linecap="round"/>
  <path d="M340 475 Q350 470 360 475" stroke="#2C2420" fill="none" stroke-width="1.5" stroke-linecap="round"/>
  <path d="M290 510 Q310 505 330 510" stroke="#2C2420" fill="none" stroke-width="1.5" stroke-linecap="round"/>
  <!-- Tail -->
  <path d="M380 470 Q395 460 400 470 Q405 480 398 485" stroke="#2C2420" fill="none" stroke-width="2" stroke-linecap="round" stroke-linejoin="round"/>
  <path d="M396 483 L392 490 M398 485 L402 490 M396 487 L396 493" stroke="#2C2420" fill="none" stroke-width="1.5" stroke-linecap="round"/>
  <!-- Forehead bump -->
  <path d="M295 340 Q310 330 325 340" stroke="#2C2420" fill="none" stroke-width="1.5" stroke-linecap="round"/>

  <!-- === FLAMINGO (right) === -->
  <!-- Body -->
  <ellipse cx="475" cy="440" rx="30" ry="40" transform="rotate(-10, 475, 440)" stroke="#2C2420" fill="none" stroke-width="2.5" stroke-linecap="round" stroke-linejoin="round"/>
  <!-- Neck (long curved) -->
  <path d="M465 405 Q455 360 460 320 Q465 290 480 280" stroke="#2C2420" fill="none" stroke-width="2.5" stroke-linecap="round" stroke-linejoin="round"/>
  <path d="M472 405 Q462 360 467 320 Q472 290 487 280" stroke="#2C2420" fill="none" stroke-width="2.5" stroke-linecap="round" stroke-linejoin="round"/>
  <!-- Head -->
  <circle cx="483" cy="275" r="12" stroke="#2C2420" fill="none" stroke-width="2.5" stroke-linecap="round" stroke-linejoin="round"/>
  <!-- Eye -->
  <circle cx="487" cy="272" r="3" stroke="#2C2420" fill="none" stroke-width="2" stroke-linecap="round" stroke-linejoin="round"/>
  <!-- Beak (bent) -->
  <path d="M495 275 L510 278 L505 282 L495 280" stroke="#2C2420" fill="none" stroke-width="2" stroke-linecap="round" stroke-linejoin="round"/>
  <!-- Beak line (bent tip) -->
  <path d="M505 278 Q510 280 505 282" stroke="#2C2420" fill="none" stroke-width="2" stroke-linecap="round" stroke-linejoin="round"/>
  <!-- Standing leg -->
  <line x1="475" y1="480" x2="478" y2="570" stroke="#2C2420" stroke-width="2.5" stroke-linecap="round"/>
  <!-- Knee -->
  <path d="M478 540 Q482 545 478 550" stroke="#2C2420" fill="none" stroke-width="2" stroke-linecap="round"/>
  <!-- Foot -->
  <path d="M468 575 L478 570 L488 575" stroke="#2C2420" fill="none" stroke-width="2.5" stroke-linecap="round" stroke-linejoin="round"/>
  <line x1="478" y1="570" x2="478" y2="578" stroke="#2C2420" stroke-width="2" stroke-linecap="round"/>
  <!-- Raised leg (tucked) -->
  <path d="M465 475 Q450 490 455 500 Q460 505 470 498" stroke="#2C2420" fill="none" stroke-width="2" stroke-linecap="round" stroke-linejoin="round"/>
  <!-- Tail feathers -->
  <path d="M495 455 Q510 445 515 455" stroke="#2C2420" fill="none" stroke-width="2" stroke-linecap="round" stroke-linejoin="round"/>
  <path d="M497 460 Q512 452 517 462" stroke="#2C2420" fill="none" stroke-width="2" stroke-linecap="round" stroke-linejoin="round"/>
  <path d="M496 465 Q508 460 514 468" stroke="#2C2420" fill="none" stroke-width="2" stroke-linecap="round" stroke-linejoin="round"/>
  <!-- Wing detail -->
  <path d="M455 430 Q475 420 495 435" stroke="#2C2420" fill="none" stroke-width="2" stroke-linecap="round" stroke-linejoin="round"/>
  <path d="M458 440 Q475 432 492 443" stroke="#2C2420" fill="none" stroke-width="1.5" stroke-linecap="round" stroke-linejoin="round"/>
  <!-- Feather head tuft -->
  <path d="M478 264 Q475 255 480 258" stroke="#2C2420" fill="none" stroke-width="1.5" stroke-linecap="round"/>
  <path d="M483 263 Q483 254 486 257" stroke="#2C2420" fill="none" stroke-width="1.5" stroke-linecap="round"/>

  <!-- === GROUND LINE === -->
  <line x1="30" y1="595" x2="565" y2="595" stroke="#2C2420" stroke-width="2.5" stroke-linecap="round"/>

  <!-- === GRASS TUFTS === -->
  <path d="M50 595 L55 580 L60 595" stroke="#2C2420" fill="none" stroke-width="2" stroke-linecap="round" stroke-linejoin="round"/>
  <path d="M57 595 L63 582 L69 595" stroke="#2C2420" fill="none" stroke-width="2" stroke-linecap="round" stroke-linejoin="round"/>
  <path d="M140 595 L145 582 L150 595" stroke="#2C2420" fill="none" stroke-width="2" stroke-linecap="round" stroke-linejoin="round"/>
  <path d="M148 595 L153 584 L158 595" stroke="#2C2420" fill="none" stroke-width="2" stroke-linecap="round" stroke-linejoin="round"/>
  <path d="M230 595 L235 580 L240 595" stroke="#2C2420" fill="none" stroke-width="2" stroke-linecap="round" stroke-linejoin="round"/>
  <path d="M320 595 L325 583 L330 595" stroke="#2C2420" fill="none" stroke-width="2" stroke-linecap="round" stroke-linejoin="round"/>
  <path d="M390 595 L395 580 L400 595" stroke="#2C2420" fill="none" stroke-width="2" stroke-linecap="round" stroke-linejoin="round"/>
  <path d="M397 595 L402 583 L407 595" stroke="#2C2420" fill="none" stroke-width="2" stroke-linecap="round" stroke-linejoin="round"/>
  <path d="M500 595 L505 582 L510 595" stroke="#2C2420" fill="none" stroke-width="2" stroke-linecap="round" stroke-linejoin="round"/>
  <path d="M540 595 L545 580 L550 595" stroke="#2C2420" fill="none" stroke-width="2" stroke-linecap="round" stroke-linejoin="round"/>

  <!-- === SMALL POND near flamingo === -->
  <ellipse cx="478" cy="600" rx="40" ry="12" stroke="#2C2420" fill="none" stroke-width="2" stroke-linecap="round" stroke-linejoin="round"/>
  <path d="M458 598 Q468 595 478 598" stroke="#2C2420" fill="none" stroke-width="1.5" stroke-linecap="round"/>
  <path d="M478 600 Q488 597 498 600" stroke="#2C2420" fill="none" stroke-width="1.5" stroke-linecap="round"/>

  <!-- === SMALL FLOWERS === -->
  <circle cx="100" cy="588" r="4" stroke="#2C2420" fill="none" stroke-width="1.5" stroke-linecap="round" stroke-linejoin="round"/>
  <circle cx="100" cy="588" r="1.5" stroke="#2C2420" fill="none" stroke-width="1" stroke-linecap="round" stroke-linejoin="round"/>
  <line x1="100" y1="592" x2="100" y2="595" stroke="#2C2420" stroke-width="1.5" stroke-linecap="round"/>

  <circle cx="350" cy="586" r="4" stroke="#2C2420" fill="none" stroke-width="1.5" stroke-linecap="round" stroke-linejoin="round"/>
  <circle cx="350" cy="586" r="1.5" stroke="#2C2420" fill="none" stroke-width="1" stroke-linecap="round" stroke-linejoin="round"/>
  <line x1="350" y1="590" x2="350" y2="595" stroke="#2C2420" stroke-width="1.5" stroke-linecap="round"/>

  <circle cx="200" cy="589" r="3.5" stroke="#2C2420" fill="none" stroke-width="1.5" stroke-linecap="round" stroke-linejoin="round"/>
  <circle cx="200" cy="589" r="1.5" stroke="#2C2420" fill="none" stroke-width="1" stroke-linecap="round" stroke-linejoin="round"/>
  <line x1="200" y1="592" x2="200" y2="595" stroke="#2C2420" stroke-width="1.5" stroke-linecap="round"/>

  <!-- === BUTTERFLY near panda === -->
  <path d="M150 340 Q140 330 145 320 Q155 315 155 330" stroke="#2C2420" fill="none" stroke-width="1.5" stroke-linecap="round" stroke-linejoin="round"/>
  <path d="M155 330 Q165 315 170 320 Q175 330 160 340" stroke="#2C2420" fill="none" stroke-width="1.5" stroke-linecap="round" stroke-linejoin="round"/>
  <path d="M150 340 Q145 348 148 352" stroke="#2C2420" fill="none" stroke-width="1.5" stroke-linecap="round" stroke-linejoin="round"/>
  <path d="M160 340 Q165 348 162 352" stroke="#2C2420" fill="none" stroke-width="1.5" stroke-linecap="round" stroke-linejoin="round"/>
  <line x1="155" y1="325" x2="155" y2="345" stroke="#2C2420" stroke-width="1" stroke-linecap="round"/>
  <!-- Antennae -->
  <path d="M155 325 Q150 318 148 315" stroke="#2C2420" fill="none" stroke-width="1" stroke-linecap="round"/>
  <path d="M155 325 Q160 318 162 315" stroke="#2C2420" fill="none" stroke-width="1" stroke-linecap="round"/>

  <!-- === INFO SIGN === -->
  <rect x="410" y="555" width="30" height="22" rx="3" stroke="#2C2420" fill="none" stroke-width="2" stroke-linecap="round" stroke-linejoin="round"/>
  <line x1="425" y1="577" x2="425" y2="595" stroke="#2C2420" stroke-width="2.5" stroke-linecap="round"/>
  <text x="425" y="570" text-anchor="middle" font-family="sans-serif" font-size="8" stroke="#2C2420" fill="none" stroke-width="0.8">INFO</text>

  <!-- Footer -->
  <text x="297.5" y="820" text-anchor="middle" font-family="sans-serif" font-size="8" fill="#C4B8AB">berlinbabysitter.com</text>
</svg>