<svg xmlns="http://www.w3.org/2000/svg" viewBox="0 0 595 842" width="595" height="842" style="background: white">
  <title>Zoo Berlin Animals Coloring Page</title>

  <!-- Ground -->
  <line x1="20" y1="780" x2="575" y2="780" stroke="#2C2420" fill="none" stroke-width="5" stroke-linecap="round"/>

  <!-- ===== ELEPHANT (center) ===== -->
  <!-- Body -->
  <ellipse cx="297" cy="520" rx="145" ry="110" stroke="#2C2420" fill="none" stroke-width="6"/>
  <!-- Head -->
  <ellipse cx="210" cy="380" rx="80" ry="70" stroke="#2C2420" fill="none" stroke-width="6"/>
  <!-- Left ear -->
  <path d="M140 340 C100 310, 90 370, 120 400 C110 420, 130 430, 148 410" stroke="#2C2420" fill="none" stroke-width="5" stroke-linecap="round"/>
  <!-- Right ear -->
  <path d="M280 350 C300 320, 310 360, 290 385" stroke="#2C2420" fill="none" stroke-width="5" stroke-linecap="round"/>
  <!-- Eye -->
  <circle cx="225" cy="370" r="8" stroke="#2C2420" fill="#2C2420"/>
  <!-- Trunk -->
  <path d="M175 420 C160 470, 140 520, 130 570 C125 595, 140 610, 160 600 C170 595, 165 570, 158 545" stroke="#2C2420" fill="none" stroke-width="6" stroke-linecap="round"/>
  <!-- Tusk -->
  <path d="M188 430 C195 460, 185 480, 175 470" stroke="#2C2420" fill="none" stroke-width="5" stroke-linecap="round"/>
  <!-- Legs -->
  <rect x="200" y="610" width="45" height="120" rx="15" stroke="#2C2420" fill="none" stroke-width="5"/>
  <rect x="270" y="610" width="45" height="120" rx="15" stroke="#2C2420" fill="none" stroke-width="5"/>
  <rect x="340" y="610" width="45" height="120" rx="15" stroke="#2C2420" fill="none" stroke-width="5"/>
  <rect x="395" y="610" width="45" height="120" rx="15" stroke="#2C2420" fill="none" stroke-width="5"/>
  <!-- Tail -->
  <path d="M440 490 C460 480, 470 500, 465 520 L470 530" stroke="#2C2420" fill="none" stroke-width="4" stroke-linecap="round"/>

  <!-- ===== PANDA (left) ===== -->
  <!-- Body -->
  <ellipse cx="80" cy="640" rx="55" ry="70" stroke="#2C2420" fill="none" stroke-width="5"/>
  <!-- Head -->
  <circle cx="80" cy="545" r="42" stroke="#2C2420" fill="none" stroke-width="5"/>
  <!-- Ears -->
  <circle cx="50" cy="510" r="16" stroke="#2C2420" fill="none" stroke-width="5"/>
  <circle cx="110" cy="510" r="16" stroke="#2C2420" fill="none" stroke-width="5"/>
  <!-- Eye patches -->
  <ellipse cx="65" cy="540" rx="14" ry="12" stroke="#2C2420" fill="none" stroke-width="4"/>
  <circle cx="65" cy="540" r="5" fill="#2C2420"/>
  <ellipse cx="95" cy="540" rx="14" ry="12" stroke="#2C2420" fill="none" stroke-width="4"/>
  <circle cx="95" cy="540" r="5" fill="#2C2420"/>
  <!-- Nose -->
  <ellipse cx="80" cy="558" rx="8" ry="5" fill="#2C2420"/>
  <!-- Mouth -->
  <path d="M72 565 Q80 575 88 565" stroke="#2C2420" fill="none" stroke-width="3" stroke-linecap="round"/>
  <!-- Legs -->
  <ellipse cx="52" cy="710" rx="20" ry="25" stroke="#2C2420" fill="none" stroke-width="5"/>
  <ellipse cx="108" cy="710" rx="20" ry="25" stroke="#2C2420" fill="none" stroke-width="5"/>
  <!-- Arms holding bamboo -->
  <path d="M35 600 C20 590, 10 610, 25 625" stroke="#2C2420" fill="none" stroke-width="5" stroke-linecap="round"/>
  <!-- Bamboo stick -->
  <line x1="20" y1="560" x2="30" y2="650" stroke="#2C2420" fill="none" stroke-width="4" stroke-linecap="round"/>
  <!-- Bamboo leaves -->
  <path d="M18 570 C5 560, 8 545, 20 555" stroke="#2C2420" fill="none" stroke-width="3" stroke-linecap="round"/>
  <path d="M22 580 C35 568, 40 575, 30 585" stroke="#2C2420" fill="none" stroke-width="3" stroke-linecap="round"/>

  <!-- ===== FLAMINGO (right) ===== -->
  <!-- Body -->
  <ellipse cx="520" cy="480" rx="45" ry="60" stroke="#2C2420" fill="none" stroke-width="5" transform="rotate(-15 520 480)"/>
  <!-- Neck -->
  <path d="M505 425 C495 370, 505 310, 530 270 C545 250, 555 260, 548 280" stroke="#2C2420" fill="none" stroke-width="5" stroke-linecap="round"/>
  <!-- Head -->
  <circle cx="545" cy="260" r="20" stroke="#2C2420" fill="none" stroke-width="5"/>
  <!-- Eye -->
  <circle cx="552" cy="255" r="4" fill="#2C2420"/>
  <!-- Beak -->
  <path d="M562 260 L585 270 L562 275" stroke="#2C2420" fill="none" stroke-width="4" stroke-linecap="round" stroke-linejoin="round"/>
  <!-- Beak divider -->
  <line x1="562" y1="268" x2="580" y2="268" stroke="#2C2420" fill="none" stroke-width="3" stroke-linecap="round"/>
  <!-- Standing leg -->
  <line x1="520" y1="535" x2="518" y2="720" stroke="#2C2420" fill="none" stroke-width="5" stroke-linecap="round"/>
  <!-- Foot -->
  <path d="M500 720 L518 720 L540 720" stroke="#2C2420" fill="none" stroke-width="5" stroke-linecap="round"/>
  <path d="M505 720 L510 735" stroke="#2C2420" fill="none" stroke-width="3" stroke-linecap="round"/>
  <path d="M530" y1="720" stroke="#2C2420" fill="none" stroke-width="3" stroke-linecap="round"/>
  <!-- Lifted leg -->
  <path d="M510 540 L498 580 L510 590" stroke="#2C2420" fill="none" stroke-width="4" stroke-linecap="round"/>
  <!-- Tail feathers -->
  <path d="M545 510 C560 530, 570 520, 565 500" stroke="#2C2420" fill="none" stroke-width="4" stroke-linecap="round"/>
  <path d="M550 520 C568 540, 578 530, 572 510" stroke="#2C2420" fill="none" stroke-width="4" stroke-linecap="round"/>
  <!-- Wing -->
  <path d="M500 460 C490 480, 495 510, 510 520" stroke="#2C2420" fill="none" stroke-width="4" stroke-linecap="round"/>

  <!-- Zoo fence at bottom -->
  <line x1="20" y1="750" x2="575" y2="750" stroke="#2C2420" fill="none" stroke-width="4" stroke-linecap="round"/>
  <line x1="40" y1="750" x2="40" y2="780" stroke="#2C2420" fill="none" stroke-width="4" stroke-linecap="round"/>
  <line x1="80" y1="750" x2="80" y2="780" stroke="#2C2420" fill="none" stroke-width="4" stroke-linecap="round"/>
  <line x1="120" y1="750" x2="120" y2="780" stroke="#2C2420" fill="none" stroke-width="4" stroke-linecap="round"/>
  <line x1="160" y1="750" x2="160" y2="780" stroke="#2C2420" fill="none" stroke-width="4" stroke-linecap="round"/>
  <line x1="200" y1="750" x2="200" y2="780" stroke="#2C2420" fill="none" stroke-width="4" stroke-linecap="round"/>
  <line x1="240" y1="750" x2="240" y2="780" stroke="#2C2420" fill="none" stroke-width="4" stroke-linecap="round"/>
  <line x1="280" y1="750" x2="280" y2="780" stroke="#2C2420" fill="none" stroke-width="4" stroke-linecap="round"/>
  <line x1="320" y1="750" x2="320" y2="780" stroke="#2C2420" fill="none" stroke-width="4" stroke-linecap="round"/>
  <line x1="360" y1="750" x2="360" y2="780" stroke="#2C2420" fill="none" stroke-width="4" stroke-linecap="round"/>
  <line x1="400" y1="750" x2="400" y2="780" stroke="#2C2420" fill="none" stroke-width="4" stroke-linecap="round"/>
  <line x1="440" y1="750" x2="440" y2="780" stroke="#2C2420" fill="none" stroke-width="4" stroke-linecap="round"/>
  <line x1="480" y1="750" x2="480" y2="780" stroke="#2C2420" fill="none" stroke-width="4" stroke-linecap="round"/>
  <line x1="520" y1="750" x2="520" y2="780" stroke="#2C2420" fill="none" stroke-width="4" stroke-linecap="round"/>
  <line x1="560" y1="750" x2="560" y2="780" stroke="#2C2420" fill="none" stroke-width="4" stroke-linecap="round"/>

  <!-- ZOO sign arch -->
  <path d="M180 100 Q297 40, 415 100" stroke="#2C2420" fill="none" stroke-width="6" stroke-linecap="round"/>
  <line x1="180" y1="100" x2="180" y2="150" stroke="#2C2420" fill="none" stroke-width="6" stroke-linecap="round"/>
  <line x1="415" y1="100" x2="415" y2="150" stroke="#2C2420" fill="none" stroke-width="6" stroke-linecap="round"/>
  <!-- ZOO text area -->
  <rect x="250" y="55" width="95" height="35" rx="8" stroke="#2C2420" fill="none" stroke-width="4"/>

  <!-- Trees -->
  <circle cx="50" cy="180" r="40" stroke="#2C2420" fill="none" stroke-width="5"/>
  <circle cx="30" cy="210" r="35" stroke="#2C2420" fill="none" stroke-width="5"/>
  <circle cx="70" cy="215" r="30" stroke="#2C2420" fill="none" stroke-width="5"/>
  <line x1="50" y1="250" x2="50" y2="350" stroke="#2C2420" fill="none" stroke-width="5" stroke-linecap="round"/>

  <text x="297.5" y="825" text-anchor="middle" font-family="sans-serif" font-size="8" fill="#C4B8AB">berlinbabysitter.com</text>
</svg>
